<?xml version="1.0" encoding="utf-8" standalone="no"?>
<!DOCTYPE svg PUBLIC "-//W3C//DTD SVG 1.1//EN"
  "http://www.w3.org/Graphics/SVG/1.1/DTD/svg11.dtd">
<svg preserveAspectRatio="none" xmlns:xlink="http://www.w3.org/1999/xlink" width="100%" height="100%" viewBox="0 0 368.64 368.64" xmlns="http://www.w3.org/2000/svg" version="1.1">
 <metadata>
  <rdf:RDF xmlns:dc="http://purl.org/dc/elements/1.1/" xmlns:cc="http://creativecommons.org/ns#" xmlns:rdf="http://www.w3.org/1999/02/22-rdf-syntax-ns#">
   <cc:Work>
    <dc:type rdf:resource="http://purl.org/dc/dcmitype/StillImage"/>
    <dc:date>2026-03-23T10:01:12.492281</dc:date>
    <dc:format>image/svg+xml</dc:format>
    <dc:creator>
     <cc:Agent>
      <dc:title>Matplotlib v3.10.1, https://matplotlib.org/</dc:title>
     </cc:Agent>
    </dc:creator>
   </cc:Work>
  </rdf:RDF>
 </metadata>
 <defs>
  <style type="text/css">*{stroke-linejoin: round; stroke-linecap: butt}</style>
 </defs>
 <g id="figure_1">
  <g id="patch_1">
   <path d="M 0 368.64 
L 368.64 368.64 
L 368.64 0 
L 0 0 
L 0 368.64 
z
" style="fill: none; opacity: 0"/>
  </g>
  <g id="axes_1">
   <g id="QuadContourSet_1">
    <path clip-path="url(#p54ebac5334)" style="fill: none; stroke: #c8d8e8; stroke-width: 0.5"/>
    <path clip-path="url(#p54ebac5334)" style="fill: none; stroke: #c8d8e8; stroke-width: 0.5"/>
    <path clip-path="url(#p54ebac5334)" style="fill: none; stroke: #c8d8e8; stroke-width: 0.5"/>
    <path clip-path="url(#p54ebac5334)" style="fill: none; stroke: #c8d8e8; stroke-width: 0.5"/>
    <path clip-path="url(#p54ebac5334)" style="fill: none; stroke: #c8d8e8; stroke-width: 0.5"/>
    <path d="M 0 278.219658 
L 0.72 278.219658 
L 1.44 278.219658 
L 2.16 278.219658 
L 2.580342 278.64 
L 2.88 278.939658 
L 3.300342 279.36 
L 3.6 279.659658 
L 4.32 279.659658 
L 4.740342 280.08 
L 4.740342 280.8 
L 5.04 281.099658 
L 5.460342 281.52 
L 5.460342 282.24 
L 5.460342 282.96 
L 5.04 283.380342 
L 4.740342 283.68 
L 4.32 284.100342 
L 4.020342 284.4 
L 3.6 284.820342 
L 3.300342 285.12 
L 2.88 285.540342 
L 2.16 285.540342 
L 1.44 285.540342 
L 0.72 285.540342 
L 0.420342 285.84 
L 0 286.260342 
" clip-path="url(#p54ebac5334)" style="fill: none; stroke: #c8d8e8; stroke-width: 0.5"/>
    <path d="M 0 268.335393 
L 0.72 268.335393 
L 1.44 268.335393 
L 2.16 268.335393 
L 2.83382 268.56 
L 2.88 268.575392 
L 3.6 268.583087 
L 4.32 268.583087 
L 5.04 268.815369 
L 5.76 268.94309 
L 6.48 269.055393 
L 7.2 269.055393 
L 7.87382 269.28 
L 7.92 269.303087 
L 8.64 269.535369 
L 9.36 269.66309 
L 10.03382 270 
L 10.08 270.015392 
L 10.8 270.023087 
L 11.52 270.38309 
L 12.19382 270.72 
L 12.24 270.743087 
L 12.96 271.10309 
L 13.63382 271.44 
L 13.68 271.463087 
L 14.4 271.82309 
L 15.07382 272.16 
L 15.12 272.183087 
L 15.84 272.54309 
L 16.51382 272.88 
L 16.56 272.92618 
L 17.23382 273.6 
L 17.28 273.64618 
L 17.95382 274.32 
L 18 274.36618 
L 18.67382 275.04 
L 18.72 275.063087 
L 19.416913 275.76 
L 19.44 275.80618 
L 20.11382 276.48 
L 20.16 276.52618 
L 20.49691 277.2 
L 20.856913 277.92 
L 20.88 277.96618 
L 21.55382 278.64 
L 21.576913 279.36 
L 21.6 279.40618 
L 21.93691 280.08 
L 22.27382 280.8 
L 22.27382 281.52 
L 22.296913 282.24 
L 22.296913 282.96 
L 22.296913 283.68 
L 22.27382 284.4 
L 22.27382 285.12 
L 22.27382 285.84 
L 21.93691 286.56 
L 21.6 287.23382 
L 21.576913 287.28 
L 21.55382 288 
L 21.21691 288.72 
L 20.88 289.39382 
L 20.83382 289.44 
L 20.49691 290.16 
L 20.16 290.83382 
L 20.11382 290.88 
L 19.44 291.55382 
L 19.39382 291.6 
L 18.72 292.27382 
L 18.696913 292.32 
L 18.67382 293.04 
L 18 293.71382 
L 17.95382 293.76 
L 17.28 294.43382 
L 17.23382 294.48 
L 16.56 295.15382 
L 15.84 295.15382 
L 15.79382 295.2 
L 15.12 295.87382 
L 14.4 295.896913 
L 14.35382 295.92 
L 13.68 296.59382 
L 13.63382 296.64 
L 12.96 297.31382 
L 12.24 297.31382 
L 12.19382 297.36 
L 11.52 297.69691 
L 10.8 298.03382 
L 10.08 298.056913 
L 10.03382 298.08 
L 9.36 298.75382 
L 8.64 298.75382 
L 7.92 298.776913 
L 7.87382 298.8 
L 7.2 299.13691 
L 6.48 299.47382 
L 5.76 299.496913 
L 5.04 299.496913 
L 4.99382 299.52 
L 4.32 299.85691 
L 3.6 299.85691 
L 2.88 300.19382 
L 2.16 300.19382 
L 1.44 300.19382 
L 0.72 300.19382 
L 0 300.216913 
" clip-path="url(#p54ebac5334)" style="fill: none; stroke: #c8d8e8; stroke-width: 0.5"/>
    <path d="M 26.432702 368.64 
L 26.432702 366.48 
L 26.64 366.272702 
L 27.152702 365.04 
L 27.36 364.112702 
L 31.68 359.792702 
L 32.912702 359.28 
L 33.84 358.456351 
L 34.56 358.352702 
L 36.72 357.632702 
L 37.44 357.632702 
L 38.672702 357.12 
L 38.88 356.912702 
L 40.32 356.912702 
L 41.04 356.296351 
L 43.92 356.192702 
L 44.64 355.936351 
L 46.08 355.936351 
L 46.8 355.576351 
L 62.127298 355.68 
L 62.64 356.192702 
L 66.24 356.296351 
L 66.96 356.656351 
L 68.4 356.656351 
L 69.12 356.912702 
L 76.32 357.016351 
L 77.04 357.376351 
L 77.76 357.376351 
L 78.48 357.632702 
L 85.68 357.632702 
L 86.4 358.352702 
L 106.56 358.352702 
L 107.28 358.096351 
L 113.76 358.096351 
L 114.48 358.352702 
L 130.32 358.456351 
L 130.527298 358.56 
L 131.04 359.072702 
L 135.36 359.072702 
L 136.08 359.792702 
L 139.68 359.792702 
L 140.4 360.512702 
L 142.56 360.512702 
L 143.28 361.232702 
L 144.72 361.232702 
L 145.44 361.952702 
L 146.16 361.952702 
L 146.88 362.672702 
L 149.04 362.672702 
L 149.76 363.392702 
L 151.2 363.392702 
L 151.407298 363.6 
L 151.407298 364.32 
L 151.92 364.832702 
L 153.36 364.832702 
L 155.52 366.992702 
L 156.96 366.992702 
L 157.167298 367.2 
L 157.167298 368.64 
M 0 262.250885 
L 1.44 262.250885 
L 2.16 262.490901 
L 4.32 262.490901 
L 5.04 262.730901 
L 7.407298 262.8 
L 7.92 262.970885 
L 9.36 263.210901 
L 10.08 263.416351 
L 11.007298 263.52 
L 12.96 264.136351 
L 13.887298 264.24 
L 15.12 264.856351 
L 16.047298 264.96 
L 18 265.850885 
L 19.543649 266.4 
L 20.88 267.290885 
L 21.6 267.530901 
L 23.247298 268.56 
L 23.76 268.816351 
L 24.48 269.536351 
L 25.303649 270 
L 28.903649 273.6 
L 29.263649 274.32 
L 29.983649 275.04 
L 30.447298 275.76 
L 31.063649 276.48 
L 31.167298 277.2 
L 31.68 278.432702 
L 31.887298 278.64 
L 32.503649 280.08 
L 32.863649 280.8 
L 32.863649 282.24 
L 33.223649 282.96 
L 33.327298 284.4 
L 33.327298 285.84 
L 33.583649 286.56 
L 33.583649 287.28 
L 33.327298 288 
L 33.327298 291.6 
L 33.12 291.807298 
L 32.863649 292.32 
L 32.863649 293.04 
L 32.607298 293.76 
L 32.607298 294.48 
L 32.4 294.687298 
L 31.887298 295.92 
L 31.887298 296.64 
L 31.167298 297.36 
L 31.167298 298.08 
L 30.447298 298.8 
L 30.447298 299.52 
L 29.727298 300.24 
L 29.727298 300.96 
L 24.48 306.207298 
L 23.76 306.207298 
L 22.32 307.647298 
L 21.6 307.647298 
L 20.88 308.367298 
L 20.16 308.367298 
L 19.44 309.087298 
L 18 309.087298 
L 17.28 309.807298 
L 16.56 309.807298 
L 15.84 310.423649 
L 14.4 310.527298 
L 13.68 311.247298 
L 11.52 311.247298 
L 10.8 311.967298 
L 7.92 311.967298 
L 6.687298 312.48 
L 6.48 312.687298 
L 1.44 312.687298 
L 0.72 312.943649 
L 0 312.943649 
L 0 312.943649 
" clip-path="url(#p54ebac5334)" style="fill: none; stroke: #c8d8e8; stroke-width: 0.5"/>
    <path d="M 8.899225 368.64 
L 9.619225 367.92 
L 9.619225 365.76 
L 10.339225 365.04 
L 10.339225 363.6 
L 11.059225 362.88 
L 11.059225 362.16 
L 11.779225 361.44 
L 11.779225 360.72 
L 12.499225 360 
L 12.499225 359.28 
L 13.939225 357.84 
L 13.939225 357.12 
L 18 353.059225 
L 18.72 353.059225 
L 20.16 351.619225 
L 20.88 351.619225 
L 22.32 350.179225 
L 23.04 350.179225 
L 23.76 349.459225 
L 24.739225 349.2 
L 25.2 348.739225 
L 25.92 348.739225 
L 26.64 348.019225 
L 27.36 348.019225 
L 27.619225 347.76 
L 28.08 347.529612 
L 28.8 347.299225 
L 30.24 347.299225 
L 30.96 346.579225 
L 32.4 346.579225 
L 33.379225 346.32 
L 33.84 346.089612 
L 34.56 345.859225 
L 36 345.859225 
L 36.979225 345.6 
L 37.44 345.369612 
L 38.16 345.139225 
L 40.32 345.139225 
L 40.579225 344.88 
L 41.04 344.649612 
L 41.76 344.649612 
L 42.48 344.419225 
L 45.36 344.419225 
L 46.08 344.289594 
L 46.8 344.289594 
L 47.52 343.929612 
L 48.24 343.699225 
L 64.8 343.699225 
L 65.52 343.929612 
L 66.24 343.929612 
L 66.96 344.289594 
L 68.4 344.289594 
L 69.12 344.419225 
L 79.2 344.419225 
L 79.92 344.649612 
L 83.52 344.649612 
L 84.24 345.009594 
L 86.4 345.009594 
L 87.12 345.139225 
L 92.88 345.139225 
L 93.6 345.369612 
L 97.2 345.369612 
L 97.92 345.729594 
L 100.8 345.729594 
L 101.52 345.859225 
L 104.4 345.859225 
L 105.12 346.089612 
L 109.44 346.089612 
L 110.16 346.449594 
L 113.76 346.449594 
L 114.48 346.579225 
L 117.36 346.579225 
L 118.08 346.809612 
L 124.56 346.809612 
L 125.28 347.169594 
L 128.16 347.169594 
L 128.88 347.299225 
L 129.6 347.299225 
L 130.32 347.529612 
L 133.92 347.529612 
L 134.64 347.889594 
L 137.52 347.889594 
L 139.68 348.249612 
L 141.84 348.249612 
L 142.56 348.609594 
L 144.72 348.609594 
L 145.44 348.739225 
L 146.16 348.739225 
L 146.88 348.969612 
L 148.32 348.969612 
L 149.04 349.329594 
L 150.48 349.329594 
L 151.2 349.459225 
L 152.64 349.459225 
L 153.36 349.689612 
L 154.08 349.689612 
L 154.8 350.049594 
L 156.96 350.049594 
L 157.68 350.179225 
L 158.4 350.179225 
L 159.12 350.409612 
L 160.56 350.409612 
L 161.28 350.769594 
L 162.72 350.769594 
L 163.44 350.899225 
L 164.88 350.899225 
L 165.6 351.129612 
L 167.04 351.129612 
L 167.76 351.489594 
L 168.48 351.489594 
L 169.2 351.619225 
L 170.64 351.619225 
L 171.36 351.849612 
L 172.08 351.849612 
L 172.8 352.209594 
L 173.52 352.209594 
L 174.24 352.339225 
L 174.96 352.339225 
L 175.68 352.569612 
L 177.12 352.569612 
L 177.84 352.929594 
L 178.56 352.929594 
L 179.28 353.059225 
L 180 353.059225 
L 180.72 353.289612 
L 181.44 353.289612 
L 182.16 353.649594 
L 182.88 353.649594 
L 183.6 353.779225 
L 185.76 353.779225 
L 186.48 354.009612 
L 187.2 354.009612 
L 187.92 354.369594 
L 188.64 354.499225 
L 191.52 354.499225 
L 192.700775 354.96 
L 192.96 355.089594 
L 194.4 355.089594 
L 195.12 355.219225 
L 200.16 355.219225 
L 200.88 355.449612 
L 203.04 355.449612 
L 203.76 355.809594 
L 214.56 355.809594 
L 215.28 355.939225 
L 226.89 355.939225 
M 245.418424 355.809594 
L 245.52 355.809594 
L 246.24 355.449612 
L 246.96 355.449612 
L 247.68 355.219225 
L 254.16 355.219225 
L 254.88 355.089594 
L 256.32 355.089594 
L 257.04 354.729612 
L 259.2 354.729612 
L 259.92 354.499225 
L 269.28 354.499225 
L 270.259225 354.24 
L 270.72 354.009612 
L 271.44 354.009612 
L 271.900775 354.24 
L 272.16 354.499225 
L 272.88 353.779225 
L 280.08 353.779225 
L 280.339225 353.52 
L 280.8 353.289612 
L 281.52 353.289612 
L 282.24 353.059225 
L 291.6 353.059225 
L 292.32 352.339225 
L 308.16 352.339225 
L 308.88 351.619225 
L 316.08 351.619225 
L 316.8 350.899225 
L 320.4 350.899225 
L 321.12 350.179225 
L 321.84 350.179225 
L 322.56 349.459225 
L 324 349.459225 
L 324.72 348.739225 
L 326.16 348.739225 
L 326.88 348.019225 
L 327.6 348.019225 
L 328.32 347.299225 
L 329.76 347.299225 
L 331.2 345.859225 
L 331.92 345.859225 
L 332.64 345.139225 
L 333.36 345.139225 
L 334.08 344.419225 
L 334.8 344.419225 
L 336.24 342.979225 
L 336.96 342.979225 
L 337.68 342.259225 
L 338.4 342.259225 
L 339.84 340.819225 
L 340.56 340.819225 
L 342 339.379225 
L 342.72 339.379225 
L 343.44 338.659225 
L 344.16 338.659225 
L 344.88 337.939225 
L 345.6 337.939225 
L 346.32 337.219225 
L 347.04 337.219225 
L 347.76 336.499225 
L 348.48 336.499225 
L 349.2 335.779225 
L 350.64 335.779225 
L 351.36 335.059225 
L 352.8 335.059225 
L 353.52 334.339225 
L 354.96 334.339225 
L 355.68 333.619225 
L 359.28 333.619225 
L 360 332.899225 
L 364.32 332.899225 
L 365.299225 332.64 
L 365.76 332.179225 
L 367.92 332.179225 
M 0 256.646377 
L 2.16 256.646377 
L 2.88 256.886408 
L 5.04 256.886408 
L 5.76 257.1264 
L 7.92 257.169594 
L 8.64 257.366377 
L 10.08 257.366377 
L 10.8 257.606408 
L 11.52 257.606408 
L 12.24 257.8464 
L 12.96 257.889594 
L 14.4 258.326408 
L 15.12 258.326408 
L 18 259.2864 
L 18.72 259.329594 
L 20.16 260.0064 
L 20.88 260.049594 
L 22.32 260.7264 
L 24.48 261.489594 
L 27.36 262.929594 
L 28.08 263.6064 
L 28.67629 263.642172 
M 41.311024 276.561268 
L 42.710388 279.36 
L 42.940775 280.08 
L 43.2 280.339225 
L 43.430388 280.8 
L 44.870388 285.12 
L 44.870388 285.84 
L 45.820775 288.72 
L 45.820775 290.16 
L 46.08 291.139225 
L 46.310388 291.6 
L 46.540775 292.32 
L 46.540775 294.48 
L 46.670406 295.2 
L 46.670406 295.92 
L 47.030388 296.64 
L 47.260775 297.36 
L 47.260775 304.56 
L 46.540775 305.28 
L 46.540775 308.16 
L 45.820775 308.88 
L 45.820775 310.32 
L 44.380775 311.76 
L 44.380775 312.48 
L 42.940775 313.92 
L 42.940775 314.64 
L 38.16 319.420775 
L 37.44 319.420775 
L 36 320.860775 
L 35.28 320.860775 
L 33.84 322.300775 
L 33.12 322.300775 
L 32.4 323.020775 
L 30.96 323.020775 
L 30.24 323.740775 
L 29.52 323.740775 
L 28.8 324.460775 
L 28.08 324.460775 
L 27.36 325.180775 
L 26.64 325.180775 
L 25.92 325.900775 
L 24.48 325.900775 
L 23.76 326.620775 
L 22.32 326.620775 
L 21.6 327.340775 
L 19.44 327.340775 
L 18.72 328.060775 
L 16.56 328.060775 
L 15.84 328.780775 
L 12.24 328.780775 
L 11.52 329.500775 
L 6.48 329.500775 
L 5.76 330.220775 
L 0 330.220775 
L 0 330.220775 
" clip-path="url(#p54ebac5334)" style="fill: none; stroke: #c8d8e8; stroke-width: 0.5"/>
    <path d="M 0 250.801916 
L 4.32 250.801916 
L 5.76 251.041916 
L 7.92 251.041916 
L 8.64 251.281915 
L 10.8 251.282873 
L 11.52 251.521916 
L 12.24 251.521916 
L 13.68 251.761916 
L 14.4 251.761916 
L 15.12 252.001915 
L 15.84 252.002873 
L 16.56 252.241916 
L 18 252.481916 
L 18.72 252.721915 
L 19.44 252.722873 
L 20.16 252.961916 
L 21.6 253.201916 
L 23.04 253.681916 
L 23.76 253.802873 
L 25.2 254.401916 
L 25.92 254.522873 
L 28.08 255.602873 
L 28.8 255.602873 
L 32.4 257.402873 
L 33.12 257.402873 
L 35.28 258.485747 
L 36 259.202873 
L 36.72 259.205747 
L 37.44 259.922873 
L 38.88 260.642873 
L 39.6 261.362873 
L 41.04 262.085747 
L 42.48 263.522873 
L 43.2 263.882873 
L 44.64 265.322873 
L 45.36 265.685747 
L 45.717127 266.4 
L 46.08 266.762873 
L 46.8 267.125747 
L 47.52 268.565747 
L 48.96 270.005747 
L 49.68 271.445747 
L 50.4 272.165747 
L 51.12 273.605747 
L 51.84 274.325747 
L 53.28 277.205747 
L 53.994253 277.92 
L 54 278.645747 
L 54.72 279.365747 
L 55.44 280.805747 
L 56.154253 281.52 
L 56.16 282.245747 
L 56.874253 282.96 
L 56.88 283.685747 
L 57.594253 284.4 
L 57.6 285.125747 
L 58.314253 285.84 
L 58.32 286.565747 
L 59.034253 287.28 
L 59.04 288.005747 
L 59.76 288.725747 
L 60.48 290.165747 
L 61.194253 290.88 
L 61.2 291.605747 
L 61.914253 292.32 
L 61.92 293.045747 
L 62.634253 293.76 
L 62.64 294.485747 
L 63.354253 295.2 
L 63.36 295.925747 
L 64.074253 296.64 
L 64.08 298.085747 
L 64.794253 298.8 
L 64.8 299.525747 
L 65.514253 300.24 
L 65.52 300.965747 
L 66.234253 301.68 
L 66.24 303.125747 
L 66.954253 303.84 
L 66.96 304.565747 
L 67.674253 305.28 
L 67.68 306.725747 
L 68.394253 307.44 
L 68.4 308.165747 
L 69.114253 308.88 
L 69.12 309.605747 
L 69.834253 310.32 
L 69.84 311.045747 
L 70.554253 311.76 
L 70.56 312.485747 
L 71.274253 313.2 
L 71.28 313.925747 
L 71.994253 314.64 
L 72 315.365747 
L 73.434253 316.8 
L 73.44 317.525747 
L 78.48 322.565747 
L 79.2 322.565747 
L 79.92 323.285747 
L 80.64 323.285747 
L 82.08 324.725747 
L 82.8 324.725747 
L 83.52 325.445747 
L 84.24 325.445747 
L 84.96 326.165747 
L 85.68 326.165747 
L 86.4 326.885747 
L 87.12 326.885747 
L 87.84 327.605747 
L 89.28 327.605747 
L 90 328.325747 
L 90.72 328.325747 
L 91.44 329.045747 
L 92.88 329.045747 
L 93.6 329.765747 
L 95.04 329.765747 
L 95.76 330.485747 
L 96.48 330.485747 
L 97.2 331.205747 
L 98.64 331.205747 
L 99.36 331.925747 
L 100.8 331.925747 
L 102.24 332.645747 
L 102.96 332.645747 
L 104.4 333.362873 
L 106.56 333.365747 
L 108 334.085747 
L 110.16 334.085747 
L 111.6 334.802873 
L 113.76 334.805747 
L 115.2 335.522873 
L 118.08 335.525747 
L 118.8 335.882873 
L 119.52 335.882873 
L 120.24 336.242873 
L 123.12 336.245747 
L 123.84 336.602873 
L 125.28 336.602873 
L 126 336.962873 
L 128.16 336.965747 
L 128.88 337.322873 
L 130.32 337.322873 
L 131.04 337.682873 
L 133.92 337.685747 
L 134.64 338.042873 
L 136.8 338.042873 
L 137.52 338.402873 
L 140.4 338.405747 
L 141.12 338.762873 
L 143.28 338.762873 
L 144 339.122873 
L 147.6 339.125747 
L 148.32 339.482873 
L 150.48 339.482873 
L 151.2 339.842873 
L 154.8 339.845747 
L 155.52 340.202873 
L 158.4 340.202873 
L 159.12 340.562873 
L 162.72 340.565747 
L 163.44 340.922873 
L 166.32 340.922873 
L 167.04 341.282873 
L 170.64 341.285747 
L 171.36 341.642873 
L 173.52 341.642873 
L 174.24 342.002873 
L 177.84 342.005747 
L 178.56 342.362873 
L 180.72 342.362873 
L 181.44 342.722873 
L 185.04 342.725747 
L 185.76 343.082873 
L 187.92 343.082873 
L 188.64 343.442873 
L 192.24 343.445747 
L 192.96 343.802873 
L 195.12 343.802873 
L 195.84 344.162873 
L 199.44 344.165747 
L 200.16 344.522873 
L 203.04 344.522873 
L 203.76 344.882873 
L 211.68 344.885747 
L 212.4 345.242873 
L 218.16 345.242873 
L 218.88 345.602873 
L 239.765747 345.6 
L 240.48 345.242873 
L 242.64 345.242873 
L 243.36 344.885747 
L 246.965747 344.88 
L 247.68 344.522873 
L 249.84 344.522873 
L 250.56 344.165747 
L 252.725747 344.16 
L 253.44 343.802873 
L 254.88 343.802873 
L 255.6 343.445747 
L 259.205747 343.44 
L 259.92 343.082873 
L 260.64 343.082873 
L 261.36 342.725747 
L 263.525747 342.72 
L 264.24 342.362873 
L 264.96 342.362873 
L 265.68 342.005747 
L 268.565747 342 
L 270 341.285747 
L 272.885747 341.28 
L 274.32 340.565747 
L 277.205747 340.56 
L 278.64 339.845747 
L 281.525747 339.84 
L 282.24 339.125747 
L 285.845747 339.12 
L 286.56 338.405747 
L 289.445747 338.4 
L 290.88 337.685747 
L 294.485747 337.68 
L 295.2 336.965747 
L 298.085747 336.96 
L 299.52 336.245747 
L 303.845747 336.24 
L 304.56 335.525747 
L 306.725747 335.52 
L 307.44 334.805747 
L 309.605747 334.8 
L 310.32 334.085747 
L 312.485747 334.08 
L 313.2 333.365747 
L 314.645747 333.36 
L 315.36 332.645747 
L 316.085747 332.64 
L 316.8 331.925747 
L 318.245747 331.92 
L 318.96 331.205747 
L 319.685747 331.2 
L 320.4 330.485747 
L 321.125747 330.48 
L 321.84 329.765747 
L 322.565747 329.76 
L 323.28 329.045747 
L 324.725747 329.04 
L 325.44 328.325747 
L 326.165747 328.32 
L 326.88 327.605747 
L 327.605747 327.6 
L 328.32 326.885747 
L 329.045747 326.88 
L 329.76 326.165747 
L 330.485747 326.16 
L 331.2 325.445747 
L 332.645747 325.44 
L 333.36 324.725747 
L 334.085747 324.72 
L 334.8 324.005747 
L 336.245747 324 
L 336.96 323.285747 
L 338.405747 323.28 
L 339.84 322.565747 
L 341.285747 322.56 
L 342.72 321.845747 
L 344.165747 321.84 
L 344.88 321.125747 
L 347.045747 321.12 
L 347.76 320.405747 
L 349.925747 320.4 
L 351.36 319.685747 
L 354.245747 319.68 
L 355.68 318.965747 
L 360.005747 318.96 
L 361.44 318.245747 
L 367.92 318.245747 
L 367.92 318.245747 
" clip-path="url(#p54ebac5334)" style="fill: none; stroke: #c8d8e8; stroke-width: 0.5"/>
    <path d="M 0 243.956135 
L 6.48 243.997423 
L 7.2 244.237408 
L 13.68 244.316135 
L 15.12 244.676135 
L 17.28 244.717423 
L 18 245.036135 
L 19.44 245.036135 
L 20.16 245.396135 
L 22.32 245.396135 
L 23.04 245.756135 
L 23.76 245.756135 
L 24.48 246.116135 
L 25.2 246.116135 
L 25.92 246.476135 
L 26.64 246.476135 
L 28.08 246.836135 
L 28.8 246.836135 
L 30.24 247.556135 
L 30.96 247.556135 
L 32.4 248.276135 
L 33.12 248.276135 
L 36 249.592269 
L 36.967731 249.84 
L 47.047731 254.88 
L 47.767731 255.6 
L 49.207731 256.32 
L 49.927731 257.04 
L 51.367731 257.76 
L 54.247731 260.64 
L 54.72 260.876135 
L 57.363865 263.52 
L 57.847731 264.24 
L 60.007731 266.4 
L 60.48 267.592269 
L 62.887731 270 
L 62.887731 270.72 
L 65.643865 273.6 
L 65.767731 274.32 
L 68.647731 277.2 
L 68.647731 277.92 
L 71.527731 280.8 
L 71.527731 281.52 
L 74.407731 284.4 
L 74.407731 285.12 
L 76.567731 287.28 
L 76.567731 288 
L 78.727731 290.16 
L 78.727731 290.88 
L 80.887731 293.04 
L 80.887731 293.76 
L 83.047731 295.92 
L 83.047731 296.64 
L 85.927731 299.52 
L 85.927731 300.24 
L 93.6 307.912269 
L 94.32 307.912269 
L 97.2 310.792269 
L 97.92 310.792269 
L 99.36 312.232269 
L 100.08 312.232269 
L 101.52 313.672269 
L 102.24 313.672269 
L 103.68 315.112269 
L 104.4 315.112269 
L 105.12 315.832269 
L 105.84 315.832269 
L 106.56 316.552269 
L 107.28 316.552269 
L 108 317.272269 
L 108.72 317.272269 
L 110.16 318.712269 
L 110.88 318.712269 
L 111.6 319.432269 
L 112.32 319.432269 
L 113.04 320.152269 
L 113.76 320.152269 
L 114.48 320.872269 
L 115.92 320.872269 
L 116.64 321.592269 
L 117.36 321.592269 
L 118.327731 321.84 
L 118.8 322.312269 
L 119.52 322.312269 
L 120.487731 322.56 
L 121.68 323.032269 
L 122.4 323.032269 
L 123.12 323.752269 
L 124.56 323.752269 
L 124.807731 324 
L 126 324.472269 
L 126.72 324.472269 
L 127.687731 324.72 
L 128.16 325.192269 
L 129.6 325.192269 
L 130.567731 325.44 
L 131.76 325.912269 
L 132.48 325.912269 
L 133.447731 326.16 
L 134.64 326.632269 
L 135.36 326.632269 
L 136.08 326.756135 
L 136.8 326.756135 
L 138.24 327.352269 
L 138.96 327.352269 
L 139.927731 327.6 
L 140.4 327.836135 
L 141.12 327.836135 
L 141.84 328.072269 
L 142.56 328.072269 
L 143.527731 328.32 
L 144 328.556135 
L 144.72 328.556135 
L 145.44 328.792269 
L 146.16 328.792269 
L 146.88 328.916135 
L 147.6 328.916135 
L 148.32 329.276135 
L 149.76 329.276135 
L 150.48 329.512269 
L 151.92 329.512269 
L 152.887731 329.76 
L 153.36 329.996135 
L 154.8 329.996135 
L 155.52 330.232269 
L 156.24 330.232269 
L 156.96 330.356135 
L 158.4 330.356135 
L 159.12 330.716135 
L 160.56 330.716135 
L 161.28 330.952269 
L 162 330.952269 
L 162.72 331.076135 
L 164.88 331.076135 
L 165.6 331.436135 
L 168.48 331.436135 
L 169.2 331.672269 
L 169.92 331.672269 
L 170.64 331.796135 
L 175.68 331.796135 
L 176.4 332.156135 
L 177.12 331.796135 
L 177.84 332.156135 
L 189.36 332.156135 
L 190.08 332.392269 
L 194.4 332.392269 
L 195.12 332.516135 
L 195.84 332.516135 
L 196.56 332.876135 
L 197.28 332.876135 
L 198 333.112269 
L 200.88 333.112269 
L 201.6 333.236135 
L 202.32 333.236135 
L 203.04 333.596135 
L 204.48 333.596135 
L 205.2 333.832269 
L 206.64 333.832269 
L 207.36 333.956135 
L 208.8 333.956135 
L 209.52 334.316135 
L 210.96 334.316135 
L 211.68 334.552269 
L 213.84 334.552269 
L 214.56 334.676135 
L 215.28 334.676135 
L 216 335.036135 
L 218.16 335.036135 
L 218.88 335.272269 
L 221.04 335.272269 
L 221.76 335.396135 
L 224.64 335.396135 
L 225.36 335.756135 
L 231.12 335.756135 
L 231.84 335.396135 
L 234 335.396135 
L 234.72 335.272269 
L 237.6 335.272269 
L 238.32 335.036135 
L 239.04 335.036135 
L 239.76 334.676135 
L 241.2 334.676135 
L 241.92 334.552269 
L 242.64 334.552269 
L 243.36 334.316135 
L 244.08 334.316135 
L 244.8 333.956135 
L 245.52 333.956135 
L 246.24 333.832269 
L 246.96 333.832269 
L 247.68 333.596135 
L 248.4 333.596135 
L 249.12 333.236135 
L 249.84 333.112269 
L 250.56 333.112269 
L 251.752269 332.64 
L 252 332.516135 
L 252.72 332.392269 
L 254.16 332.392269 
L 254.88 331.796135 
L 255.6 331.672269 
L 257.04 331.672269 
L 258.232269 331.2 
L 258.48 331.076135 
L 259.2 330.952269 
L 259.92 330.952269 
L 261.112269 330.48 
L 261.36 330.356135 
L 262.08 330.232269 
L 262.8 330.232269 
L 263.992269 329.76 
L 264.24 329.636135 
L 264.96 329.512269 
L 265.68 329.512269 
L 266.872269 329.04 
L 267.12 328.792269 
L 268.56 328.792269 
L 269.752269 328.32 
L 270 328.072269 
L 271.44 328.072269 
L 272.16 327.352269 
L 273.6 327.352269 
L 274.792269 326.88 
L 275.04 326.632269 
L 276.48 326.632269 
L 277.672269 326.16 
L 277.92 326.036135 
L 278.64 325.912269 
L 280.08 325.912269 
L 280.8 325.192269 
L 282.96 325.192269 
L 283.68 324.472269 
L 285.84 324.472269 
L 286.56 323.752269 
L 288 323.752269 
L 288.72 323.032269 
L 290.88 323.032269 
L 291.6 322.312269 
L 293.04 322.312269 
L 293.76 321.592269 
L 295.2 321.592269 
L 295.92 320.872269 
L 297.36 320.872269 
L 298.08 320.152269 
L 299.52 320.152269 
L 300.24 319.432269 
L 301.68 319.432269 
L 302.4 318.712269 
L 303.84 318.712269 
L 304.56 317.992269 
L 305.28 317.992269 
L 306 317.272269 
L 307.44 317.272269 
L 308.16 316.552269 
L 309.6 316.552269 
L 310.32 315.832269 
L 312.48 315.832269 
L 313.2 315.112269 
L 314.64 315.112269 
L 315.36 314.392269 
L 316.8 314.392269 
L 317.992269 313.92 
L 318.24 313.672269 
L 319.68 313.672269 
L 320.872269 313.2 
L 321.12 312.952269 
L 322.56 312.952269 
L 323.28 312.232269 
L 324.72 312.232269 
L 325.912269 311.76 
L 326.16 311.512269 
L 327.6 311.512269 
L 328.32 310.916135 
L 329.04 310.792269 
L 330.48 310.792269 
L 331.2 310.196135 
L 331.92 310.072269 
L 332.64 310.072269 
L 333.832269 309.6 
L 334.08 309.476135 
L 334.8 309.352269 
L 335.52 309.352269 
L 336.712269 308.88 
L 336.96 308.756135 
L 337.68 308.632269 
L 339.12 308.632269 
L 340.312269 308.16 
L 340.56 307.912269 
L 342 307.912269 
L 343.192269 307.44 
L 343.44 307.316135 
L 344.16 307.192269 
L 345.6 307.192269 
L 346.792269 306.72 
L 347.04 306.472269 
L 349.2 306.472269 
L 350.392269 306 
L 350.64 305.876135 
L 351.36 305.752269 
L 353.52 305.752269 
L 354.712269 305.28 
L 354.96 305.156135 
L 355.68 305.032269 
L 359.28 305.032269 
L 360.472269 304.56 
L 360.72 304.436135 
L 361.44 304.312269 
L 367.92 304.312269 
M 0.967731 0.72 
L 0.967731 2.16 
L 0.247731 2.88 
L 0.247731 8.64 
L 0 8.887731 
L 0 8.887731 
" clip-path="url(#p54ebac5334)" style="fill: none; stroke: #c8d8e8; stroke-width: 0.5"/>
    <path d="M 0 234.829396 
L 0.72 234.829396 
L 1.44 234.829396 
L 2.16 234.829396 
L 2.88 234.829396 
L 3.6 234.829396 
L 4.32 234.829396 
L 5.04 234.938791 
L 5.76 234.938791 
L 6.48 234.938791 
L 7.2 234.938791 
L 7.92 235.189396 
L 8.64 235.189396 
L 9.36 235.189396 
L 10.08 235.189396 
L 10.8 235.189396 
L 11.52 235.189396 
L 12.24 235.189396 
L 12.96 235.189396 
L 13.461209 235.44 
L 13.68 235.549396 
L 14.4 235.549396 
L 15.12 235.549396 
L 15.84 235.549396 
L 16.56 235.549396 
L 17.28 235.658791 
L 18 235.658791 
L 18.72 235.658791 
L 19.44 235.658791 
L 20.16 235.909396 
L 20.88 235.909396 
L 21.381209 236.16 
L 21.6 236.269396 
L 22.32 236.269396 
L 23.04 236.269396 
L 23.76 236.378791 
L 24.48 236.378791 
L 25.2 236.629396 
L 25.92 236.629396 
L 26.421209 236.88 
L 26.64 236.989396 
L 27.36 237.098791 
L 28.08 237.098791 
L 28.8 237.349396 
L 29.301209 237.6 
L 29.52 237.709396 
L 30.24 237.709396 
L 30.96 237.818791 
L 31.68 238.069396 
L 32.181209 238.32 
L 32.4 238.429396 
L 33.12 238.538791 
L 33.84 238.789396 
L 34.341209 239.04 
L 34.56 239.149396 
L 35.28 239.149396 
L 36 239.509396 
L 36.501209 239.76 
L 36.72 239.869396 
L 37.44 239.978791 
L 38.16 240.229396 
L 38.661209 240.48 
L 38.88 240.589396 
L 39.6 240.698791 
L 40.32 240.949396 
L 40.821209 241.2 
L 41.04 241.309396 
L 41.76 241.669396 
L 42.261209 241.92 
L 42.48 242.029396 
L 43.2 242.389396 
L 43.701209 242.64 
L 43.92 242.749396 
L 44.64 242.858791 
L 45.141209 243.36 
L 45.36 243.469396 
L 46.08 243.578791 
L 46.8 243.829396 
L 47.301209 244.08 
L 47.52 244.298791 
L 48.24 244.549396 
L 48.741209 244.8 
L 48.96 244.909396 
L 49.68 245.269396 
L 50.181209 245.52 
L 50.4 245.629396 
L 51.12 245.989396 
L 51.621209 246.24 
L 51.84 246.349396 
L 52.56 246.458791 
L 53.061209 246.96 
L 53.28 247.069396 
L 54 247.429396 
L 54.501209 247.68 
L 54.72 247.789396 
L 55.44 248.149396 
L 55.941209 248.4 
L 56.16 248.618791 
L 56.88 248.869396 
L 57.381209 249.12 
L 57.6 249.338791 
L 58.101209 249.84 
L 58.32 249.949396 
L 59.04 250.309396 
L 59.541209 250.56 
L 59.76 250.778791 
L 60.261209 251.28 
L 60.48 251.498791 
L 60.981209 252 
L 61.2 252.109396 
L 61.92 252.218791 
L 62.421209 252.72 
L 62.64 252.938791 
L 63.141209 253.44 
L 63.36 253.658791 
L 63.861209 254.16 
L 64.08 254.269396 
L 64.8 254.378791 
L 65.301209 254.88 
L 65.52 255.098791 
L 66.021209 255.6 
L 66.24 255.818791 
L 66.741209 256.32 
L 66.96 256.538791 
L 67.461209 257.04 
L 67.461209 257.76 
L 67.68 257.978791 
L 68.181209 258.48 
L 68.4 258.698791 
L 69.12 258.698791 
L 69.621209 259.2 
L 69.84 259.418791 
L 70.341209 259.92 
L 70.56 260.138791 
L 71.061209 260.64 
L 71.28 260.858791 
L 71.781209 261.36 
L 72 261.578791 
L 72.501209 262.08 
L 72.72 262.298791 
L 73.221209 262.8 
L 73.44 263.018791 
L 73.941209 263.52 
L 74.16 263.738791 
L 74.661209 264.24 
L 74.88 264.458791 
L 75.381209 264.96 
L 75.6 265.178791 
L 76.101209 265.68 
L 76.32 265.898791 
L 76.821209 266.4 
L 77.04 266.618791 
L 77.541209 267.12 
L 77.76 267.338791 
L 78.261209 267.84 
L 78.48 268.058791 
L 78.981209 268.56 
L 79.2 268.778791 
L 79.701209 269.28 
L 79.92 269.498791 
L 80.421209 270 
L 80.64 270.218791 
L 81.141209 270.72 
L 81.36 270.938791 
L 81.861209 271.44 
L 82.08 271.658791 
L 82.581209 272.16 
L 82.8 272.378791 
L 83.301209 272.88 
L 83.52 273.098791 
L 84.021209 273.6 
L 84.24 273.818791 
L 84.741209 274.32 
L 84.96 274.538791 
L 85.461209 275.04 
L 85.68 275.258791 
L 86.181209 275.76 
L 86.4 275.978791 
L 86.901209 276.48 
L 87.12 276.698791 
L 87.621209 277.2 
L 87.84 277.418791 
L 88.341209 277.92 
L 88.341209 278.64 
L 88.56 278.858791 
L 89.061209 279.36 
L 89.28 279.578791 
L 89.781209 280.08 
L 90 280.298791 
L 90.501209 280.8 
L 90.72 281.018791 
L 91.221209 281.52 
L 91.44 281.738791 
L 91.941209 282.24 
L 92.16 282.458791 
L 92.661209 282.96 
L 92.88 283.178791 
L 93.381209 283.68 
L 93.6 283.898791 
L 94.101209 284.4 
L 94.32 284.618791 
L 94.821209 285.12 
L 95.04 285.338791 
L 95.541209 285.84 
L 95.76 286.058791 
L 96.261209 286.56 
L 96.48 286.778791 
L 96.981209 287.28 
L 97.2 287.498791 
L 97.701209 288 
L 97.92 288.218791 
L 98.421209 288.72 
L 98.64 288.938791 
L 99.141209 289.44 
L 99.36 289.658791 
L 99.861209 290.16 
L 100.08 290.378791 
L 100.581209 290.88 
L 100.8 291.098791 
L 101.52 291.098791 
L 102.021209 291.6 
L 102.24 291.818791 
L 102.741209 292.32 
L 102.96 292.538791 
L 103.461209 293.04 
L 103.68 293.258791 
L 104.181209 293.76 
L 104.4 293.978791 
L 105.12 293.978791 
L 105.621209 294.48 
L 105.84 294.698791 
L 106.341209 295.2 
L 106.56 295.418791 
L 107.061209 295.92 
L 107.28 296.138791 
L 108 296.138791 
L 108.501209 296.64 
L 108.72 296.858791 
L 109.221209 297.36 
L 109.44 297.578791 
L 109.941209 298.08 
L 110.16 298.298791 
L 110.88 298.298791 
L 111.381209 298.8 
L 111.6 299.018791 
L 112.101209 299.52 
L 112.32 299.738791 
L 113.04 299.738791 
L 113.541209 300.24 
L 113.76 300.458791 
L 114.261209 300.96 
L 114.48 301.178791 
L 115.2 301.178791 
L 115.701209 301.68 
L 115.92 301.898791 
L 116.421209 302.4 
L 116.64 302.618791 
L 117.36 302.618791 
L 117.861209 303.12 
L 118.08 303.338791 
L 118.581209 303.84 
L 118.8 304.058791 
L 119.52 304.058791 
L 120.021209 304.56 
L 120.24 304.778791 
L 120.96 304.778791 
L 121.461209 305.28 
L 121.68 305.498791 
L 122.181209 306 
L 122.4 306.218791 
L 123.12 306.218791 
L 123.621209 306.72 
L 123.84 306.938791 
L 124.56 306.938791 
L 125.061209 307.44 
L 125.28 307.658791 
L 126 307.658791 
L 126.501209 308.16 
L 126.72 308.378791 
L 127.44 308.378791 
L 127.941209 308.88 
L 128.16 309.098791 
L 128.661209 309.6 
L 128.88 309.818791 
L 129.6 309.818791 
L 130.101209 310.32 
L 130.32 310.538791 
L 131.04 310.538791 
L 131.541209 311.04 
L 131.76 311.258791 
L 132.48 311.258791 
L 132.981209 311.76 
L 133.2 311.978791 
L 133.92 311.978791 
L 134.64 311.978791 
L 135.141209 312.48 
L 135.36 312.698791 
L 136.08 312.698791 
L 136.8 312.949396 
L 137.301209 313.2 
L 137.52 313.418791 
L 138.24 313.418791 
L 138.741209 313.92 
L 138.96 314.029396 
L 139.68 314.138791 
L 140.4 314.138791 
L 141.12 314.389396 
L 141.621209 314.64 
L 141.84 314.858791 
L 142.56 314.858791 
L 143.28 314.858791 
L 143.781209 315.36 
L 144 315.578791 
L 144.72 315.578791 
L 145.221209 316.08 
L 145.44 316.189396 
L 146.16 316.298791 
L 146.88 316.298791 
L 147.6 316.549396 
L 148.101209 316.8 
L 148.32 316.909396 
L 149.04 317.018791 
L 149.76 317.018791 
L 150.48 317.269396 
L 150.981209 317.52 
L 151.2 317.629396 
L 151.92 317.738791 
L 152.64 317.738791 
L 153.36 317.989396 
L 153.861209 318.24 
L 154.08 318.349396 
L 154.8 318.458791 
L 155.52 318.458791 
L 156.24 318.709396 
L 156.741209 318.96 
L 156.96 319.069396 
L 157.68 319.069396 
L 158.4 319.178791 
L 159.12 319.178791 
L 159.84 319.429396 
L 160.341209 319.68 
L 160.56 319.789396 
L 161.28 319.898791 
L 162 319.898791 
L 162.72 319.898791 
L 163.44 320.149396 
L 163.941209 320.4 
L 164.16 320.509396 
L 164.88 320.509396 
L 165.6 320.509396 
L 166.32 320.618791 
L 167.04 320.618791 
L 167.76 320.618791 
L 168.48 320.618791 
L 169.2 320.869396 
L 169.92 320.869396 
L 170.64 320.869396 
L 171.141209 321.12 
L 171.36 321.229396 
L 172.08 321.229396 
L 172.8 321.229396 
L 173.52 321.229396 
L 174.24 321.229396 
L 174.96 321.229396 
L 175.68 321.229396 
L 176.4 321.229396 
L 177.12 321.229396 
L 177.84 321.229396 
L 178.56 321.229396 
L 179.28 321.229396 
L 179.498791 321.12 
L 180 320.869396 
L 180.72 320.869396 
L 181.44 320.869396 
L 182.16 320.869396 
L 182.88 320.869396 
L 183.6 320.618791 
L 184.32 320.618791 
L 185.04 320.618791 
L 185.76 320.618791 
L 186.48 320.509396 
L 187.2 320.509396 
L 187.92 320.509396 
L 188.138791 320.4 
L 188.64 320.149396 
L 189.36 320.149396 
L 190.08 320.149396 
L 190.8 319.898791 
L 191.52 319.898791 
L 192.24 319.898791 
L 192.96 319.898791 
L 193.68 319.898791 
L 194.4 319.898791 
L 195.12 319.898791 
L 195.84 319.898791 
L 196.56 319.898791 
L 197.28 319.898791 
L 198 319.898791 
L 198.72 319.898791 
L 199.44 320.149396 
L 200.16 320.149396 
L 200.88 320.149396 
L 201.381209 320.4 
L 201.6 320.509396 
L 202.32 320.618791 
L 203.04 320.618791 
L 203.76 320.618791 
L 204.48 320.618791 
L 205.2 320.618791 
L 205.92 320.869396 
L 206.64 320.869396 
L 207.141209 321.12 
L 207.36 321.229396 
L 208.08 321.338791 
L 208.8 321.338791 
L 209.52 321.338791 
L 210.24 321.338791 
L 210.96 321.338791 
L 211.68 321.589396 
L 212.181209 321.84 
L 212.4 321.949396 
L 213.12 322.058791 
L 213.84 322.058791 
L 214.56 322.058791 
L 215.28 322.058791 
L 216 322.058791 
L 216.72 322.309396 
L 217.44 322.309396 
L 217.941209 322.56 
L 218.16 322.669396 
L 218.88 322.778791 
L 219.6 322.778791 
L 220.32 322.778791 
L 221.04 322.778791 
L 221.76 322.778791 
L 222.48 322.778791 
L 223.2 322.778791 
L 223.92 323.029396 
L 224.64 323.029396 
L 225.141209 323.28 
L 225.36 323.389396 
L 226.08 323.389396 
L 226.8 323.389396 
L 227.52 323.389396 
L 228.24 323.389396 
L 228.96 323.389396 
L 229.68 323.389396 
L 229.898791 323.28 
L 230.4 322.778791 
L 231.12 322.778791 
L 231.84 322.778791 
L 232.56 322.778791 
L 233.28 322.778791 
L 234 322.778791 
L 234.72 322.778791 
L 234.938791 322.56 
L 235.44 322.309396 
L 236.16 322.058791 
L 236.88 322.058791 
L 237.6 322.058791 
L 238.32 322.058791 
L 238.538791 321.84 
L 239.04 321.589396 
L 239.76 321.338791 
L 240.48 321.338791 
L 241.2 321.338791 
L 241.92 321.229396 
L 242.64 321.229396 
L 242.858791 321.12 
L 243.36 320.869396 
L 244.08 320.618791 
L 244.8 320.618791 
L 245.52 320.509396 
L 245.738791 320.4 
L 246.24 319.898791 
L 246.96 319.898791 
L 247.68 319.898791 
L 247.898791 319.68 
L 248.4 319.429396 
L 249.12 319.178791 
L 249.84 319.178791 
L 250.058791 318.96 
L 250.56 318.458791 
L 251.28 318.458791 
L 252 318.458791 
L 252.218791 318.24 
L 252.72 317.738791 
L 253.44 317.738791 
L 254.16 317.738791 
L 254.378791 317.52 
L 254.88 317.018791 
L 255.6 317.018791 
L 256.32 317.018791 
L 256.538791 316.8 
L 257.04 316.298791 
L 257.76 316.298791 
L 257.978791 316.08 
L 258.48 315.578791 
L 259.2 315.578791 
L 259.92 315.578791 
L 260.138791 315.36 
L 260.64 314.858791 
L 261.36 314.858791 
L 262.08 314.858791 
L 262.298791 314.64 
L 262.8 314.138791 
L 263.52 314.138791 
L 264.24 314.138791 
L 264.458791 313.92 
L 264.96 313.418791 
L 265.68 313.418791 
L 266.4 313.418791 
L 266.618791 313.2 
L 267.12 312.698791 
L 267.84 312.698791 
L 268.56 312.698791 
L 268.778791 312.48 
L 269.28 311.978791 
L 270 311.978791 
L 270.218791 311.76 
L 270.72 311.258791 
L 271.44 311.258791 
L 272.16 311.258791 
L 272.378791 311.04 
L 272.88 310.538791 
L 273.6 310.538791 
L 274.32 310.538791 
L 274.538791 310.32 
L 275.04 309.818791 
L 275.76 309.818791 
L 276.48 309.818791 
L 276.698791 309.6 
L 277.2 309.098791 
L 277.92 309.098791 
L 278.64 309.098791 
L 278.858791 308.88 
L 279.36 308.378791 
L 280.08 308.378791 
L 280.8 308.378791 
L 281.018791 308.16 
L 281.52 307.658791 
L 282.24 307.658791 
L 282.96 307.658791 
L 283.68 307.658791 
L 283.898791 307.44 
L 284.4 306.938791 
L 285.12 306.938791 
L 285.84 306.938791 
L 286.058791 306.72 
L 286.56 306.218791 
L 287.28 306.218791 
L 288 306.218791 
L 288.218791 306 
L 288.72 305.749396 
L 289.44 305.498791 
L 290.16 305.498791 
L 290.88 305.498791 
L 291.098791 305.28 
L 291.6 305.029396 
L 292.32 304.778791 
L 293.04 304.778791 
L 293.76 304.778791 
L 293.978791 304.56 
L 294.48 304.309396 
L 295.2 304.058791 
L 295.92 304.058791 
L 296.64 304.058791 
L 296.858791 303.84 
L 297.36 303.589396 
L 298.08 303.338791 
L 298.8 303.338791 
L 299.52 303.338791 
L 299.738791 303.12 
L 300.24 302.869396 
L 300.96 302.618791 
L 301.68 302.618791 
L 302.4 302.618791 
L 303.12 302.509396 
L 303.338791 302.4 
L 303.84 302.149396 
L 304.56 301.898791 
L 305.28 301.898791 
L 306 301.898791 
L 306.72 301.789396 
L 306.938791 301.68 
L 307.44 301.429396 
L 308.16 301.178791 
L 308.88 301.178791 
L 309.6 301.178791 
L 309.818791 300.96 
L 310.32 300.709396 
L 311.04 300.458791 
L 311.76 300.458791 
L 312.48 300.458791 
L 313.2 300.458791 
L 313.92 300.349396 
L 314.138791 300.24 
L 314.64 299.738791 
L 315.36 299.738791 
L 316.08 299.738791 
L 316.8 299.738791 
L 317.018791 299.52 
L 317.52 299.269396 
L 318.24 299.018791 
L 318.96 299.018791 
L 319.68 299.018791 
L 320.4 299.018791 
L 320.618791 298.8 
L 321.12 298.549396 
L 321.84 298.298791 
L 322.56 298.298791 
L 323.28 298.298791 
L 324 298.189396 
L 324.218791 298.08 
L 324.72 297.829396 
L 325.44 297.578791 
L 326.16 297.578791 
L 326.88 297.578791 
L 327.6 297.469396 
L 327.818791 297.36 
L 328.32 296.858791 
L 329.04 296.858791 
L 329.76 296.858791 
L 330.48 296.749396 
L 330.698791 296.64 
L 331.2 296.389396 
L 331.92 296.138791 
L 332.64 296.138791 
L 333.36 296.138791 
L 334.08 296.029396 
L 334.298791 295.92 
L 334.8 295.418791 
L 335.52 295.418791 
L 336.24 295.418791 
L 336.458791 295.2 
L 336.96 294.949396 
L 337.68 294.698791 
L 338.4 294.698791 
L 339.12 294.698791 
L 339.84 294.589396 
L 340.058791 294.48 
L 340.56 293.978791 
L 341.28 293.978791 
L 342 293.978791 
L 342.218791 293.76 
L 342.72 293.509396 
L 343.44 293.258791 
L 344.16 293.258791 
L 344.88 293.258791 
L 345.098791 293.04 
L 345.6 292.538791 
L 346.32 292.538791 
L 347.04 292.538791 
L 347.76 292.538791 
L 347.978791 292.32 
L 348.48 291.818791 
L 349.2 291.818791 
L 349.92 291.818791 
L 350.64 291.818791 
L 350.858791 291.6 
L 351.36 291.098791 
L 352.08 291.098791 
L 352.8 291.098791 
L 353.52 291.098791 
L 353.738791 290.88 
L 354.24 290.629396 
L 354.96 290.378791 
L 355.68 290.378791 
L 356.4 290.378791 
L 357.12 290.378791 
L 357.84 290.378791 
L 358.56 290.269396 
L 358.778791 290.16 
L 359.28 289.658791 
L 360 289.658791 
L 360.72 289.658791 
L 361.44 289.658791 
L 362.16 289.658791 
L 362.88 289.658791 
L 363.6 289.658791 
L 364.32 289.658791 
L 364.538791 289.44 
L 365.04 289.189396 
L 365.76 288.938791 
L 366.48 288.938791 
L 367.2 288.938791 
L 367.92 288.938791 
M 27.861209 0.72 
L 27.861209 1.44 
L 27.861209 2.16 
L 27.861209 2.88 
L 27.861209 3.6 
L 27.861209 4.32 
L 27.861209 5.04 
L 27.861209 5.76 
L 27.861209 6.48 
L 27.861209 7.2 
L 27.861209 7.92 
L 27.861209 8.64 
L 27.861209 9.36 
L 27.861209 10.08 
L 27.861209 10.8 
L 27.861209 11.52 
L 28.08 11.738791 
L 28.581209 12.24 
L 28.581209 12.96 
L 28.581209 13.68 
L 28.581209 14.4 
L 28.581209 15.12 
L 28.581209 15.84 
L 28.581209 16.56 
L 28.581209 17.28 
L 28.581209 18 
L 28.8 18.218791 
L 29.301209 18.72 
L 29.301209 19.44 
L 29.301209 20.16 
L 29.301209 20.88 
L 29.301209 21.6 
L 29.301209 22.32 
L 29.301209 23.04 
L 29.301209 23.76 
L 29.301209 24.48 
L 29.301209 25.2 
L 28.8 25.701209 
L 28.581209 25.92 
L 28.581209 26.64 
L 28.581209 27.36 
L 28.581209 28.08 
L 28.08 28.581209 
L 27.861209 28.8 
L 27.861209 29.52 
L 27.861209 30.24 
L 27.861209 30.96 
L 27.861209 31.68 
L 27.36 32.181209 
L 27.141209 32.4 
L 27.141209 33.12 
L 27.141209 33.84 
L 27.141209 34.56 
L 26.64 35.061209 
L 26.421209 35.28 
L 26.421209 36 
L 26.421209 36.72 
L 25.92 37.221209 
L 25.701209 37.44 
L 25.701209 38.16 
L 25.2 38.661209 
L 24.981209 38.88 
L 24.981209 39.6 
L 24.981209 40.32 
L 24.48 40.821209 
L 24.261209 41.04 
L 24.261209 41.76 
L 23.76 42.261209 
L 23.541209 42.48 
L 23.04 42.981209 
L 22.821209 43.2 
L 22.821209 43.92 
L 22.32 44.421209 
L 22.101209 44.64 
L 21.6 45.141209 
L 21.381209 45.36 
L 20.88 45.861209 
L 20.661209 46.08 
L 20.16 46.581209 
L 19.941209 46.8 
L 19.941209 47.52 
L 19.44 48.021209 
L 18.72 48.021209 
L 18.501209 48.24 
L 18 48.741209 
L 17.781209 48.96 
L 17.28 49.461209 
L 17.061209 49.68 
L 16.56 50.181209 
L 16.341209 50.4 
L 15.84 50.901209 
L 15.12 50.901209 
L 14.901209 51.12 
L 14.4 51.621209 
L 13.68 51.621209 
L 13.461209 51.84 
L 12.96 52.341209 
L 12.24 52.341209 
L 12.021209 52.56 
L 11.52 53.061209 
L 10.8 53.061209 
L 10.581209 53.28 
L 10.08 53.781209 
L 9.36 53.781209 
L 8.64 53.781209 
L 7.92 53.781209 
L 7.701209 54 
L 7.2 54.501209 
L 6.48 54.501209 
L 5.76 54.501209 
L 5.04 54.501209 
L 4.32 54.501209 
L 4.101209 54.72 
L 3.6 55.221209 
L 2.88 55.221209 
L 2.16 55.221209 
L 1.44 55.221209 
L 0.72 55.221209 
L 0 55.221209 
M 264.24 78.261209 
L 263.738791 77.76 
L 263.52 77.541209 
L 262.8 77.541209 
L 262.08 77.541209 
L 261.36 77.541209 
L 260.64 77.541209 
L 259.92 77.541209 
L 259.2 77.541209 
L 258.698791 77.04 
L 258.48 76.821209 
L 257.76 76.821209 
L 257.04 76.821209 
L 256.32 76.821209 
L 255.6 76.821209 
L 255.098791 76.32 
L 254.88 76.101209 
L 254.16 76.101209 
L 253.44 76.101209 
L 252.72 76.101209 
L 252 76.101209 
L 251.498791 75.6 
L 251.28 75.381209 
L 250.56 75.381209 
L 249.84 75.381209 
L 249.12 75.381209 
L 248.4 75.381209 
L 247.898791 74.88 
L 247.68 74.661209 
L 246.96 74.661209 
L 246.24 74.661209 
L 245.738791 74.16 
L 245.52 73.941209 
L 244.8 73.941209 
L 244.298791 73.44 
L 244.08 73.221209 
L 243.578791 72.72 
L 243.36 72.501209 
L 242.64 72.501209 
L 242.138791 72 
L 241.92 71.781209 
L 241.418791 71.28 
L 241.2 71.061209 
L 240.698791 70.56 
L 240.48 70.341209 
L 239.978791 69.84 
L 239.76 69.621209 
L 239.258791 69.12 
L 239.04 68.901209 
L 238.538791 68.4 
L 238.538791 67.68 
L 238.32 67.461209 
L 237.818791 66.96 
L 237.818791 66.24 
L 237.818791 65.52 
L 237.818791 64.8 
L 237.6 64.581209 
L 237.098791 64.08 
L 237.098791 63.36 
L 237.098791 62.64 
L 237.098791 61.92 
L 237.098791 61.2 
L 237.098791 60.48 
L 237.098791 59.76 
L 237.6 59.258791 
L 237.818791 59.04 
L 237.818791 58.32 
L 237.818791 57.6 
L 237.818791 56.88 
L 237.818791 56.16 
L 238.32 55.658791 
L 238.538791 55.44 
L 239.04 54.938791 
L 239.258791 54.72 
L 239.258791 54 
L 239.76 53.498791 
L 239.978791 53.28 
L 239.978791 52.56 
L 240.48 52.058791 
L 240.698791 51.84 
L 241.2 51.338791 
L 241.418791 51.12 
L 241.92 50.618791 
L 242.138791 50.4 
L 242.138791 49.68 
L 242.64 49.178791 
L 242.858791 48.96 
L 243.36 48.458791 
L 244.08 48.458791 
L 244.298791 48.24 
L 244.8 47.738791 
L 245.018791 47.52 
L 245.52 47.018791 
L 245.738791 46.8 
L 246.24 46.298791 
L 246.96 46.298791 
L 247.178791 46.08 
L 247.68 45.578791 
L 248.4 45.578791 
L 248.618791 45.36 
L 249.12 44.858791 
L 249.84 44.858791 
L 250.56 44.858791 
L 251.28 44.858791 
L 251.498791 44.64 
L 252 44.138791 
L 252.72 44.138791 
L 253.44 44.138791 
L 254.16 44.138791 
L 254.88 44.138791 
L 255.6 44.138791 
L 256.32 44.138791 
L 257.04 44.138791 
L 257.76 44.138791 
L 258.48 44.138791 
L 259.2 44.138791 
L 259.701209 44.64 
L 259.92 44.858791 
L 260.64 44.858791 
L 261.36 44.858791 
L 262.08 44.858791 
L 262.581209 45.36 
L 262.8 45.578791 
L 263.301209 46.08 
L 263.52 46.298791 
L 264.24 46.298791 
L 264.741209 46.8 
L 264.96 47.018791 
L 265.68 47.018791 
L 266.181209 47.52 
L 266.4 47.738791 
L 266.901209 48.24 
L 267.12 48.458791 
L 267.84 48.458791 
L 268.341209 48.96 
L 268.341209 49.68 
L 268.56 49.898791 
L 269.061209 50.4 
L 269.28 50.618791 
L 270 50.618791 
L 270.501209 51.12 
L 270.501209 51.84 
L 270.72 52.058791 
L 271.221209 52.56 
L 271.44 52.778791 
L 271.941209 53.28 
L 272.16 53.498791 
L 272.661209 54 
L 272.661209 54.72 
L 272.88 54.938791 
L 273.381209 55.44 
L 273.6 55.658791 
L 274.101209 56.16 
L 274.101209 56.88 
L 274.101209 57.6 
L 274.101209 58.32 
L 274.32 58.538791 
L 274.821209 59.04 
L 275.04 59.258791 
L 275.541209 59.76 
L 275.541209 60.48 
L 275.541209 61.2 
L 275.541209 61.92 
L 275.541209 62.64 
L 275.541209 63.36 
L 275.541209 64.08 
L 275.541209 64.8 
L 275.541209 65.52 
L 275.541209 66.24 
L 275.541209 66.96 
L 275.04 67.461209 
L 274.821209 67.68 
L 274.821209 68.4 
L 274.821209 69.12 
L 274.32 69.621209 
L 274.101209 69.84 
L 274.101209 70.56 
L 274.101209 71.28 
L 273.6 71.781209 
L 273.381209 72 
L 273.381209 72.72 
L 272.88 73.221209 
L 272.661209 73.44 
L 272.661209 74.16 
L 272.16 74.661209 
L 271.941209 74.88 
L 271.44 75.381209 
L 271.221209 75.6 
L 271.221209 76.32 
L 270.72 76.821209 
L 270 76.821209 
L 269.781209 77.04 
L 269.28 77.541209 
L 268.56 77.541209 
L 267.84 77.541209 
L 267.12 77.541209 
L 266.4 77.541209 
L 265.68 77.541209 
L 264.96 77.541209 
L 264.741209 77.76 
L 264.24 78.261209 
z
" clip-path="url(#p54ebac5334)" style="fill: none; stroke: #c8d8e8; stroke-width: 0.5"/>
    <path d="M 0 221.725314 
L 7.954686 221.76 
L 8.64 222.102657 
L 9.36 222.102657 
L 10.08 222.445314 
L 14.434686 222.48 
L 15.12 223.165314 
L 18.034686 223.2 
L 19.44 223.885314 
L 21.634686 223.92 
L 22.32 224.262657 
L 23.04 224.262657 
L 23.76 224.605314 
L 25.954686 224.64 
L 26.64 225.325314 
L 28.834686 225.36 
L 30.24 226.045314 
L 31.714686 226.08 
L 32.4 226.765314 
L 33.874686 226.8 
L 35.28 227.485314 
L 36.034686 227.52 
L 37.44 228.205314 
L 38.194686 228.24 
L 39.6 228.925314 
L 40.354686 228.96 
L 43.2 230.365314 
L 43.954686 230.4 
L 44.64 231.085314 
L 46.114686 231.12 
L 46.8 231.805314 
L 47.554686 231.84 
L 48.24 232.525314 
L 49.714686 232.56 
L 50.4 233.245314 
L 51.154686 233.28 
L 51.84 233.965314 
L 53.314686 234 
L 54 234.685314 
L 55.474686 234.72 
L 56.16 235.405314 
L 56.914686 235.44 
L 57.6 236.125314 
L 59.074686 236.16 
L 59.76 236.845314 
L 60.514686 236.88 
L 61.92 237.565314 
L 62.674686 237.6 
L 63.36 238.285314 
L 64.834686 238.32 
L 65.52 239.005314 
L 66.274686 239.04 
L 66.96 239.725314 
L 68.434686 239.76 
L 69.12 240.445314 
L 69.874686 240.48 
L 70.56 241.165314 
L 71.314686 241.2 
L 72.72 242.605314 
L 73.474686 242.64 
L 74.16 243.325314 
L 74.914686 243.36 
L 77.04 245.485314 
L 77.794686 245.52 
L 79.92 247.645314 
L 80.674686 247.68 
L 83.548688 250.554002 
M 98.822195 266.547508 
L 108 275.725314 
L 108.754686 275.76 
L 112.32 279.325314 
L 113.074686 279.36 
L 114.48 280.765314 
L 115.234686 280.8 
L 116.64 282.205314 
L 117.394686 282.24 
L 118.8 283.645314 
L 119.554686 283.68 
L 120.96 285.085314 
L 121.714686 285.12 
L 122.4 285.805314 
L 123.154686 285.84 
L 123.84 286.525314 
L 124.594686 286.56 
L 125.28 287.245314 
L 126.034686 287.28 
L 127.44 288.685314 
L 128.194686 288.72 
L 128.88 289.405314 
L 129.634686 289.44 
L 130.32 290.125314 
L 131.074686 290.16 
L 131.76 290.845314 
L 132.514686 290.88 
L 133.92 292.285314 
L 134.674686 292.32 
L 135.36 293.005314 
L 136.114686 293.04 
L 136.8 293.725314 
L 137.554686 293.76 
L 138.96 295.165314 
L 139.714686 295.2 
L 140.4 295.885314 
L 141.154686 295.92 
L 141.84 296.605314 
L 142.594686 296.64 
L 143.28 297.325314 
L 144.034686 297.36 
L 145.44 298.765314 
L 146.194686 298.8 
L 146.88 299.485314 
L 147.634686 299.52 
L 148.32 300.205314 
L 149.074686 300.24 
L 149.76 300.925314 
L 150.514686 300.96 
L 151.2 301.645314 
L 152.674686 301.68 
L 153.36 302.365314 
L 154.114686 302.4 
L 154.8 303.085314 
L 156.274686 303.12 
L 156.96 303.805314 
L 157.714686 303.84 
L 158.4 304.525314 
L 159.874686 304.56 
L 160.56 305.245314 
L 162.034686 305.28 
L 162.72 305.965314 
L 164.914686 306 
L 165.6 306.685314 
L 167.794686 306.72 
L 168.48 307.405314 
L 173.554686 307.44 
L 174.24 308.125314 
L 175.68 308.125314 
L 176.4 307.405314 
L 183.6 307.405314 
L 184.32 306.685314 
L 187.92 306.685314 
L 188.64 306.342657 
L 189.36 306.342657 
L 190.08 305.965314 
L 196.56 305.965314 
L 197.28 305.245314 
L 200.914686 305.28 
L 201.6 305.965314 
L 221.794686 306 
L 222.48 306.685314 
L 228.96 306.685314 
L 229.68 305.965314 
L 234 305.965314 
L 234.72 305.245314 
L 237.6 305.245314 
L 238.32 304.525314 
L 240.48 304.525314 
L 241.2 303.805314 
L 243.36 303.805314 
L 244.08 303.085314 
L 246.24 303.085314 
L 246.96 302.365314 
L 249.12 302.365314 
L 249.84 301.645314 
L 252 301.645314 
L 252.72 300.925314 
L 254.16 300.925314 
L 254.88 300.205314 
L 256.32 300.205314 
L 257.04 299.485314 
L 259.2 299.485314 
L 259.92 298.765314 
L 261.36 298.765314 
L 262.08 298.045314 
L 263.52 298.045314 
L 264.24 297.325314 
L 265.68 297.325314 
L 266.4 296.605314 
L 267.84 296.605314 
L 268.56 295.885314 
L 270 295.885314 
L 270.72 295.165314 
L 272.88 295.165314 
L 273.6 294.445314 
L 275.04 294.445314 
L 275.76 293.725314 
L 277.92 293.725314 
L 278.64 293.005314 
L 280.08 293.005314 
L 280.8 292.302657 
L 282.96 292.285314 
L 284.4 291.565314 
L 285.84 291.565314 
L 287.28 290.862657 
L 290.16 290.845314 
L 290.88 290.142657 
L 293.76 290.125314 
L 295.2 289.405314 
L 297.36 289.405314 
L 298.8 288.702657 
L 300.96 288.685314 
L 302.4 287.982657 
L 304.56 287.965314 
L 306 287.262657 
L 308.16 287.245314 
L 308.88 286.542657 
L 311.04 286.525314 
L 311.76 285.822657 
L 313.92 285.805314 
L 315.36 285.085314 
L 316.8 285.085314 
L 318.24 284.365314 
L 320.4 284.365314 
L 321.12 283.662657 
L 324 283.645314 
L 324.72 282.942657 
L 326.88 282.925314 
L 328.32 282.222657 
L 330.48 282.205314 
L 331.92 281.485314 
L 333.36 281.485314 
L 334.8 280.765314 
L 336.24 280.765314 
L 337.68 280.045314 
L 339.12 280.045314 
L 339.84 279.325314 
L 341.28 279.325314 
L 342 278.622657 
L 343.44 278.605314 
L 344.88 277.885314 
L 345.6 277.885314 
L 346.32 277.182657 
L 347.76 277.165314 
L 349.2 276.445314 
L 350.64 276.445314 
L 352.08 275.725314 
L 354.24 275.725314 
L 355.68 275.005314 
L 357.84 275.005314 
L 359.28 274.302657 
L 364.32 274.285314 
L 365.76 273.582657 
L 367.92 273.565314 
M 367.92 162.034686 
L 367.885314 162 
L 366.48 161.314686 
L 362.845314 161.28 
L 362.16 160.594686 
L 361.401543 160.594686 
M 344.845314 148.062338 
L 344.845314 147.6 
L 344.125314 146.88 
L 344.125314 146.16 
L 343.405314 145.44 
L 343.405314 144.72 
L 342.685314 144 
L 342.685314 142.56 
L 341.965314 141.84 
L 341.965314 137.52 
L 341.28 136.765314 
L 341.965314 136.08 
L 342 132.445314 
L 342.685314 131.76 
L 342.72 130.285314 
L 343.405314 129.6 
L 343.44 128.845314 
L 344.125314 128.16 
L 344.16 126.685314 
L 346.285314 124.56 
L 346.32 123.805314 
L 350.64 119.485314 
L 351.36 119.485314 
L 352.8 118.045314 
L 353.52 118.045314 
L 354.96 116.605314 
L 355.68 116.605314 
L 356.4 115.885314 
L 357.84 115.885314 
L 358.56 115.165314 
L 360.72 115.165314 
L 361.44 114.445314 
L 364.32 114.445314 
L 365.04 113.725314 
L 367.92 113.725314 
M 367.92 92.914686 
L 366.445314 92.88 
L 365.76 92.194686 
L 362.16 92.194686 
L 361.44 92.914686 
L 359.28 92.914686 
L 358.56 93.634686 
L 356.4 93.634686 
L 355.68 94.354686 
L 353.52 94.354686 
L 352.8 95.074686 
L 352.08 95.074686 
L 351.36 95.794686 
L 349.92 95.794686 
L 349.2 96.514686 
L 348.48 96.514686 
L 347.76 97.234686 
L 346.32 97.234686 
L 345.6 97.954686 
L 344.88 97.954686 
L 344.16 98.674686 
L 343.44 98.674686 
L 342.72 99.394686 
L 342 99.394686 
L 341.314686 100.08 
L 341.28 100.834686 
L 340.56 100.834686 
L 336.994686 104.4 
L 336.96 105.154686 
L 335.554686 106.56 
L 335.52 107.314686 
L 334.834686 108 
L 334.8 108.754686 
L 334.114686 109.44 
L 334.08 110.194686 
L 333.394686 110.88 
L 333.36 111.634686 
L 331.234686 113.76 
L 331.2 114.514686 
L 327.6 118.114686 
L 326.88 118.114686 
L 325.44 119.554686 
L 324.72 119.554686 
L 324 120.274686 
L 323.28 120.274686 
L 322.56 120.994686 
L 321.84 120.994686 
L 321.12 121.714686 
L 320.4 121.714686 
L 319.68 122.434686 
L 318.96 122.434686 
L 317.52 123.874686 
L 316.93413 123.874686 
M 298.789403 133.954686 
L 296.64 133.954686 
L 295.92 134.674686 
L 289.405314 134.64 
L 288.72 133.954686 
L 285.805314 133.92 
L 285.12 133.234686 
L 283.645314 133.2 
L 282.96 132.514686 
L 282.205314 132.48 
L 281.52 131.794686 
L 280.045314 131.76 
L 279.36 131.074686 
L 278.605314 131.04 
L 277.92 130.354686 
L 277.165314 130.32 
L 276.48 129.634686 
L 275.725314 129.6 
L 275.04 128.914686 
L 274.285314 128.88 
L 273.6 128.194686 
L 272.125314 128.16 
L 271.44 127.474686 
L 270.685314 127.44 
L 270 126.754686 
L 269.245314 126.72 
L 268.56 126.034686 
L 267.805314 126 
L 267.12 125.314686 
L 266.365314 125.28 
L 265.68 124.594686 
L 264.925314 124.56 
L 264.24 123.874686 
L 263.485314 123.84 
L 262.8 123.154686 
L 262.045314 123.12 
L 261.36 122.434686 
L 260.605314 122.4 
L 259.92 121.714686 
L 259.165314 121.68 
L 257.76 120.274686 
L 257.005314 120.24 
L 254.88 118.114686 
L 254.125314 118.08 
L 254.125314 117.36 
L 253.44 116.674686 
L 252.685314 116.64 
L 250.525314 114.48 
L 250.525314 113.76 
L 248.365314 111.6 
L 248.365314 110.88 
L 246.925314 109.44 
L 246.925314 108.72 
L 246.205314 108 
L 246.205314 107.28 
L 245.485314 106.56 
L 245.485314 105.84 
L 244.045314 104.4 
L 244.045314 102.96 
L 242.605314 101.52 
L 242.605314 100.8 
L 241.885314 100.08 
L 241.885314 99.36 
L 239.005314 96.48 
L 239.005314 95.76 
L 238.32 95.074686 
L 237.565314 95.04 
L 234.72 92.194686 
L 233.965314 92.16 
L 232.56 90.754686 
L 231.805314 90.72 
L 231.805314 90 
L 231.12 89.314686 
L 230.365314 89.28 
L 223.885314 82.8 
L 223.885314 82.08 
L 222.445314 80.64 
L 222.445314 79.92 
L 221.725314 79.2 
L 221.725314 78.48 
L 221.005314 77.76 
L 221.005314 77.04 
L 220.285314 76.32 
L 220.285314 75.6 
L 219.565314 74.88 
L 219.565314 73.44 
L 218.845314 72.72 
L 218.845314 71.28 
L 218.125314 70.56 
L 218.125314 68.4 
L 217.405314 67.68 
L 217.405314 65.52 
L 216.685314 64.8 
L 216.685314 61.2 
L 215.965314 60.48 
L 215.965314 58.32 
L 215.245314 57.6 
L 215.28 38.845314 
L 215.965314 38.16 
L 216 37.405314 
L 216.685314 36.72 
L 216.72 34.525314 
L 217.405314 33.84 
L 217.44 31.645314 
L 218.125314 30.96 
L 218.16 30.205314 
L 218.845314 29.52 
L 218.845314 19.44 
L 218.125314 18.72 
L 218.125314 18 
L 216.685314 16.56 
L 216.685314 15.84 
L 215.245314 14.4 
L 215.245314 13.68 
L 213.085314 11.52 
L 213.085314 10.8 
L 212.365314 10.08 
L 212.365314 9.36 
L 211.645314 8.64 
L 211.645314 7.92 
L 210.925314 7.2 
L 210.925314 5.76 
L 210.205314 5.04 
L 210.205314 1.44 
L 209.485314 0.72 
M 183.634686 0.72 
L 183.6 3.634686 
L 182.914686 4.32 
L 182.88 5.794686 
L 180.754686 7.92 
L 180.72 8.674686 
L 180 8.674686 
L 178.594686 10.08 
L 178.56 11.554686 
L 177.84 11.554686 
L 177.154686 12.24 
L 177.12 12.994686 
L 164.914686 25.2 
L 164.88 25.954686 
L 163.474686 27.36 
L 163.44 28.114686 
L 162.034686 29.52 
L 162 30.274686 
L 161.314686 30.96 
L 161.28 31.714686 
L 160.594686 32.4 
L 160.56 33.154686 
L 159.154686 34.56 
L 159.12 35.314686 
L 158.434686 36 
L 158.4 36.754686 
L 157.714686 37.44 
L 157.68 38.194686 
L 156.274686 39.6 
L 156.24 40.354686 
L 154.834686 41.76 
L 154.8 42.514686 
L 153.36 43.954686 
L 152.64 43.954686 
L 150.48 46.114686 
L 149.76 46.114686 
L 148.32 47.554686 
L 147.6 47.554686 
L 146.88 48.274686 
L 146.16 48.274686 
L 144.72 49.714686 
L 144 49.714686 
L 143.28 50.434686 
L 142.56 50.434686 
L 141.84 51.154686 
L 141.12 51.154686 
L 140.4 51.874686 
L 139.68 51.874686 
L 138.96 52.594686 
L 138.24 52.594686 
L 137.52 53.314686 
L 136.8 53.314686 
L 136.08 54.034686 
L 134.64 54.034686 
L 133.92 54.754686 
L 126.685314 54.72 
L 126 54.034686 
L 123.085314 54 
L 122.4 53.314686 
L 120.205314 53.28 
L 119.52 52.594686 
L 117.325314 52.56 
L 116.64 51.874686 
L 113.725314 51.84 
L 113.04 51.154686 
L 110.125314 51.12 
L 109.44 50.434686 
L 107.245314 50.4 
L 106.56 49.714686 
L 105.085314 49.68 
L 104.4 48.994686 
L 101.485314 48.96 
L 100.8 48.274686 
L 98.605314 48.24 
L 97.92 47.554686 
L 95.725314 47.52 
L 95.04 46.834686 
L 92.125314 46.8 
L 91.44 46.114686 
L 89.245314 46.08 
L 88.56 45.394686 
L 86.365314 45.36 
L 85.68 44.674686 
L 82.765314 44.64 
L 82.08 43.954686 
L 74.88 43.954686 
L 74.16 44.674686 
L 71.28 44.674686 
L 70.56 45.394686 
L 69.84 45.394686 
L 69.12 46.114686 
L 68.4 46.114686 
L 65.554686 48.96 
L 65.52 49.714686 
L 64.114686 51.12 
L 64.08 51.874686 
L 63.394686 52.56 
L 63.36 54.754686 
L 62.674686 55.44 
L 62.64 56.914686 
L 61.954686 57.6 
L 61.92 59.794686 
L 61.234686 60.48 
L 61.2 66.994686 
L 59.074686 69.12 
L 59.04 70.594686 
L 56.16 73.474686 
L 55.44 73.474686 
L 54.72 74.194686 
L 54 74.194686 
L 53.28 74.914686 
L 52.56 74.914686 
L 51.12 76.354686 
L 49.68 76.354686 
L 48.96 77.074686 
L 46.8 77.074686 
L 46.08 77.794686 
L 43.92 77.794686 
L 43.2 78.514686 
L 41.76 78.514686 
L 41.04 79.234686 
L 38.16 79.234686 
L 37.44 79.954686 
L 35.28 79.954686 
L 34.56 80.674686 
L 29.52 80.674686 
L 28.8 81.394686 
L 18.781766 81.394686 
M 367.92 0.754686 
L 366.48 0.754686 
L 365.76 1.474686 
L 365.04 1.474686 
L 364.354686 2.16 
L 364.32 2.914686 
L 362.88 2.914686 
L 362.16 3.634686 
L 360.72 3.634686 
L 358.56 5.794686 
L 357.84 5.794686 
L 357.12 6.514686 
L 355.68 6.514686 
L 353.52 8.674686 
L 352.8 8.674686 
L 350.64 10.834686 
L 349.92 10.834686 
L 349.234686 11.52 
L 349.2 12.274686 
L 348.48 12.994686 
L 347.76 12.994686 
L 347.074686 13.68 
L 347.04 14.434686 
L 344.914686 16.56 
L 344.88 17.314686 
L 342.754686 19.44 
L 342.72 20.194686 
L 341.314686 21.6 
L 341.28 22.354686 
L 339.302195 24.332492 
M 325.046922 40.747764 
L 324.754686 41.04 
L 324.72 41.794686 
L 324.034686 42.48 
L 324 43.234686 
L 323.314686 43.92 
L 323.28 44.674686 
L 322.594686 45.36 
L 322.56 46.114686 
L 321.874686 46.8 
L 321.84 48.994686 
L 321.154686 49.68 
L 321.12 50.434686 
L 320.434686 51.12 
L 320.4 52.594686 
L 319.714686 53.28 
L 319.68 54.754686 
L 318.994686 55.44 
L 318.96 56.914686 
L 318.274686 57.6 
L 318.24 59.074686 
L 317.554686 59.76 
L 317.52 60.514686 
L 316.114686 61.92 
L 316.08 62.674686 
L 314.674686 64.08 
L 314.64 64.834686 
L 308.914686 70.56 
L 308.88 71.314686 
L 306.754686 73.44 
L 306.72 74.914686 
L 305.314686 76.32 
L 305.314686 80.64 
L 306.034686 81.36 
L 306.034686 82.08 
L 306.754686 82.8 
L 306.754686 84.24 
L 307.474686 84.96 
L 307.474686 85.68 
L 308.16 86.365314 
L 308.914686 86.4 
L 308.914686 87.12 
L 311.76 89.965314 
L 312.514686 90 
L 313.2 90.685314 
L 313.954686 90.72 
L 314.64 91.405314 
L 315.394686 91.44 
L 316.08 92.125314 
L 318.994686 92.16 
L 319.68 92.845314 
L 325.44 92.845314 
L 326.16 92.125314 
L 326.88 92.125314 
L 327.6 91.405314 
L 328.32 91.405314 
L 333.36 86.365314 
L 334.08 86.365314 
L 335.485314 84.96 
L 335.52 84.205314 
L 336.24 84.205314 
L 336.925314 83.52 
L 336.96 82.765314 
L 337.68 82.045314 
L 338.4 82.045314 
L 339.12 81.325314 
L 339.84 81.325314 
L 340.56 80.605314 
L 341.28 80.605314 
L 342 79.885314 
L 343.44 79.885314 
L 344.88 78.445314 
L 347.76 78.445314 
L 349.2 77.005314 
L 351.36 77.005314 
L 352.08 76.285314 
L 353.52 76.285314 
L 354.24 75.565314 
L 358.56 75.565314 
L 359.28 74.845314 
L 367.92 74.845314 
L 367.92 74.845314 
" clip-path="url(#p54ebac5334)" style="fill: none; stroke: #c8d8e8; stroke-width: 0.5"/>
    <path d="M 0 202.751836 
L 5.04 202.751836 
L 5.76 203.471836 
L 10.08 203.471836 
L 10.8 204.191836 
L 13.68 204.191836 
L 14.4 204.911836 
L 17.28 204.911836 
L 18 205.631836 
L 20.16 205.631836 
L 20.88 206.351836 
L 22.32 206.351836 
L 23.04 207.071836 
L 25.2 207.071836 
L 25.92 207.791836 
L 27.36 207.791836 
L 28.08 208.511836 
L 30.96 208.511836 
L 31.68 209.231836 
L 33.84 209.231836 
L 34.56 209.951836 
L 36 209.951836 
L 36.72 210.671836 
L 39.6 210.671836 
L 40.32 211.391836 
L 42.48 211.391836 
L 43.2 212.111836 
L 45.36 212.111836 
L 46.08 212.831836 
L 47.52 212.831836 
L 48.24 213.551836 
L 49.68 213.551836 
L 50.4 214.271836 
L 51.84 214.271836 
L 52.56 214.991836 
L 53.28 214.991836 
L 54 215.711836 
L 55.44 215.711836 
L 56.16 216.431836 
L 56.88 216.431836 
L 57.6 217.151836 
L 58.32 217.151836 
L 59.04 217.871836 
L 60.48 217.871836 
L 61.2 218.591836 
L 61.92 218.591836 
L 62.64 219.311836 
L 64.08 219.311836 
L 64.8 220.031836 
L 65.52 220.031836 
L 66.24 220.751836 
L 67.68 220.751836 
L 68.4 221.471836 
L 69.84 221.471836 
L 70.56 222.191836 
L 71.28 222.191836 
L 72 222.911836 
L 73.44 222.911836 
L 74.16 223.631836 
L 74.88 223.631836 
L 75.6 224.351836 
L 77.04 224.351836 
L 77.76 225.071836 
L 78.48 225.071836 
L 79.2 225.791836 
L 80.64 225.791836 
L 81.36 226.511836 
L 82.08 226.511836 
L 82.8 227.231836 
L 83.52 227.231836 
L 84.24 227.951836 
L 84.96 227.951836 
L 86.4 229.391836 
L 87.12 229.391836 
L 89.28 231.551836 
L 90 231.551836 
L 103.248164 244.8 
L 103.248164 245.52 
L 106.848164 249.12 
L 106.848164 249.84 
L 112.608164 255.6 
L 112.608164 256.32 
L 115.92 259.631836 
L 116.64 259.631836 
L 120.24 263.231836 
L 120.96 263.231836 
L 123.12 265.391836 
L 123.84 265.391836 
L 125.28 266.831836 
L 126 266.831836 
L 127.44 268.271836 
L 128.16 268.271836 
L 128.88 268.991836 
L 129.6 268.991836 
L 130.32 269.711836 
L 131.76 269.711836 
L 132.48 270.431836 
L 133.92 270.431836 
L 134.64 271.151836 
L 136.08 271.151836 
L 136.8 271.871836 
L 138.96 271.871836 
L 139.68 272.591836 
L 142.56 272.591836 
L 143.28 273.311836 
L 148.32 273.311836 
L 149.04 274.031836 
L 155.52 274.031836 
L 156.24 274.751836 
L 159.12 274.751836 
L 159.84 275.471836 
L 162.72 275.471836 
L 163.44 276.191836 
L 165.6 276.191836 
L 166.32 276.911836 
L 171.36 276.911836 
L 172.08 277.631836 
L 179.28 277.631836 
L 180 276.911836 
L 182.88 276.911836 
L 183.6 276.191836 
L 187.2 276.191836 
L 187.92 275.471836 
L 189.36 275.471836 
L 190.08 276.191836 
L 193.68 276.191836 
L 194.4 276.911836 
L 196.56 276.911836 
L 197.28 277.631836 
L 198.72 277.631836 
L 199.44 278.351836 
L 200.16 278.351836 
L 200.88 279.071836 
L 201.6 279.071836 
L 202.32 279.791836 
L 203.76 279.791836 
L 204.48 280.511836 
L 205.2 280.511836 
L 205.92 281.231836 
L 206.64 281.231836 
L 207.36 281.951836 
L 208.8 281.951836 
L 209.52 282.671836 
L 210.96 282.671836 
L 211.68 283.391836 
L 214.56 283.391836 
L 215.28 284.111836 
L 231.12 284.111836 
L 231.84 283.391836 
L 241.92 283.391836 
L 242.64 282.671836 
L 249.84 282.671836 
L 250.56 281.951836 
L 254.88 281.951836 
L 255.6 281.231836 
L 257.76 281.231836 
L 258.48 280.511836 
L 261.36 280.511836 
L 262.08 279.791836 
L 264.24 279.791836 
L 264.96 279.071836 
L 267.84 279.071836 
L 268.56 278.351836 
L 270.72 278.351836 
L 271.44 278.135918 
L 272.16 278.135918 
L 272.591836 277.92 
L 272.88 277.631836 
L 276.48 277.631836 
L 277.631836 277.2 
L 277.92 277.055918 
L 278.64 276.911836 
L 282.24 276.911836 
L 282.96 276.335918 
L 283.68 276.191836 
L 288.72 276.191836 
L 289.871836 275.76 
L 290.16 275.615918 
L 290.88 275.471836 
L 293.76 275.471836 
L 294.911836 275.04 
L 295.2 274.895918 
L 295.92 274.751836 
L 298.08 274.751836 
L 298.8 274.175918 
L 299.52 274.031836 
L 300.96 274.031836 
L 302.111836 273.6 
L 302.4 273.311836 
L 303.84 273.311836 
L 304.991836 272.88 
L 305.28 272.591836 
L 307.44 272.591836 
L 308.16 271.871836 
L 309.6 271.871836 
L 310.32 271.295918 
L 311.04 271.151836 
L 312.48 271.151836 
L 313.2 270.575918 
L 313.92 270.431836 
L 315.36 270.431836 
L 316.08 269.711836 
L 318.24 269.711836 
L 318.96 268.991836 
L 320.4 268.991836 
L 321.551836 268.56 
L 321.84 268.271836 
L 323.28 268.271836 
L 324 267.551836 
L 325.44 267.551836 
L 326.16 266.831836 
L 328.32 266.831836 
L 329.04 266.111836 
L 330.48 266.111836 
L 331.2 265.391836 
L 333.36 265.391836 
L 334.08 264.671836 
L 335.52 264.671836 
L 336.24 263.951836 
L 337.68 263.951836 
L 338.4 263.231836 
L 340.56 263.231836 
L 341.28 262.511836 
L 343.44 262.511836 
L 344.16 261.791836 
L 346.32 261.791836 
L 347.04 261.071836 
L 349.92 261.071836 
L 350.64 260.351836 
L 354.24 260.351836 
L 354.96 259.631836 
L 360.72 259.631836 
L 361.44 258.911836 
L 367.92 258.911836 
M 367.92 175.464082 
L 367.2 175.464082 
L 366.48 175.248164 
L 362.88 175.248164 
L 361.871836 174.96 
L 361.44 174.744082 
L 360.72 174.528164 
L 359.28 174.528164 
L 358.271836 174.24 
L 357.84 174.024082 
L 357.12 173.808164 
L 356.4 173.808164 
L 355.391836 173.52 
L 354.96 173.304082 
L 354.24 173.088164 
L 353.52 173.088164 
L 352.8 172.368164 
L 351.36 172.368164 
L 350.64 171.648164 
L 349.92 171.648164 
L 349.2 170.928164 
L 348.48 170.928164 
L 347.76 170.208164 
L 347.04 170.208164 
L 346.32 169.488164 
L 345.6 169.488164 
L 344.88 168.768164 
L 343.871836 168.48 
L 342.72 167.328164 
L 342 167.328164 
L 340.56 165.888164 
L 339.84 165.888164 
L 336.96 163.008164 
L 336.24 163.008164 
L 334.08 160.848164 
L 333.36 160.848164 
L 331.2 158.688164 
L 330.48 158.688164 
L 328.32 156.528164 
L 327.6 156.528164 
L 326.16 155.088164 
L 325.44 155.088164 
L 324.72 154.368164 
L 324 154.368164 
L 322.56 152.928164 
L 321.84 152.928164 
L 321.12 152.208164 
L 319.68 152.208164 
L 318.96 151.488164 
L 317.52 151.488164 
L 316.8 150.768164 
L 314.64 150.768164 
L 313.92 150.048164 
L 303.84 150.048164 
L 303.12 150.768164 
L 280.8 150.768164 
L 280.08 150.048164 
L 275.76 150.048164 
L 275.04 149.328164 
L 272.16 149.328164 
L 271.44 148.608164 
L 269.28 148.608164 
L 268.56 147.888164 
L 267.12 147.888164 
L 266.4 147.168164 
L 265.68 147.168164 
L 264.96 146.448164 
L 263.52 146.448164 
L 262.8 145.728164 
L 261.36 145.728164 
L 259.92 144.288164 
L 258.48 144.288164 
L 257.04 142.848164 
L 256.32 142.848164 
L 255.6 142.128164 
L 254.88 142.128164 
L 253.44 140.688164 
L 252.72 140.688164 
L 249.84 137.808164 
L 249.12 137.808164 
L 244.8 133.488164 
L 244.08 133.488164 
L 240.48 129.888164 
L 239.76 129.888164 
L 236.88 127.008164 
L 236.16 127.008164 
L 233.28 124.128164 
L 232.56 124.128164 
L 229.68 121.248164 
L 228.96 121.248164 
L 226.08 118.368164 
L 225.36 118.368164 
L 223.2 116.208164 
L 222.48 116.208164 
L 221.76 115.488164 
L 221.04 115.488164 
L 219.6 114.048164 
L 212.4 114.048164 
L 211.68 114.768164 
L 210.96 114.768164 
L 210.24 115.488164 
L 208.8 115.488164 
L 207.36 116.928164 
L 206.64 116.928164 
L 205.92 117.648164 
L 205.2 117.648164 
L 204.48 118.368164 
L 203.76 118.368164 
L 203.04 119.088164 
L 202.32 119.088164 
L 200.88 120.528164 
L 200.16 120.528164 
L 199.44 121.248164 
L 198.72 121.248164 
L 198 121.968164 
L 197.28 121.968164 
L 196.56 122.688164 
L 195.84 122.688164 
L 194.4 124.128164 
L 193.68 124.128164 
L 192.24 125.568164 
L 191.52 125.568164 
L 189.36 127.728164 
L 188.64 127.728164 
L 185.76 130.608164 
L 185.04 130.608164 
L 183.6 132.048164 
L 182.88 132.048164 
L 182.16 132.768164 
L 181.44 132.768164 
L 180.72 133.488164 
L 180 133.488164 
L 179.28 134.208164 
L 177.84 134.208164 
L 177.12 134.928164 
L 173.52 134.928164 
L 172.8 135.648164 
L 169.92 135.648164 
L 169.2 134.928164 
L 164.88 134.928164 
L 164.16 134.208164 
L 162 134.208164 
L 161.28 133.488164 
L 159.84 133.488164 
L 159.12 132.768164 
L 157.68 132.768164 
L 156.96 132.048164 
L 149.04 132.048164 
L 148.32 132.768164 
L 146.16 132.768164 
L 145.44 133.488164 
L 144 133.488164 
L 141.12 136.368164 
L 140.4 136.368164 
L 139.968164 136.8 
L 139.968164 138.24 
L 139.248164 138.96 
L 139.248164 143.28 
L 139.968164 144 
L 139.968164 145.44 
L 140.4 145.871836 
L 141.12 145.871836 
L 142.848164 147.6 
L 142.848164 148.32 
L 143.28 148.751836 
L 144 148.751836 
L 149.328164 154.08 
L 149.328164 161.28 
L 147.888164 162.72 
L 147.888164 163.44 
L 145.44 165.888164 
L 144.72 165.888164 
L 142.56 168.048164 
L 141.84 168.048164 
L 140.4 169.488164 
L 139.68 169.488164 
L 138.96 170.208164 
L 138.24 170.208164 
L 137.52 170.928164 
L 136.8 170.928164 
L 136.08 171.648164 
L 135.36 171.648164 
L 134.64 172.368164 
L 133.92 172.368164 
L 133.2 173.088164 
L 131.76 173.088164 
L 131.04 173.808164 
L 129.6 173.808164 
L 128.88 174.528164 
L 126.72 174.528164 
L 126 175.248164 
L 123.12 175.248164 
L 122.4 175.968164 
L 112.32 175.968164 
L 111.6 175.248164 
L 110.16 175.248164 
L 109.44 174.528164 
L 108 174.528164 
L 107.28 173.808164 
L 106.56 173.808164 
L 105.84 173.088164 
L 104.4 173.088164 
L 103.68 172.368164 
L 102.96 172.368164 
L 102.24 171.648164 
L 101.52 171.648164 
L 100.8 170.928164 
L 100.08 170.928164 
L 99.36 170.208164 
L 98.64 170.208164 
L 97.2 168.768164 
L 96.48 168.768164 
L 93.6 165.888164 
L 92.88 165.888164 
L 90.72 163.728164 
L 90 163.728164 
L 87.12 160.848164 
L 86.4 160.848164 
L 84.24 158.688164 
L 83.52 158.688164 
L 81.36 156.528164 
L 80.64 156.528164 
L 79.2 155.088164 
L 78.48 155.088164 
L 77.04 153.648164 
L 76.32 153.648164 
L 74.16 151.488164 
L 73.44 151.488164 
L 72 150.048164 
L 71.28 150.048164 
L 68.4 147.168164 
L 67.68 147.168164 
L 67.391836 146.88 
L 67.391836 146.16 
L 66.24 145.008164 
L 65.52 145.008164 
L 61.631836 141.12 
L 61.631836 140.4 
L 56.591836 135.36 
L 56.591836 134.64 
L 56.16 134.208164 
L 55.44 134.208164 
L 54 132.768164 
L 53.28 132.768164 
L 51.84 131.328164 
L 51.12 131.328164 
L 50.4 130.608164 
L 49.68 130.608164 
L 48.96 129.888164 
L 48.24 129.888164 
L 47.52 129.168164 
L 46.8 129.168164 
L 46.08 128.448164 
L 44.64 128.448164 
L 43.92 127.728164 
L 42.48 127.728164 
L 41.76 127.008164 
L 40.32 127.008164 
L 39.6 126.288164 
L 38.88 126.288164 
L 38.16 125.568164 
L 36.72 125.568164 
L 36 124.848164 
L 35.28 124.848164 
L 34.56 124.128164 
L 33.12 124.128164 
L 32.4 123.408164 
L 31.68 123.408164 
L 30.96 122.688164 
L 29.52 122.688164 
L 28.8 121.968164 
L 28.08 121.968164 
L 27.36 121.248164 
L 26.64 121.248164 
L 25.92 120.528164 
L 25.2 120.528164 
L 23.76 119.088164 
L 23.04 119.088164 
L 22.32 118.368164 
L 21.6 118.368164 
L 20.88 117.648164 
L 20.16 117.648164 
L 19.44 116.928164 
L 18.72 116.928164 
L 18 116.208164 
L 17.28 116.208164 
L 16.56 115.488164 
L 15.12 115.488164 
L 14.4 114.768164 
L 13.68 114.768164 
L 12.96 114.048164 
L 11.52 114.048164 
L 10.8 113.328164 
L 9.36 113.328164 
L 8.64 112.608164 
L 7.2 112.608164 
L 6.48 111.888164 
L 2.88 111.888164 
L 2.16 111.168164 
L 0 111.168164 
L 0 111.168164 
" clip-path="url(#p54ebac5334)" style="fill: none; stroke: #c8d8e8; stroke-width: 0.5"/>
    <path d="M 367.92 192.781642 
L 362.16 192.781642 
L 361.44 192.061642 
L 358.56 192.061642 
L 357.84 191.341642 
L 354.96 191.341642 
L 354.24 190.621642 
L 352.08 190.621642 
L 351.36 189.901642 
L 349.92 189.901642 
L 349.2 189.181642 
L 347.76 189.181642 
L 347.04 188.461642 
L 346.32 188.461642 
L 345.6 187.741642 
L 344.16 187.741642 
L 343.44 187.021642 
L 342.72 187.021642 
L 342 186.301642 
L 341.28 186.301642 
L 340.56 185.581642 
L 339.84 185.581642 
L 338.4 184.141642 
L 337.68 184.141642 
L 336.96 183.421642 
L 336.24 183.421642 
L 334.8 181.981642 
L 334.08 181.981642 
L 332.64 180.541642 
L 331.92 180.541642 
L 330.48 179.101642 
L 329.76 179.101642 
L 328.32 177.661642 
L 327.6 177.661642 
L 326.16 176.221642 
L 325.44 176.221642 
L 324.72 175.501642 
L 324 175.501642 
L 323.28 174.781642 
L 322.56 174.781642 
L 321.84 174.061642 
L 321.12 174.061642 
L 319.68 172.621642 
L 318.24 172.621642 
L 317.52 171.901642 
L 316.8 171.901642 
L 316.08 171.181642 
L 313.92 171.181642 
L 313.2 170.461642 
L 312.48 170.461642 
L 311.76 169.741642 
L 307.44 169.741642 
L 306.72 169.021642 
L 295.92 169.021642 
L 295.2 168.301642 
L 277.2 168.301642 
L 276.48 167.581642 
L 272.16 167.581642 
L 271.44 166.861642 
L 268.56 166.861642 
L 267.84 166.141642 
L 264.96 166.141642 
L 264.24 165.421642 
L 262.08 165.421642 
L 261.36 164.701642 
L 259.2 164.701642 
L 258.48 163.981642 
L 257.04 163.981642 
L 256.32 163.261642 
L 254.88 163.261642 
L 254.16 162.541642 
L 252.72 162.541642 
L 252 161.821642 
L 250.56 161.821642 
L 249.84 161.101642 
L 249.12 161.101642 
L 248.4 160.381642 
L 246.96 160.381642 
L 246.24 159.661642 
L 245.52 159.661642 
L 244.8 158.941642 
L 244.08 158.941642 
L 243.36 158.221642 
L 242.64 158.221642 
L 241.92 157.501642 
L 240.48 157.501642 
L 239.76 156.781642 
L 239.04 156.781642 
L 238.32 156.061642 
L 236.88 156.061642 
L 236.16 155.341642 
L 228.24 155.341642 
L 227.52 156.061642 
L 225.36 156.061642 
L 224.64 156.781642 
L 222.48 156.781642 
L 221.76 157.501642 
L 221.04 157.501642 
L 220.32 158.221642 
L 217.44 158.221642 
L 216.72 158.941642 
L 215.28 158.941642 
L 214.56 159.661642 
L 212.4 159.661642 
L 211.68 160.381642 
L 208.08 160.381642 
L 207.36 161.101642 
L 203.04 161.101642 
L 202.32 161.821642 
L 198 161.821642 
L 197.28 162.541642 
L 195.12 162.541642 
L 194.4 163.261642 
L 191.52 163.261642 
L 190.8 163.981642 
L 189.36 163.981642 
L 188.64 164.701642 
L 187.2 164.701642 
L 186.48 165.421642 
L 185.76 165.421642 
L 185.04 166.141642 
L 184.32 166.141642 
L 183.6 166.861642 
L 182.88 166.861642 
L 180.72 169.021642 
L 180 169.021642 
L 176.4 172.621642 
L 175.68 172.621642 
L 169.2 179.101642 
L 168.48 179.101642 
L 166.32 181.261642 
L 165.6 181.261642 
L 161.28 185.581642 
L 160.56 185.581642 
L 156.24 189.901642 
L 155.52 189.901642 
L 150.48 194.941642 
L 149.76 194.941642 
L 148.32 196.381642 
L 147.6 196.381642 
L 146.16 197.821642 
L 145.44 197.821642 
L 144.72 198.541642 
L 143.28 198.541642 
L 142.56 199.261642 
L 141.84 199.261642 
L 141.12 199.981642 
L 140.4 199.981642 
L 139.68 200.701642 
L 138.24 200.701642 
L 137.52 201.421642 
L 136.08 201.421642 
L 135.36 202.141642 
L 133.92 202.141642 
L 133.2 202.861642 
L 131.76 202.861642 
L 131.04 203.581642 
L 129.6 203.581642 
L 128.88 204.301642 
L 128.16 204.301642 
L 127.44 205.021642 
L 126 205.021642 
L 125.28 205.741642 
L 124.56 205.741642 
L 123.84 206.461642 
L 123.12 206.461642 
L 121.68 207.901642 
L 120.96 207.901642 
L 120.24 208.621642 
L 119.52 208.621642 
L 115.021642 213.12 
L 115.021642 214.56 
L 114.301642 215.28 
L 114.301642 217.44 
L 113.581642 218.16 
L 113.581642 218.88 
L 114.301642 219.6 
L 114.301642 222.48 
L 115.021642 223.2 
L 115.021642 224.64 
L 115.741642 225.36 
L 115.741642 226.08 
L 116.461642 226.8 
L 116.461642 227.52 
L 117.901642 228.96 
L 117.901642 229.68 
L 120.061642 231.84 
L 120.061642 232.56 
L 126.541642 239.04 
L 126.541642 239.76 
L 131.76 244.978358 
L 132.48 244.978358 
L 135.36 247.858358 
L 136.08 247.858358 
L 136.8 248.578358 
L 137.52 248.578358 
L 138.24 249.298358 
L 139.68 249.298358 
L 140.4 250.018358 
L 141.12 250.018358 
L 141.84 250.738358 
L 143.28 250.738358 
L 144 251.458358 
L 146.16 251.458358 
L 146.88 252.178358 
L 149.76 252.178358 
L 150.48 252.898358 
L 154.8 252.898358 
L 155.52 253.618358 
L 162.72 253.618358 
L 163.44 252.898358 
L 179.28 252.898358 
L 180 252.178358 
L 189.36 252.178358 
L 190.08 252.898358 
L 193.68 252.898358 
L 194.4 253.618358 
L 198 253.618358 
L 198.72 254.338358 
L 200.88 254.338358 
L 201.6 255.058358 
L 203.04 255.058358 
L 203.76 255.778358 
L 205.92 255.778358 
L 206.64 256.498358 
L 208.08 256.498358 
L 208.8 257.218358 
L 210.24 257.218358 
L 210.96 257.938358 
L 213.12 257.938358 
L 213.84 258.658358 
L 215.28 258.658358 
L 216 259.378358 
L 218.16 259.378358 
L 218.88 260.098358 
L 221.76 260.098358 
L 222.48 260.818358 
L 227.52 260.818358 
L 228.24 261.538358 
L 233.28 261.538358 
L 234 262.258358 
L 239.04 262.258358 
L 239.76 262.978358 
L 244.8 262.978358 
L 245.52 263.698358 
L 250.56 263.698358 
L 251.28 264.418358 
L 258.48 264.418358 
L 259.2 263.698358 
L 267.84 263.698358 
L 268.56 262.978358 
L 273.6 262.978358 
L 274.32 262.258358 
L 278.64 262.258358 
L 279.36 261.538358 
L 282.24 261.538358 
L 282.96 260.818358 
L 286.56 260.818358 
L 287.28 260.098358 
L 288.72 260.098358 
L 289.44 259.378358 
L 291.6 259.378358 
L 292.32 258.658358 
L 294.48 258.658358 
L 295.2 257.938358 
L 296.64 257.938358 
L 297.36 257.218358 
L 298.8 257.218358 
L 299.52 256.498358 
L 300.96 256.498358 
L 301.68 255.778358 
L 303.12 255.778358 
L 303.84 255.058358 
L 305.28 255.058358 
L 306 254.338358 
L 307.44 254.338358 
L 308.16 253.618358 
L 309.6 253.618358 
L 310.32 252.898358 
L 311.76 252.898358 
L 312.48 252.178358 
L 313.92 252.178358 
L 314.64 251.458358 
L 316.08 251.458358 
L 316.8 250.738358 
L 317.52 250.738358 
L 318.24 250.018358 
L 319.68 250.018358 
L 320.4 249.298358 
L 321.12 249.298358 
L 321.84 248.578358 
L 323.28 248.578358 
L 324 247.858358 
L 324.72 247.858358 
L 325.44 247.138358 
L 326.16 247.138358 
L 326.88 246.418358 
L 328.32 246.418358 
L 329.04 245.698358 
L 329.76 245.698358 
L 330.48 244.978358 
L 331.92 244.978358 
L 332.64 244.258358 
L 334.08 244.258358 
L 334.8 243.538358 
L 336.24 243.538358 
L 336.96 242.818358 
L 338.4 242.818358 
L 339.12 242.098358 
L 341.28 242.098358 
L 342 241.378358 
L 343.44 241.378358 
L 344.16 240.658358 
L 347.04 240.658358 
L 347.76 239.938358 
L 351.36 239.938358 
L 352.08 239.218358 
L 355.68 239.218358 
L 356.4 238.498358 
L 367.92 238.498358 
M 0 172.258358 
L 7.92 172.258358 
L 8.64 171.538358 
L 13.68 171.538358 
L 13.858358 171.36 
L 13.858358 170.64 
L 14.4 170.098358 
L 15.12 170.098358 
L 15.84 169.378358 
L 19.44 169.378358 
L 19.618358 169.2 
L 19.618358 164.16 
L 18.178358 162.72 
L 18.178358 162 
L 17.458358 161.28 
L 17.458358 160.56 
L 15.298358 158.4 
L 15.298358 157.68 
L 13.858358 156.24 
L 13.858358 155.52 
L 12.418358 154.08 
L 12.418358 153.36 
L 10.8 151.741642 
L 10.08 151.741642 
L 9.36 151.021642 
L 8.64 151.021642 
L 8.098358 150.48 
L 8.098358 149.76 
L 7.92 149.581642 
L 7.2 149.581642 
L 5.76 148.141642 
L 5.04 148.141642 
L 3.6 146.701642 
L 2.16 146.701642 
L 1.44 145.981642 
L 0 145.981642 
L 0 145.981642 
" clip-path="url(#p54ebac5334)" style="fill: none; stroke: #c8d8e8; stroke-width: 0.5"/>
    <path d="M 235.44 238.96488 
L 236.16 238.96488 
L 236.88 238.96488 
L 237.6 238.96488 
L 238.32 238.96488 
L 239.04 238.96488 
L 239.76 238.96488 
L 240.48 238.96488 
L 241.2 238.96488 
L 241.92 238.96488 
L 242.64 238.96488 
L 243.36 238.96488 
L 244.08 238.96488 
L 244.8 238.96488 
L 245.52 238.96488 
L 246.24 238.96488 
L 246.96 238.96488 
L 247.68 238.96488 
L 248.4 238.96488 
L 249.12 238.96488 
L 249.84 238.96488 
L 250.56 238.96488 
L 251.28 238.96488 
L 252 238.96488 
L 252.72 238.96488 
L 253.44 238.96488 
L 254.08488 238.32 
L 254.16 238.24488 
L 254.88 238.24488 
L 255.6 238.24488 
L 256.32 238.24488 
L 257.04 238.24488 
L 257.76 238.24488 
L 258.48 238.24488 
L 259.12488 237.6 
L 259.2 237.52488 
L 259.92 237.52488 
L 260.64 237.52488 
L 261.36 237.52488 
L 262.08 237.52488 
L 262.8 237.52488 
L 263.52 237.52488 
L 264.24 237.52488 
L 264.96 237.52488 
L 265.60488 236.88 
L 265.68 236.80488 
L 266.4 236.80488 
L 267.12 236.80488 
L 267.84 236.80488 
L 268.48488 236.16 
L 268.56 236.08488 
L 269.28 236.08488 
L 270 236.08488 
L 270.64488 235.44 
L 270.72 235.36488 
L 271.44 235.36488 
L 272.08488 234.72 
L 272.16 234.64488 
L 272.88 234.64488 
L 273.52488 234 
L 273.6 233.92488 
L 274.32 233.92488 
L 274.96488 233.28 
L 275.04 233.20488 
L 275.76 233.20488 
L 276.40488 232.56 
L 276.48 232.48488 
L 277.2 232.48488 
L 277.84488 231.84 
L 277.92 231.76488 
L 278.56488 231.12 
L 278.64 231.04488 
L 279.36 231.04488 
L 280.00488 230.4 
L 280.08 230.32488 
L 280.8 230.32488 
L 281.44488 229.68 
L 281.52 229.60488 
L 282.16488 228.96 
L 282.24 228.88488 
L 282.88488 228.24 
L 282.96 228.16488 
L 283.68 228.16488 
L 284.32488 227.52 
L 284.4 227.44488 
L 285.04488 226.8 
L 285.12 226.72488 
L 285.76488 226.08 
L 285.84 226.00488 
L 286.48488 225.36 
L 286.56 225.28488 
L 287.20488 224.64 
L 287.28 224.56488 
L 287.92488 223.92 
L 288 223.84488 
L 288.64488 223.2 
L 288.72 223.12488 
L 289.36488 222.48 
L 289.36488 221.76 
L 289.44 221.68488 
L 290.08488 221.04 
L 290.16 220.96488 
L 290.80488 220.32 
L 290.88 220.24488 
L 291.52488 219.6 
L 291.6 219.52488 
L 292.32 219.52488 
L 292.96488 218.88 
L 293.04 218.80488 
L 293.68488 218.16 
L 293.76 218.08488 
L 294.40488 217.44 
L 294.48 217.36488 
L 295.12488 216.72 
L 295.2 216.64488 
L 295.84488 216 
L 295.92 215.92488 
L 296.56488 215.28 
L 296.56488 214.56 
L 296.64 214.48488 
L 297.28488 213.84 
L 297.36 213.76488 
L 298.08 213.76488 
L 298.72488 213.12 
L 298.8 213.04488 
L 299.44488 212.4 
L 299.52 212.32488 
L 300.16488 211.68 
L 300.24 211.60488 
L 300.96 211.60488 
L 301.60488 210.96 
L 301.60488 210.24 
L 301.68 210.16488 
L 302.32488 209.52 
L 302.32488 208.8 
L 302.32488 208.08 
L 302.32488 207.36 
L 302.32488 206.64 
L 302.32488 205.92 
L 302.32488 205.2 
L 301.68 204.55512 
L 301.60488 204.48 
L 300.96 203.83512 
L 300.88488 203.76 
L 300.24 203.11512 
L 299.52 203.11512 
L 298.8 203.11512 
L 298.08 203.11512 
L 298.00488 203.04 
L 297.36 202.39512 
L 297.28488 202.32 
L 296.64 201.67512 
L 296.56488 201.6 
L 296.56488 200.88 
L 296.56488 200.16 
L 295.92 199.51512 
L 295.84488 199.44 
L 295.2 198.79512 
L 294.48 198.79512 
L 293.76 198.79512 
L 293.68488 198.72 
L 293.04 198.07512 
L 292.32 198.07512 
L 291.6 198.07512 
L 290.88 198.07512 
L 290.16 198.07512 
L 289.44 198.07512 
L 288.72 198.07512 
L 288 198.07512 
L 287.28 198.07512 
L 286.56 198.07512 
L 285.84 198.07512 
L 285.12 198.07512 
L 284.4 198.07512 
L 283.75512 198.72 
L 283.68 198.79512 
L 282.96 198.79512 
L 282.24 198.79512 
L 281.52 198.79512 
L 280.8 198.79512 
L 280.08 198.79512 
L 279.36 198.79512 
L 278.64 198.79512 
L 277.92 198.79512 
L 277.2 198.79512 
L 276.48 198.79512 
L 275.76 198.79512 
L 275.04 198.79512 
L 274.32 198.79512 
L 273.6 198.79512 
L 272.88 198.79512 
L 272.16 198.79512 
L 271.44 198.79512 
L 270.72 198.79512 
L 270 198.79512 
L 269.28 198.79512 
L 268.56 198.79512 
L 267.84 198.79512 
L 267.12 198.79512 
L 266.4 198.79512 
L 265.68 198.79512 
L 264.96 198.79512 
L 264.24 198.79512 
L 263.52 198.79512 
L 263.44488 198.72 
L 262.8 198.07512 
L 262.08 198.07512 
L 261.36 198.07512 
L 260.64 198.07512 
L 259.92 198.07512 
L 259.2 198.07512 
L 258.48 198.07512 
L 258.40488 198 
L 257.76 197.35512 
L 257.04 197.35512 
L 256.32 197.35512 
L 255.6 197.35512 
L 254.88 197.35512 
L 254.16 197.35512 
L 253.44 197.35512 
L 252.72 197.35512 
L 252 197.35512 
L 251.28 197.35512 
L 250.56 197.35512 
L 250.48488 197.28 
L 249.84 196.63512 
L 249.12 196.63512 
L 248.4 196.63512 
L 247.68 196.63512 
L 246.96 196.63512 
L 246.24 196.63512 
L 245.52 196.63512 
L 244.8 196.63512 
L 244.08 196.63512 
L 243.36 196.63512 
L 242.64 196.63512 
L 241.92 196.63512 
L 241.2 196.63512 
L 240.48 196.63512 
L 239.76 196.63512 
L 239.04 196.63512 
L 238.32 196.63512 
L 237.6 196.63512 
L 236.88 196.63512 
L 236.80488 196.56 
L 236.16 195.91512 
L 235.44 195.91512 
L 234.72 195.91512 
L 234 195.91512 
L 233.28 195.91512 
L 232.56 195.91512 
L 232.48488 195.84 
L 231.84 195.19512 
L 231.12 195.19512 
L 230.4 195.19512 
L 229.68 195.19512 
L 229.60488 195.12 
L 228.96 194.47512 
L 228.24 194.47512 
L 227.52 194.47512 
L 226.8 194.47512 
L 226.72488 194.4 
L 226.08 193.75512 
L 225.36 193.75512 
L 224.64 193.75512 
L 223.92 193.75512 
L 223.84488 193.68 
L 223.2 193.03512 
L 222.48 193.03512 
L 221.76 193.03512 
L 221.04 193.03512 
L 220.32 193.03512 
L 219.6 193.03512 
L 218.88 193.03512 
L 218.16 193.03512 
L 217.44 193.03512 
L 216.72 193.03512 
L 216 193.03512 
L 215.28 193.03512 
L 214.56 193.03512 
L 213.84 193.03512 
L 213.12 193.03512 
L 212.47512 193.68 
L 212.4 193.75512 
L 211.68 193.75512 
L 210.96 193.75512 
L 210.31512 194.4 
L 210.24 194.47512 
L 209.52 194.47512 
L 208.87512 195.12 
L 208.8 195.19512 
L 208.08 195.19512 
L 207.43512 195.84 
L 207.36 195.91512 
L 206.71512 196.56 
L 206.64 196.63512 
L 205.92 196.63512 
L 205.27512 197.28 
L 205.2 197.35512 
L 204.48 197.35512 
L 203.83512 198 
L 203.76 198.07512 
L 203.11512 198.72 
L 203.04 198.79512 
L 202.39512 199.44 
L 202.32 199.51512 
L 201.67512 200.16 
L 201.6 200.23512 
L 200.95512 200.88 
L 200.88 200.95512 
L 200.23512 201.6 
L 200.16 201.67512 
L 199.51512 202.32 
L 199.51512 203.04 
L 199.44 203.11512 
L 198.79512 203.76 
L 198.79512 204.48 
L 198.72 204.55512 
L 198.07512 205.2 
L 198 205.27512 
L 197.35512 205.92 
L 197.35512 206.64 
L 197.35512 207.36 
L 197.28 207.43512 
L 196.63512 208.08 
L 196.63512 208.8 
L 196.63512 209.52 
L 196.56 209.59512 
L 195.91512 210.24 
L 195.91512 210.96 
L 195.84 211.03512 
L 195.19512 211.68 
L 195.19512 212.4 
L 195.12 212.47512 
L 194.47512 213.12 
L 194.4 213.19512 
L 193.75512 213.84 
L 193.75512 214.56 
L 193.75512 215.28 
L 193.75512 216 
L 193.75512 216.72 
L 193.75512 217.44 
L 193.75512 218.16 
L 193.75512 218.88 
L 194.4 219.52488 
L 194.47512 219.6 
L 194.47512 220.32 
L 195.12 220.96488 
L 195.84 220.96488 
L 195.91512 221.04 
L 196.56 221.68488 
L 196.63512 221.76 
L 196.63512 222.48 
L 196.63512 223.2 
L 196.63512 223.92 
L 197.28 224.56488 
L 198 224.56488 
L 198.07512 224.64 
L 198.72 225.28488 
L 199.44 225.28488 
L 199.51512 225.36 
L 200.16 226.00488 
L 200.23512 226.08 
L 200.88 226.72488 
L 201.6 226.72488 
L 201.67512 226.8 
L 202.32 227.44488 
L 202.39512 227.52 
L 203.04 228.16488 
L 203.11512 228.24 
L 203.76 228.88488 
L 204.48 228.88488 
L 205.2 228.88488 
L 205.27512 228.96 
L 205.92 229.60488 
L 206.64 229.60488 
L 206.71512 229.68 
L 207.36 230.32488 
L 208.08 230.32488 
L 208.15512 230.4 
L 208.8 231.04488 
L 209.52 231.04488 
L 210.24 231.04488 
L 210.31512 231.12 
L 210.96 231.76488 
L 211.68 231.76488 
L 211.75512 231.84 
L 212.4 232.48488 
L 213.12 232.48488 
L 213.19512 232.56 
L 213.84 233.20488 
L 214.56 233.20488 
L 214.63512 233.28 
L 215.28 233.92488 
L 216 233.92488 
L 216.72 233.92488 
L 216.79512 234 
L 217.44 234.64488 
L 218.16 234.64488 
L 218.88 234.64488 
L 218.95512 234.72 
L 219.6 235.36488 
L 220.32 235.36488 
L 221.04 235.36488 
L 221.11512 235.44 
L 221.76 236.08488 
L 222.48 236.08488 
L 223.2 236.08488 
L 223.92 236.08488 
L 223.99512 236.16 
L 224.64 236.80488 
L 225.36 236.80488 
L 226.08 236.80488 
L 226.15512 236.88 
L 226.8 237.52488 
L 227.52 237.52488 
L 228.24 237.52488 
L 228.96 237.52488 
L 229.68 237.52488 
L 230.4 237.52488 
L 230.47512 237.6 
L 231.12 238.24488 
L 231.84 238.24488 
L 232.56 238.24488 
L 233.28 238.24488 
L 234 238.24488 
L 234.72 238.24488 
L 234.79512 238.32 
L 235.44 238.96488 
z
" clip-path="url(#p54ebac5334)" style="fill: none; stroke: #c8d8e8; stroke-width: 0.5"/>
    <path clip-path="url(#p54ebac5334)" style="fill: none; stroke: #c8d8e8; stroke-width: 0.5"/>
    <path clip-path="url(#p54ebac5334)" style="fill: none; stroke: #c8d8e8; stroke-width: 0.5"/>
    <path clip-path="url(#p54ebac5334)" style="fill: none; stroke: #c8d8e8; stroke-width: 0.5"/>
    <path clip-path="url(#p54ebac5334)" style="fill: none; stroke: #c8d8e8; stroke-width: 0.5"/>
    <path clip-path="url(#p54ebac5334)" style="fill: none; stroke: #c8d8e8; stroke-width: 0.5"/>
    <path clip-path="url(#p54ebac5334)" style="fill: none; stroke: #c8d8e8; stroke-width: 0.5"/>
    <path clip-path="url(#p54ebac5334)" style="fill: none; stroke: #c8d8e8; stroke-width: 0.5"/>
   </g>
   <g id="text_1">
    <g clip-path="url(#p54ebac5334)">
     <!-- 990 -->
     <g style="fill: #c8d8e8" transform="translate(230.43375 357.59485) scale(0.06 -0.06)">
      <defs>
       <path id="DejaVuSans-39" d="M 703 97 
L 703 672 
Q 941 559 1184 500 
Q 1428 441 1663 441 
Q 2288 441 2617 861 
Q 2947 1281 2994 2138 
Q 2813 1869 2534 1725 
Q 2256 1581 1919 1581 
Q 1219 1581 811 2004 
Q 403 2428 403 3163 
Q 403 3881 828 4315 
Q 1253 4750 1959 4750 
Q 2769 4750 3195 4129 
Q 3622 3509 3622 2328 
Q 3622 1225 3098 567 
Q 2575 -91 1691 -91 
Q 1453 -91 1209 -44 
Q 966 3 703 97 
z
M 1959 2075 
Q 2384 2075 2632 2365 
Q 2881 2656 2881 3163 
Q 2881 3666 2632 3958 
Q 2384 4250 1959 4250 
Q 1534 4250 1286 3958 
Q 1038 3666 1038 3163 
Q 1038 2656 1286 2365 
Q 1534 2075 1959 2075 
z
" transform="scale(0.015625)"/>
       <path id="DejaVuSans-30" d="M 2034 4250 
Q 1547 4250 1301 3770 
Q 1056 3291 1056 2328 
Q 1056 1369 1301 889 
Q 1547 409 2034 409 
Q 2525 409 2770 889 
Q 3016 1369 3016 2328 
Q 3016 3291 2770 3770 
Q 2525 4250 2034 4250 
z
M 2034 4750 
Q 2819 4750 3233 4129 
Q 3647 3509 3647 2328 
Q 3647 1150 3233 529 
Q 2819 -91 2034 -91 
Q 1250 -91 836 529 
Q 422 1150 422 2328 
Q 422 3509 836 4129 
Q 1250 4750 2034 4750 
z
" transform="scale(0.015625)"/>
      </defs>
      <use xlink:href="#DejaVuSans-39"/>
      <use xlink:href="#DejaVuSans-39" transform="translate(63.623047 0)"/>
      <use xlink:href="#DejaVuSans-30" transform="translate(127.246094 0)"/>
     </g>
    </g>
   </g>
   <g id="text_2">
    <g clip-path="url(#p54ebac5334)">
     <!-- 990 -->
     <g style="fill: #c8d8e8" transform="translate(30.649582 266.403539) rotate(-315.02092) scale(0.06 -0.06)">
      <use xlink:href="#DejaVuSans-39"/>
      <use xlink:href="#DejaVuSans-39" transform="translate(63.623047 0)"/>
      <use xlink:href="#DejaVuSans-30" transform="translate(127.246094 0)"/>
     </g>
    </g>
   </g>
   <g id="text_3">
    <g clip-path="url(#p54ebac5334)">
     <!-- 1010 -->
     <g style="fill: #c8d8e8" transform="translate(84.870536 254.217257) rotate(-315) scale(0.06 -0.06)">
      <defs>
       <path id="DejaVuSans-31" d="M 794 531 
L 1825 531 
L 1825 4091 
L 703 3866 
L 703 4441 
L 1819 4666 
L 2450 4666 
L 2450 531 
L 3481 531 
L 3481 0 
L 794 0 
L 794 531 
z
" transform="scale(0.015625)"/>
      </defs>
      <use xlink:href="#DejaVuSans-31"/>
      <use xlink:href="#DejaVuSans-30" transform="translate(63.623047 0)"/>
      <use xlink:href="#DejaVuSans-31" transform="translate(127.246094 0)"/>
      <use xlink:href="#DejaVuSans-30" transform="translate(190.869141 0)"/>
     </g>
    </g>
   </g>
   <g id="text_4">
    <g clip-path="url(#p54ebac5334)">
     <!-- 1010 -->
     <g style="fill: #c8d8e8" transform="translate(345.023176 152.815981) rotate(-321.770997) scale(0.06 -0.06)">
      <use xlink:href="#DejaVuSans-31"/>
      <use xlink:href="#DejaVuSans-30" transform="translate(63.623047 0)"/>
      <use xlink:href="#DejaVuSans-31" transform="translate(127.246094 0)"/>
      <use xlink:href="#DejaVuSans-30" transform="translate(190.869141 0)"/>
     </g>
    </g>
   </g>
   <g id="text_5">
    <g clip-path="url(#p54ebac5334)">
     <!-- 1010 -->
     <g style="fill: #c8d8e8" transform="translate(302.438086 134.953899) rotate(-30.676204) scale(0.06 -0.06)">
      <use xlink:href="#DejaVuSans-31"/>
      <use xlink:href="#DejaVuSans-30" transform="translate(63.623047 0)"/>
      <use xlink:href="#DejaVuSans-31" transform="translate(127.246094 0)"/>
      <use xlink:href="#DejaVuSans-30" transform="translate(190.869141 0)"/>
     </g>
    </g>
   </g>
   <g id="text_6">
    <g clip-path="url(#p54ebac5334)">
     <!-- 1010 -->
     <g style="fill: #c8d8e8" transform="translate(0.285 83.770311) scale(0.06 -0.06)">
      <use xlink:href="#DejaVuSans-31"/>
      <use xlink:href="#DejaVuSans-30" transform="translate(63.623047 0)"/>
      <use xlink:href="#DejaVuSans-31" transform="translate(127.246094 0)"/>
      <use xlink:href="#DejaVuSans-30" transform="translate(190.869141 0)"/>
     </g>
    </g>
   </g>
   <g id="text_7">
    <g clip-path="url(#p54ebac5334)">
     <!-- 1010 -->
     <g style="fill: #c8d8e8" transform="translate(327.91861 39.144619) rotate(-46.955778) scale(0.06 -0.06)">
      <use xlink:href="#DejaVuSans-31"/>
      <use xlink:href="#DejaVuSans-30" transform="translate(63.623047 0)"/>
      <use xlink:href="#DejaVuSans-31" transform="translate(127.246094 0)"/>
      <use xlink:href="#DejaVuSans-30" transform="translate(190.869141 0)"/>
     </g>
    </g>
   </g>
  </g>
 </g>
 <defs>
  <clipPath id="p54ebac5334">
   <rect x="0" y="0" width="368.64" height="368.64"/>
  </clipPath>
 </defs>
</svg>
