<?xml version="1.0" encoding="utf-8" standalone="no"?>
<!DOCTYPE svg PUBLIC "-//W3C//DTD SVG 1.1//EN"
  "http://www.w3.org/Graphics/SVG/1.1/DTD/svg11.dtd">
<svg preserveAspectRatio="none" xmlns:xlink="http://www.w3.org/1999/xlink" width="100%" height="100%" viewBox="0 0 368.64 368.64" xmlns="http://www.w3.org/2000/svg" version="1.1">
 <metadata>
  <rdf:RDF xmlns:dc="http://purl.org/dc/elements/1.1/" xmlns:cc="http://creativecommons.org/ns#" xmlns:rdf="http://www.w3.org/1999/02/22-rdf-syntax-ns#">
   <cc:Work>
    <dc:type rdf:resource="http://purl.org/dc/dcmitype/StillImage"/>
    <dc:date>2026-03-23T10:01:40.785495</dc:date>
    <dc:format>image/svg+xml</dc:format>
    <dc:creator>
     <cc:Agent>
      <dc:title>Matplotlib v3.10.1, https://matplotlib.org/</dc:title>
     </cc:Agent>
    </dc:creator>
   </cc:Work>
  </rdf:RDF>
 </metadata>
 <defs>
  <style type="text/css">*{stroke-linejoin: round; stroke-linecap: butt}</style>
 </defs>
 <g id="figure_1">
  <g id="patch_1">
   <path d="M 0 368.64 
L 368.64 368.64 
L 368.64 0 
L 0 0 
L 0 368.64 
z
" style="fill: none; opacity: 0"/>
  </g>
  <g id="axes_1">
   <g id="QuadContourSet_1">
    <path clip-path="url(#p2edf7e4a7a)" style="fill: none; stroke: #c8d8e8; stroke-width: 0.5"/>
    <path clip-path="url(#p2edf7e4a7a)" style="fill: none; stroke: #c8d8e8; stroke-width: 0.5"/>
    <path clip-path="url(#p2edf7e4a7a)" style="fill: none; stroke: #c8d8e8; stroke-width: 0.5"/>
    <path clip-path="url(#p2edf7e4a7a)" style="fill: none; stroke: #c8d8e8; stroke-width: 0.5"/>
    <path clip-path="url(#p2edf7e4a7a)" style="fill: none; stroke: #c8d8e8; stroke-width: 0.5"/>
    <path clip-path="url(#p2edf7e4a7a)" style="fill: none; stroke: #c8d8e8; stroke-width: 0.5"/>
    <path clip-path="url(#p2edf7e4a7a)" style="fill: none; stroke: #c8d8e8; stroke-width: 0.5"/>
    <path clip-path="url(#p2edf7e4a7a)" style="fill: none; stroke: #c8d8e8; stroke-width: 0.5"/>
    <path clip-path="url(#p2edf7e4a7a)" style="fill: none; stroke: #c8d8e8; stroke-width: 0.5"/>
    <path clip-path="url(#p2edf7e4a7a)" style="fill: none; stroke: #c8d8e8; stroke-width: 0.5"/>
    <path clip-path="url(#p2edf7e4a7a)" style="fill: none; stroke: #c8d8e8; stroke-width: 0.5"/>
    <path clip-path="url(#p2edf7e4a7a)" style="fill: none; stroke: #c8d8e8; stroke-width: 0.5"/>
    <path clip-path="url(#p2edf7e4a7a)" style="fill: none; stroke: #c8d8e8; stroke-width: 0.5"/>
    <path d="M 367.92 40.272329 
L 362.88 40.272329 
L 362.16 39.576164 
L 358.56 39.552329 
L 355.68 39.552329 
L 354.24 38.832329 
L 350.64 38.832329 
L 349.92 38.136164 
L 346.32 38.112329 
L 344.88 37.392329 
L 342.72 37.392329 
L 341.28 36.672329 
L 339.84 36.672329 
L 339.12 35.976164 
L 336.96 35.952329 
L 336.24 35.232329 
L 334.8 35.232329 
L 334.08 34.512329 
L 332.64 34.512329 
L 331.92 33.792329 
L 331.2 33.792329 
L 330.48 33.096164 
L 329.04 33.072329 
L 328.32 32.376164 
L 327.6 32.352329 
L 324.72 30.912329 
L 324 30.912329 
L 323.28 30.192329 
L 322.56 30.192329 
L 321.12 28.776164 
L 320.4 28.752329 
L 319.68 28.032329 
L 318.24 27.312329 
L 316.8 25.872329 
L 316.08 25.872329 
L 313.92 23.712329 
L 313.2 23.712329 
L 308.927671 19.44 
L 308.88 18.672329 
L 306.767671 16.56 
L 306.72 15.792329 
L 305.28 14.352329 
L 304.56 12.912329 
L 303.887671 12.24 
L 303.84 11.472329 
L 303.167671 10.08 
L 303.12 9.312329 
L 302.447671 7.92 
L 302.4 6.432329 
L 301.727671 5.76 
L 301.68 4.272329 
L 301.344027 3.6 
L 301.344027 2.16 
L 301.007671 1.44 
L 301.007671 0.72 
M 5.712329 0.72 
L 5.76 2.207671 
L 6.432329 2.88 
L 6.48 6.527671 
L 7.152329 7.2 
L 7.2 9.407671 
L 7.872329 10.08 
L 7.92 10.847671 
L 8.592329 11.52 
L 8.64 13.007671 
L 9.312329 13.68 
L 9.36 14.447671 
L 10.032329 15.12 
L 10.08 15.887671 
L 12.96 18.767671 
L 13.68 18.767671 
L 15.12 20.207671 
L 15.84 20.207671 
L 16.56 20.927671 
L 17.28 20.927671 
L 18 21.647671 
L 18.72 21.647671 
L 19.44 22.367671 
L 20.16 22.367671 
L 22.32 24.527671 
L 23.04 24.527671 
L 25.872329 27.36 
L 25.92 28.127671 
L 27.312329 29.52 
L 27.36 30.287671 
L 28.032329 31.68 
L 28.08 32.447671 
L 28.752329 33.84 
L 28.8 35.327671 
L 29.472329 36.72 
L 29.52 38.207671 
L 30.192329 39.6 
L 30.24 40.367671 
L 30.912329 41.76 
L 30.96 42.527671 
L 31.632329 43.2 
L 31.68 43.967671 
L 32.4 44.687671 
L 33.12 46.127671 
L 36 49.007671 
L 37.44 49.727671 
L 38.16 50.423836 
L 38.88 50.447671 
L 39.6 51.143836 
L 40.32 51.143836 
L 41.04 51.504027 
L 41.76 51.504027 
L 42.48 51.863836 
L 43.2 51.863836 
L 44.64 52.224027 
L 45.36 52.224027 
L 46.08 52.57589 
L 48.24 52.583836 
L 48.96 52.816067 
L 51.84 52.816067 
L 53.28 53.055976 
L 54 52.944027 
L 55.44 53.055976 
L 59.04 53.055976 
L 59.76 53.29589 
L 62.64 53.29589 
L 63.36 53.536067 
L 65.52 53.536067 
L 66.96 53.775976 
L 68.4 53.775976 
L 69.12 54.01589 
L 70.56 54.01589 
L 71.28 54.256067 
L 72 54.256067 
L 74.88 54.73589 
L 75.6 54.743836 
L 76.32 54.976067 
L 77.04 54.976067 
L 77.76 55.215976 
L 78.48 55.215976 
L 79.2 55.45589 
L 79.92 55.463836 
L 81.36 55.824027 
L 82.08 55.935976 
L 82.8 56.17589 
L 83.52 56.183836 
L 84.24 56.544027 
L 84.96 56.655976 
L 90 58.343836 
L 92.88 59.783836 
L 93.6 60.49589 
L 94.32 60.864027 
L 95.04 61.584027 
L 95.76 61.943836 
L 97.92 64.103836 
L 98.64 64.464027 
L 99.36 65.543836 
L 105.84 72.023836 
L 106.56 72.384027 
L 108.72 74.544027 
L 109.44 74.927671 
L 113.04 78.527671 
L 114.432329 81.36 
L 114.456164 84.24 
L 114.432329 85.68 
L 112.992329 88.56 
L 112.296164 89.28 
L 111.552329 90.72 
L 110.856164 91.44 
L 110.495973 92.16 
L 109.775973 92.88 
L 109.392329 93.6 
L 107.976164 95.04 
L 107.232329 96.48 
L 105.816164 97.92 
L 105.072329 99.36 
L 104.376164 100.08 
L 103.632329 101.52 
L 102.216164 102.96 
L 101.472329 104.4 
L 97.176164 108.72 
L 96.432329 110.16 
L 95.04 111.552329 
L 94.272329 111.6 
L 86.4 119.472329 
L 85.632329 119.52 
L 82.8 122.352329 
L 82.032329 122.4 
L 80.64 123.792329 
L 79.872329 123.84 
L 78.48 125.232329 
L 77.712329 125.28 
L 77.04 125.952329 
L 76.272329 126 
L 74.88 127.392329 
L 74.112329 127.44 
L 73.44 128.112329 
L 72.672329 128.16 
L 71.28 129.552329 
L 69.792329 129.6 
L 69.12 130.272329 
L 68.352329 130.32 
L 67.68 130.992329 
L 66.192329 131.04 
L 65.52 131.712329 
L 64.752329 131.76 
L 64.08 132.432329 
L 63.312329 132.48 
L 62.64 133.152329 
L 61.872329 133.2 
L 61.2 133.872329 
L 60.432329 133.92 
L 59.76 134.592329 
L 58.992329 134.64 
L 58.32 135.312329 
L 57.552329 135.36 
L 56.88 136.032329 
L 56.112329 136.08 
L 54.72 137.472329 
L 53.952329 137.52 
L 53.28 138.192329 
L 52.512329 138.24 
L 51.84 138.912329 
L 51.072329 138.96 
L 50.4 139.632329 
L 49.632329 139.68 
L 48.96 140.352329 
L 48.192329 140.4 
L 47.52 141.072329 
L 46.752329 141.12 
L 46.08 141.792329 
L 44.592329 141.84 
L 43.92 142.512329 
L 43.152329 142.56 
L 42.48 143.232329 
L 40.992329 143.28 
L 40.32 143.952329 
L 39.552329 144 
L 38.88 144.672329 
L 37.392329 144.72 
L 36.72 145.392329 
L 34.512329 145.44 
L 33.84 146.112329 
L 33.12 146.112329 
L 32.4 145.392329 
L 29.52 145.392329 
L 28.08 143.952329 
L 27.36 143.952329 
L 26.64 143.232329 
L 25.92 143.232329 
L 23.807671 141.12 
L 23.76 140.352329 
L 23.04 140.352329 
L 22.367671 139.68 
L 22.32 138.912329 
L 16.56 133.152329 
L 15.84 133.152329 
L 14.4 131.712329 
L 13.68 131.712329 
L 12.96 130.992329 
L 12.24 130.992329 
L 11.52 130.272329 
L 10.08 130.272329 
L 9.36 129.552329 
L 7.92 129.552329 
L 7.2 128.832329 
L 5.04 128.832329 
L 4.32 128.112329 
L 0.72 128.112329 
L 0 127.392329 
M 129.552329 0.72 
L 129.552329 1.44 
L 128.832329 2.16 
L 128.832329 5.04 
L 128.112329 5.76 
L 128.112329 6.48 
L 127.392329 7.2 
L 127.392329 8.64 
L 125.952329 10.08 
L 125.952329 10.8 
L 123.792329 12.96 
L 123.792329 13.68 
L 120.96 16.512329 
L 120.192329 16.56 
L 118.08 18.672329 
L 117.312329 18.72 
L 116.64 19.392329 
L 115.872329 19.44 
L 114.48 20.832329 
L 112.992329 20.88 
L 112.32 21.552329 
L 111.552329 21.6 
L 110.16 22.272329 
L 107.952329 22.32 
L 107.28 22.992329 
L 105.792329 23.04 
L 105.12 23.712329 
L 95.76 23.712329 
L 95.04 23.016164 
L 92.16 22.992329 
L 90.72 22.272329 
L 89.28 22.272329 
L 88.56 21.552329 
L 87.12 21.552329 
L 86.4 20.832329 
L 84.96 20.832329 
L 84.24 20.112329 
L 83.52 20.112329 
L 82.8 19.392329 
L 82.08 19.392329 
L 81.36 18.672329 
L 79.92 18.672329 
L 79.2 17.952329 
L 78.48 17.952329 
L 77.76 17.232329 
L 77.04 17.232329 
L 76.32 16.512329 
L 75.6 16.512329 
L 74.88 15.792329 
L 74.16 15.792329 
L 72.72 14.352329 
L 72 14.352329 
L 71.28 13.632329 
L 70.56 13.632329 
L 67.727671 10.8 
L 67.68 10.032329 
L 65.567671 7.92 
L 65.52 7.152329 
L 64.127671 5.76 
L 64.08 3.552329 
L 63.407671 2.88 
L 63.36 2.112329 
L 62.687671 1.44 
L 62.687671 0.72 
M 175.632329 0.72 
L 175.632329 5.76 
L 174.912329 6.48 
L 174.912329 10.08 
L 174.192329 10.8 
L 174.192329 12.24 
L 173.472329 12.96 
L 173.472329 15.12 
L 172.752329 15.84 
L 172.752329 16.56 
L 172.032329 17.28 
L 172.032329 18.72 
L 170.592329 20.16 
L 170.592329 20.88 
L 167.04 24.432329 
L 165.552329 24.48 
L 164.88 25.152329 
L 162.72 25.152329 
L 162 24.432329 
L 161.28 24.432329 
L 160.56 23.712329 
L 159.12 23.712329 
L 158.447671 23.04 
L 158.4 22.272329 
L 157.68 22.272329 
L 157.007671 21.6 
L 156.96 20.832329 
L 154.847671 18.72 
L 154.8 17.952329 
L 154.127671 17.28 
L 154.08 15.792329 
L 153.407671 15.12 
L 153.36 12.912329 
L 152.687671 12.24 
L 152.64 10.032329 
L 151.967671 9.36 
L 151.92 2.832329 
L 151.247671 2.16 
L 151.247671 0.72 
L 151.247671 0.72 
" clip-path="url(#p2edf7e4a7a)" style="fill: none; stroke: #c8d8e8; stroke-width: 0.5"/>
    <path d="M 367.92 91.039726 
L 367.2 91.039726 
L 366.48 91.039726 
L 365.76 91.039726 
L 365.04 91.039726 
L 364.32 91.039726 
L 363.6 91.039726 
L 362.88 91.039726 
L 362.16 91.039726 
L 361.44 91.039726 
L 360.72 91.039726 
L 360 91.039726 
L 359.28 91.039726 
L 358.56 91.039726 
L 357.84 90.879863 
L 357.12 90.879863 
L 356.4 90.879863 
L 355.68 90.879863 
L 354.96 90.879863 
L 354.24 90.879863 
L 353.52 90.879863 
L 353.200274 90.72 
L 352.8 90.519863 
L 352.08 90.519863 
L 351.36 90.519863 
L 350.64 90.519863 
L 349.92 90.319726 
L 349.2 90.319726 
L 348.48 90.319726 
L 347.76 90.319726 
L 347.04 90.319726 
L 346.32 90.319726 
L 345.6 90.159863 
L 344.88 90.159863 
L 344.560274 90 
L 344.16 89.799863 
L 343.44 89.799863 
L 342.72 89.799863 
L 342 89.599726 
L 341.28 89.599726 
L 340.56 89.599726 
L 339.84 89.599726 
L 339.12 89.599726 
L 338.4 89.599726 
L 337.68 89.599726 
L 336.96 89.599726 
L 336.24 89.599726 
L 335.52 89.439863 
L 335.200274 89.28 
L 334.8 89.079863 
L 334.08 89.079863 
L 333.36 88.879726 
L 332.64 88.879726 
L 331.92 88.879726 
L 331.2 88.879726 
L 330.48 88.879726 
L 329.76 88.879726 
L 329.04 88.879726 
L 328.32 88.879726 
L 327.6 88.879726 
L 326.88 88.719863 
L 326.560274 88.56 
L 326.16 88.359863 
L 325.44 88.159726 
L 324.72 88.159726 
L 324 88.159726 
L 323.28 88.159726 
L 322.56 88.159726 
L 321.84 88.159726 
L 321.12 88.159726 
L 320.4 88.159726 
L 319.68 88.159726 
L 318.96 88.159726 
L 318.24 88.159726 
L 317.52 88.159726 
L 316.8 88.159726 
L 316.08 88.159726 
L 315.36 88.159726 
L 314.64 88.159726 
L 313.92 88.159726 
L 313.2 88.159726 
L 312.48 88.159726 
L 311.76 88.159726 
L 311.04 88.159726 
L 310.32 88.159726 
L 309.6 88.159726 
L 308.88 88.159726 
L 308.16 88.159726 
L 307.44 88.159726 
L 306.72 88.159726 
L 306 88.159726 
L 305.28 88.159726 
L 304.56 88.159726 
L 303.84 88.159726 
L 303.12 88.159726 
L 302.4 88.159726 
L 301.68 88.159726 
L 300.96 88.159726 
L 300.24 88.159726 
L 299.52 88.159726 
L 298.8 88.159726 
L 298.08 88.159726 
L 297.36 88.159726 
L 296.64 88.159726 
L 296.320274 87.84 
L 295.92 87.439726 
L 295.2 87.439726 
L 294.48 87.439726 
L 293.76 87.439726 
L 293.04 87.439726 
L 292.32 87.439726 
L 291.6 87.439726 
L 290.88 87.439726 
L 290.16 87.439726 
L 289.44 87.439726 
L 288.72 87.439726 
L 288 87.439726 
L 287.28 87.439726 
L 286.56 87.439726 
L 286.159726 87.84 
L 285.84 88.159726 
L 285.12 88.159726 
L 284.4 88.159726 
L 283.68 88.159726 
L 282.96 88.159726 
L 282.24 88.159726 
L 281.52 88.159726 
L 280.8 88.159726 
L 280.08 88.159726 
L 279.679726 88.56 
L 279.36 88.879726 
L 278.64 88.879726 
L 277.92 88.879726 
L 277.2 88.879726 
L 276.48 88.879726 
L 275.76 88.879726 
L 275.359726 89.28 
L 275.04 89.599726 
L 274.32 89.599726 
L 273.6 89.599726 
L 272.88 89.599726 
L 272.479726 90 
L 272.16 90.319726 
L 271.44 90.319726 
L 270.72 90.319726 
L 270 90.319726 
L 269.599726 90.72 
L 269.28 91.039726 
L 268.56 91.039726 
L 267.84 91.039726 
L 267.12 91.039726 
L 266.719726 91.44 
L 266.4 91.759726 
L 265.68 91.759726 
L 264.96 91.759726 
L 264.559726 92.16 
L 264.24 92.479726 
L 263.52 92.479726 
L 262.8 92.479726 
L 262.08 92.479726 
L 261.679726 92.88 
L 261.36 93.199726 
L 260.64 93.199726 
L 260.239726 93.6 
L 259.92 93.919726 
L 259.2 93.919726 
L 258.48 93.919726 
L 257.76 93.919726 
L 257.359726 94.32 
L 257.04 94.639726 
L 256.32 94.639726 
L 255.6 94.639726 
L 254.88 94.639726 
L 254.479726 95.04 
L 254.16 95.359726 
L 253.44 95.359726 
L 252.72 95.359726 
L 252 95.359726 
L 251.599726 95.76 
L 251.28 96.079726 
L 250.56 96.079726 
L 249.84 96.079726 
L 249.439726 96.48 
L 249.12 96.799726 
L 248.4 96.799726 
L 247.999726 97.2 
L 247.68 97.519726 
L 247.279726 97.92 
L 246.96 98.239726 
L 246.24 98.239726 
L 245.839726 98.64 
L 245.52 98.959726 
L 245.119726 99.36 
L 244.8 99.679726 
L 244.399726 100.08 
L 244.08 100.399726 
L 243.679726 100.8 
L 243.679726 101.52 
L 243.36 101.839726 
L 242.959726 102.24 
L 242.959726 102.96 
L 242.64 103.279726 
L 242.239726 103.68 
L 241.92 103.999726 
L 241.519726 104.4 
L 241.519726 105.12 
L 241.2 105.439726 
L 240.799726 105.84 
L 240.48 106.159726 
L 240.079726 106.56 
L 240.079726 107.28 
L 240.079726 108 
L 239.76 108.319726 
L 239.359726 108.72 
L 239.04 109.039726 
L 238.639726 109.44 
L 238.639726 110.16 
L 238.32 110.479726 
L 237.919726 110.88 
L 237.6 111.199726 
L 237.199726 111.6 
L 237.199726 112.32 
L 236.88 112.639726 
L 236.479726 113.04 
L 236.16 113.359726 
L 235.759726 113.76 
L 235.759726 114.48 
L 235.44 114.799726 
L 235.039726 115.2 
L 235.039726 115.92 
L 234.72 116.239726 
L 234.319726 116.64 
L 234 116.959726 
L 233.599726 117.36 
L 233.599726 118.08 
L 233.28 118.399726 
L 232.879726 118.8 
L 232.56 119.119726 
L 232.159726 119.52 
L 232.159726 120.24 
L 231.84 120.559726 
L 231.439726 120.96 
L 231.12 121.279726 
L 230.719726 121.68 
L 230.719726 122.4 
L 230.4 122.719726 
L 229.999726 123.12 
L 229.68 123.439726 
L 229.279726 123.84 
L 229.279726 124.56 
L 228.96 124.879726 
L 228.559726 125.28 
L 228.24 125.599726 
L 227.839726 126 
L 227.52 126.319726 
L 227.119726 126.72 
L 227.119726 127.44 
L 226.8 127.759726 
L 226.399726 128.16 
L 226.08 128.479726 
L 225.679726 128.88 
L 225.679726 129.6 
L 225.36 129.919726 
L 224.959726 130.32 
L 224.64 130.639726 
L 224.239726 131.04 
L 223.92 131.359726 
L 223.519726 131.76 
L 223.519726 132.48 
L 223.2 132.799726 
L 222.799726 133.2 
L 222.48 133.519726 
L 222.079726 133.92 
L 221.76 134.239726 
L 221.359726 134.64 
L 221.359726 135.36 
L 221.04 135.679726 
L 220.639726 136.08 
L 220.32 136.399726 
L 219.919726 136.8 
L 219.6 137.119726 
L 219.199726 137.52 
L 218.88 137.839726 
L 218.479726 138.24 
L 218.479726 138.96 
L 218.16 139.279726 
L 217.759726 139.68 
L 217.44 139.999726 
L 217.039726 140.4 
L 216.72 140.719726 
L 216.319726 141.12 
L 216 141.439726 
L 215.599726 141.84 
L 215.599726 142.56 
L 215.28 142.879726 
L 214.879726 143.28 
L 214.56 143.599726 
L 214.159726 144 
L 213.84 144.319726 
L 213.439726 144.72 
L 213.439726 145.44 
L 213.12 145.759726 
L 212.719726 146.16 
L 212.4 146.479726 
L 211.999726 146.88 
L 211.999726 147.6 
L 211.68 147.919726 
L 211.279726 148.32 
L 210.96 148.639726 
L 210.559726 149.04 
L 210.559726 149.76 
L 210.24 150.079726 
L 209.839726 150.48 
L 209.52 150.799726 
L 209.119726 151.2 
L 209.119726 151.92 
L 208.8 152.239726 
L 208.399726 152.64 
L 208.399726 153.36 
L 208.08 153.679726 
L 207.679726 154.08 
L 207.679726 154.8 
L 207.36 155.119726 
L 206.959726 155.52 
L 206.959726 156.24 
L 206.64 156.559726 
L 206.239726 156.96 
L 206.239726 157.68 
L 205.92 157.999726 
L 205.519726 158.4 
L 205.519726 159.12 
L 205.2 159.439726 
L 204.799726 159.84 
L 204.48 160.159726 
L 204.079726 160.56 
L 204.079726 161.28 
L 204.079726 162 
L 203.76 162.319726 
L 203.359726 162.72 
L 203.359726 163.44 
L 203.04 163.759726 
L 202.639726 164.16 
L 202.639726 164.88 
L 202.32 165.199726 
L 201.919726 165.6 
L 201.6 165.919726 
L 201.199726 166.32 
L 201.199726 167.04 
L 200.88 167.359726 
L 200.479726 167.76 
L 200.479726 168.48 
L 200.16 168.799726 
L 199.759726 169.2 
L 199.44 169.519726 
L 199.039726 169.92 
L 199.039726 170.64 
L 198.72 170.959726 
L 198.319726 171.36 
L 198.319726 172.08 
L 198 172.399726 
L 197.599726 172.8 
L 197.599726 173.52 
L 197.28 173.839726 
L 196.879726 174.24 
L 196.56 174.559726 
L 196.159726 174.96 
L 196.159726 175.68 
L 195.84 175.999726 
L 195.439726 176.4 
L 195.439726 177.12 
L 195.12 177.439726 
L 194.719726 177.84 
L 194.719726 178.56 
L 194.4 178.879726 
L 193.999726 179.28 
L 193.999726 180 
L 193.68 180.319726 
L 193.279726 180.72 
L 193.279726 181.44 
L 192.96 181.759726 
L 192.559726 182.16 
L 192.24 182.479726 
L 191.839726 182.88 
L 191.839726 183.6 
L 191.52 183.919726 
L 191.119726 184.32 
L 190.8 184.639726 
L 190.399726 185.04 
L 190.399726 185.76 
L 190.08 186.079726 
L 189.679726 186.48 
L 189.36 186.799726 
L 188.959726 187.2 
L 188.64 187.519726 
L 188.239726 187.92 
L 187.92 188.239726 
L 187.519726 188.64 
L 187.519726 189.36 
L 187.2 189.679726 
L 186.799726 190.08 
L 186.48 190.399726 
L 186.079726 190.8 
L 185.76 191.119726 
L 185.04 191.119726 
L 184.639726 191.52 
L 184.32 191.839726 
L 183.919726 192.24 
L 183.6 192.559726 
L 183.199726 192.96 
L 182.88 193.279726 
L 182.479726 193.68 
L 182.16 193.999726 
L 181.759726 194.4 
L 181.44 194.719726 
L 180.72 194.719726 
L 180.319726 195.12 
L 180 195.439726 
L 179.28 195.439726 
L 178.879726 195.84 
L 178.56 196.159726 
L 177.84 196.159726 
L 177.439726 196.56 
L 177.12 196.879726 
L 176.719726 197.28 
L 176.4 197.599726 
L 175.999726 198 
L 175.68 198.319726 
L 174.96 198.319726 
L 174.24 198.319726 
L 173.839726 198.72 
L 173.52 199.039726 
L 172.8 199.039726 
L 172.399726 199.44 
L 172.08 199.759726 
L 171.36 199.759726 
L 170.959726 200.16 
L 170.64 200.479726 
L 170.239726 200.88 
L 169.92 201.199726 
L 169.2 201.199726 
L 168.799726 201.6 
L 168.48 201.919726 
L 168.079726 202.32 
L 167.76 202.639726 
L 167.359726 203.04 
L 167.04 203.359726 
L 166.639726 203.76 
L 166.32 204.079726 
L 165.919726 204.48 
L 165.6 204.799726 
L 165.199726 205.2 
L 164.88 205.519726 
L 164.479726 205.92 
L 164.479726 206.64 
L 164.16 206.959726 
L 163.759726 207.36 
L 163.44 207.679726 
L 163.039726 208.08 
L 162.72 208.399726 
L 162.319726 208.8 
L 162.319726 209.52 
L 162.319726 210.24 
L 162.319726 210.96 
L 162.319726 211.68 
L 162.319726 212.4 
L 162.319726 213.12 
L 162.319726 213.84 
L 162.319726 214.56 
L 162.319726 215.28 
L 162.319726 216 
L 162.72 216.400274 
L 163.039726 216.72 
L 163.039726 217.44 
L 163.039726 218.16 
L 163.039726 218.88 
L 163.039726 219.6 
L 163.039726 220.32 
L 163.039726 221.04 
L 163.039726 221.76 
L 163.039726 222.48 
L 163.039726 223.2 
L 163.039726 223.92 
L 163.039726 224.64 
L 163.039726 225.36 
L 163.039726 226.08 
L 163.039726 226.8 
L 163.039726 227.52 
L 163.039726 228.24 
L 163.039726 228.96 
L 163.039726 229.68 
L 163.039726 230.4 
L 163.039726 231.12 
L 163.039726 231.84 
L 163.039726 232.56 
L 163.039726 233.28 
L 163.039726 234 
L 163.039726 234.72 
L 163.039726 235.44 
L 163.039726 236.16 
L 163.039726 236.88 
L 163.039726 237.6 
L 163.039726 238.32 
L 163.039726 239.04 
L 163.039726 239.76 
L 163.039726 240.48 
L 163.039726 241.2 
L 163.039726 241.92 
L 163.039726 242.64 
L 163.039726 243.36 
L 163.039726 244.08 
L 163.039726 244.8 
L 163.039726 245.52 
L 163.039726 246.24 
L 163.039726 246.96 
L 163.039726 247.68 
L 163.039726 248.4 
L 163.039726 249.12 
L 163.039726 249.84 
L 163.039726 250.56 
L 163.039726 251.28 
L 163.039726 252 
L 163.039726 252.72 
L 163.039726 253.44 
L 163.039726 254.16 
L 163.039726 254.88 
L 163.039726 255.6 
L 163.039726 256.32 
L 163.039726 257.04 
L 163.039726 257.76 
L 163.039726 258.48 
L 163.039726 259.2 
L 163.039726 259.92 
L 163.039726 260.64 
L 163.039726 261.36 
L 163.039726 262.08 
L 163.039726 262.8 
L 163.039726 263.52 
L 163.039726 264.24 
L 163.039726 264.96 
L 163.039726 265.68 
L 163.039726 266.4 
L 163.039726 267.12 
L 163.039726 267.84 
L 163.039726 268.56 
L 163.039726 269.28 
L 163.039726 270 
L 163.039726 270.72 
L 163.039726 271.44 
L 163.039726 272.16 
L 163.039726 272.88 
L 163.039726 273.6 
L 163.039726 274.32 
L 163.039726 275.04 
L 163.039726 275.76 
L 163.039726 276.48 
L 163.039726 277.2 
L 163.039726 277.92 
L 163.039726 278.64 
L 163.039726 279.36 
L 163.039726 280.08 
L 163.039726 280.8 
L 163.039726 281.52 
L 163.039726 282.24 
L 163.039726 282.96 
L 163.039726 283.68 
L 163.039726 284.4 
L 163.039726 285.12 
L 163.039726 285.84 
L 163.039726 286.56 
L 163.039726 287.28 
L 163.039726 288 
L 163.039726 288.72 
L 163.039726 289.44 
L 163.039726 290.16 
L 163.039726 290.88 
L 163.039726 291.6 
L 163.039726 292.32 
L 163.039726 293.04 
L 163.039726 293.76 
L 163.039726 294.48 
L 163.039726 295.2 
L 163.039726 295.92 
L 163.039726 296.64 
L 163.039726 297.36 
L 163.039726 298.08 
L 163.039726 298.8 
L 163.039726 299.52 
L 163.039726 300.24 
L 163.039726 300.96 
L 163.039726 301.68 
L 163.039726 302.4 
L 163.039726 303.12 
L 163.039726 303.84 
L 163.039726 304.56 
L 163.039726 305.28 
L 163.039726 306 
L 163.039726 306.72 
L 163.039726 307.44 
L 163.039726 308.16 
L 163.039726 308.88 
L 163.039726 309.6 
L 163.039726 310.32 
L 163.039726 311.04 
L 163.039726 311.76 
L 163.039726 312.48 
L 163.039726 313.2 
L 163.039726 313.92 
L 163.039726 314.64 
L 163.039726 315.36 
L 163.039726 316.08 
L 163.039726 316.8 
L 163.039726 317.52 
L 163.039726 318.24 
L 163.039726 318.96 
L 163.039726 319.68 
L 163.039726 320.4 
L 163.039726 321.12 
L 163.039726 321.84 
L 163.039726 322.56 
L 163.039726 323.28 
L 163.039726 324 
L 163.039726 324.72 
L 163.039726 325.44 
L 163.039726 326.16 
L 163.039726 326.88 
L 163.039726 327.6 
L 163.039726 328.32 
L 163.039726 329.04 
L 163.039726 329.76 
L 163.039726 330.48 
L 163.039726 331.2 
L 163.039726 331.92 
L 163.039726 332.64 
L 163.039726 333.36 
L 163.039726 334.08 
L 163.039726 334.8 
L 163.039726 335.52 
L 163.039726 336.24 
L 163.039726 336.96 
L 163.039726 337.68 
L 163.039726 338.4 
L 163.039726 339.12 
L 163.039726 339.84 
L 163.039726 340.56 
L 163.039726 341.28 
L 163.039726 342 
L 163.039726 342.72 
L 163.039726 343.44 
L 163.039726 344.16 
L 163.039726 344.88 
L 163.039726 345.6 
L 163.039726 346.32 
L 163.039726 347.04 
L 163.039726 347.76 
L 163.039726 348.48 
L 163.039726 349.2 
L 163.039726 349.92 
L 163.039726 350.64 
L 163.039726 351.36 
L 163.039726 352.08 
L 163.039726 352.8 
L 163.039726 353.52 
L 163.039726 354.24 
L 163.039726 354.96 
L 163.039726 355.68 
L 163.039726 356.4 
L 163.039726 357.12 
L 163.039726 357.84 
L 163.039726 358.56 
L 163.039726 359.28 
L 163.039726 360 
L 163.039726 360.72 
L 163.039726 361.44 
L 163.039726 362.16 
L 163.039726 362.88 
L 163.039726 363.6 
L 163.039726 364.32 
L 163.039726 365.04 
L 163.039726 365.76 
L 163.039726 366.48 
L 163.039726 367.2 
L 163.039726 367.92 
L 163.039726 368.64 
M 254.16 56.560274 
L 254.88 56.560274 
L 255.6 56.560274 
L 256.000274 56.16 
L 256.32 55.840274 
L 256.720274 55.44 
L 256.720274 54.72 
L 256.720274 54 
L 256.720274 53.28 
L 256.720274 52.56 
L 256.720274 51.84 
L 256.32 51.439726 
L 256.000274 51.12 
L 255.6 50.719726 
L 254.88 50.719726 
L 254.479726 51.12 
L 254.16 51.439726 
L 253.759726 51.84 
L 253.759726 52.56 
L 253.759726 53.28 
L 253.759726 54 
L 253.759726 54.72 
L 253.759726 55.44 
L 253.759726 56.16 
L 254.16 56.560274 
z
" clip-path="url(#p2edf7e4a7a)" style="fill: none; stroke: #c8d8e8; stroke-width: 0.5"/>
    <path d="M 367.92 163.407123 
L 367.167123 163.44 
L 366.48 164.127123 
L 364.287123 164.16 
L 363.6 164.847123 
L 362.847123 164.88 
L 362.16 165.567123 
L 361.407123 165.6 
L 360.72 166.287123 
L 359.967123 166.32 
L 353.487123 172.8 
L 353.487123 173.52 
L 352.767123 174.24 
L 352.767123 174.96 
L 352.047123 175.68 
L 352.047123 176.4 
L 351.327123 177.12 
L 351.327123 177.84 
L 350.607123 178.56 
L 350.607123 179.28 
L 349.887123 180 
L 349.887123 182.16 
L 349.167123 182.88 
L 349.167123 183.6 
L 348.447123 184.32 
L 348.447123 187.2 
L 347.727123 187.92 
L 347.76 196.592877 
L 348.447123 197.28 
L 348.48 201.632877 
L 349.167123 202.32 
L 349.2 203.072877 
L 349.887123 203.76 
L 349.92 205.232877 
L 350.607123 205.92 
L 350.64 208.112877 
L 351.327123 208.8 
L 351.36 209.552877 
L 352.047123 210.24 
L 352.08 211.712877 
L 352.767123 212.4 
L 352.8 213.872877 
L 353.487123 214.56 
L 353.52 215.312877 
L 354.207123 216 
L 354.24 216.752877 
L 355.647123 218.16 
L 355.68 218.912877 
L 359.28 222.512877 
L 360 222.512877 
L 360.72 223.232877 
L 361.44 223.232877 
L 362.16 223.952877 
L 363.6 223.952877 
L 364.32 224.672877 
L 367.2 224.672877 
L 367.92 225.016438 
L 367.92 225.016438 
" clip-path="url(#p2edf7e4a7a)" style="fill: none; stroke: #c8d8e8; stroke-width: 0.5"/>
    <path clip-path="url(#p2edf7e4a7a)" style="fill: none; stroke: #c8d8e8; stroke-width: 0.5"/>
    <path clip-path="url(#p2edf7e4a7a)" style="fill: none; stroke: #c8d8e8; stroke-width: 0.5"/>
    <path clip-path="url(#p2edf7e4a7a)" style="fill: none; stroke: #c8d8e8; stroke-width: 0.5"/>
    <path clip-path="url(#p2edf7e4a7a)" style="fill: none; stroke: #c8d8e8; stroke-width: 0.5"/>
    <path clip-path="url(#p2edf7e4a7a)" style="fill: none; stroke: #c8d8e8; stroke-width: 0.5"/>
    <path clip-path="url(#p2edf7e4a7a)" style="fill: none; stroke: #c8d8e8; stroke-width: 0.5"/>
    <path clip-path="url(#p2edf7e4a7a)" style="fill: none; stroke: #c8d8e8; stroke-width: 0.5"/>
   </g>
  </g>
 </g>
 <defs>
  <clipPath id="p2edf7e4a7a">
   <rect x="0" y="0" width="368.64" height="368.64"/>
  </clipPath>
 </defs>
</svg>
