<?xml version="1.0" encoding="utf-8" standalone="no"?>
<!DOCTYPE svg PUBLIC "-//W3C//DTD SVG 1.1//EN"
  "http://www.w3.org/Graphics/SVG/1.1/DTD/svg11.dtd">
<svg preserveAspectRatio="none" xmlns:xlink="http://www.w3.org/1999/xlink" width="100%" height="100%" viewBox="0 0 368.64 368.64" xmlns="http://www.w3.org/2000/svg" version="1.1">
 <metadata>
  <rdf:RDF xmlns:dc="http://purl.org/dc/elements/1.1/" xmlns:cc="http://creativecommons.org/ns#" xmlns:rdf="http://www.w3.org/1999/02/22-rdf-syntax-ns#">
   <cc:Work>
    <dc:type rdf:resource="http://purl.org/dc/dcmitype/StillImage"/>
    <dc:date>2026-03-23T10:01:45.609383</dc:date>
    <dc:format>image/svg+xml</dc:format>
    <dc:creator>
     <cc:Agent>
      <dc:title>Matplotlib v3.10.1, https://matplotlib.org/</dc:title>
     </cc:Agent>
    </dc:creator>
   </cc:Work>
  </rdf:RDF>
 </metadata>
 <defs>
  <style type="text/css">*{stroke-linejoin: round; stroke-linecap: butt}</style>
 </defs>
 <g id="figure_1">
  <g id="patch_1">
   <path d="M 0 368.64 
L 368.64 368.64 
L 368.64 0 
L 0 0 
L 0 368.64 
z
" style="fill: none; opacity: 0"/>
  </g>
  <g id="axes_1">
   <g id="QuadContourSet_1">
    <path clip-path="url(#p70298523bc)" style="fill: none; stroke: #c8d8e8; stroke-width: 0.5"/>
    <path clip-path="url(#p70298523bc)" style="fill: none; stroke: #c8d8e8; stroke-width: 0.5"/>
    <path clip-path="url(#p70298523bc)" style="fill: none; stroke: #c8d8e8; stroke-width: 0.5"/>
    <path clip-path="url(#p70298523bc)" style="fill: none; stroke: #c8d8e8; stroke-width: 0.5"/>
    <path clip-path="url(#p70298523bc)" style="fill: none; stroke: #c8d8e8; stroke-width: 0.5"/>
    <path clip-path="url(#p70298523bc)" style="fill: none; stroke: #c8d8e8; stroke-width: 0.5"/>
    <path clip-path="url(#p70298523bc)" style="fill: none; stroke: #c8d8e8; stroke-width: 0.5"/>
    <path clip-path="url(#p70298523bc)" style="fill: none; stroke: #c8d8e8; stroke-width: 0.5"/>
    <path clip-path="url(#p70298523bc)" style="fill: none; stroke: #c8d8e8; stroke-width: 0.5"/>
    <path clip-path="url(#p70298523bc)" style="fill: none; stroke: #c8d8e8; stroke-width: 0.5"/>
    <path d="M 0 190.125945 
L 0.72 189.405945 
L 3.645945 189.36 
L 4.32 188.685945 
L 5.805945 188.64 
L 7.2 187.245945 
L 7.965945 187.2 
L 8.64 186.525945 
L 9.405945 186.48 
L 10.8 185.085945 
L 11.565945 185.04 
L 13.68 182.925945 
L 14.445945 182.88 
L 17.28 180.045945 
L 18.045945 180 
L 20.88 177.165945 
L 21.645945 177.12 
L 23.04 175.725945 
L 23.805945 175.68 
L 25.2 174.285945 
L 25.965945 174.24 
L 27.36 172.845945 
L 28.125945 172.8 
L 28.8 172.125945 
L 29.565945 172.08 
L 30.24 171.405945 
L 31.005945 171.36 
L 31.68 170.685945 
L 32.445945 170.64 
L 33.12 169.965945 
L 34.605945 169.92 
L 35.28 169.245945 
L 37.485945 169.2 
L 38.16 168.525945 
L 39.645945 168.48 
L 40.32 167.805945 
L 42.525945 167.76 
L 43.2 167.085945 
L 44.685945 167.04 
L 45.36 166.365945 
L 46.845945 166.32 
L 47.52 165.645945 
L 48.285945 165.6 
L 48.96 164.925945 
L 50.445945 164.88 
L 51.12 164.205945 
L 51.885945 164.16 
L 52.56 163.485945 
L 53.325945 163.44 
L 54 162.765945 
L 54.765945 162.72 
L 56.16 161.325945 
L 56.925945 161.28 
L 57.6 160.605945 
L 58.365945 160.56 
L 59.04 159.885945 
L 59.805945 159.84 
L 60.48 159.165945 
L 61.245945 159.12 
L 61.92 158.445945 
L 62.685945 158.4 
L 63.36 157.725945 
L 64.125945 157.68 
L 64.8 157.005945 
L 65.565945 156.96 
L 66.24 156.285945 
L 67.725945 156.24 
L 68.4 155.565945 
L 69.885945 155.52 
L 70.56 154.845945 
L 72.765945 154.8 
L 73.44 154.125945 
L 74.925945 154.08 
L 75.6 153.405945 
L 77.805945 153.36 
L 78.48 152.685945 
L 80.685945 152.64 
L 81.36 151.965945 
L 82.845945 151.92 
L 83.52 151.245945 
L 85.725945 151.2 
L 86.4 150.525945 
L 87.165945 150.48 
L 87.84 149.805945 
L 88.605945 149.76 
L 89.28 149.085945 
L 90.045945 149.04 
L 90.72 148.365945 
L 91.485945 148.32 
L 92.16 147.645945 
L 92.925945 147.6 
L 93.6 146.925945 
L 94.365945 146.88 
L 95.76 145.485945 
L 96.525945 145.44 
L 97.2 144.765945 
L 97.965945 144.72 
L 99.36 143.325945 
L 100.125945 143.28 
L 100.8 142.605945 
L 101.565945 142.56 
L 102.24 141.885945 
L 103.725945 141.84 
L 104.4 141.165945 
L 108.045945 141.12 
L 108.72 140.445945 
L 109.44 141.165945 
L 112.32 141.165945 
L 113.04 141.885945 
L 114.48 141.885945 
L 115.2 142.605945 
L 116.64 142.605945 
L 117.36 143.325945 
L 118.08 143.325945 
L 118.8 144.045945 
L 119.52 144.045945 
L 120.24 144.765945 
L 121.68 144.765945 
L 122.4 145.485945 
L 123.12 145.485945 
L 123.84 146.205945 
L 125.28 146.205945 
L 126 146.925945 
L 127.44 146.925945 
L 128.16 147.645945 
L 128.88 147.645945 
L 129.6 148.365945 
L 130.32 148.365945 
L 131.04 149.085945 
L 131.76 149.085945 
L 132.48 149.805945 
L 133.2 149.805945 
L 134.64 151.245945 
L 135.36 151.245945 
L 137.52 153.405945 
L 138.24 153.405945 
L 139.634055 154.8 
L 139.68 155.565945 
L 140.4 156.285945 
L 141.12 156.285945 
L 150.434055 165.6 
L 150.48 166.365945 
L 154.754055 170.64 
L 154.8 171.405945 
L 157.634055 174.24 
L 157.68 175.005945 
L 161.234055 178.56 
L 161.28 179.325945 
L 168.48 186.525945 
L 169.2 186.525945 
L 170.64 187.965945 
L 171.36 187.965945 
L 172.8 189.405945 
L 173.52 189.405945 
L 174.24 190.125945 
L 174.96 190.125945 
L 176.4 191.565945 
L 177.12 191.565945 
L 179.28 193.725945 
L 180 193.725945 
L 184.274055 198 
L 184.32 198.765945 
L 185.714055 200.16 
L 185.76 200.925945 
L 186.434055 201.6 
L 186.48 202.365945 
L 187.154055 203.04 
L 187.2 204.525945 
L 187.874055 205.2 
L 187.92 206.685945 
L 188.594055 207.36 
L 188.594055 368.64 
L 188.594055 368.64 
" clip-path="url(#p70298523bc)" style="fill: none; stroke: #c8d8e8; stroke-width: 0.5"/>
    <path d="M 0 131.705913 
L 2.88 131.705913 
L 3.6 131.012967 
L 5.76 130.985913 
L 7.2 130.265913 
L 7.92 130.265913 
L 8.64 129.572967 
L 9.36 129.545913 
L 10.08 128.852967 
L 10.8 128.825913 
L 13.68 127.385913 
L 14.4 126.665913 
L 15.84 125.945913 
L 16.56 125.225913 
L 18 124.505913 
L 24.425913 118.08 
L 24.48 117.305913 
L 25.145913 116.64 
L 25.2 115.865913 
L 25.865913 115.2 
L 25.92 114.425913 
L 26.585913 113.76 
L 26.64 112.985913 
L 27.305913 112.32 
L 27.36 110.825913 
L 28.025913 110.16 
L 28.08 109.385913 
L 28.745913 108.72 
L 28.8 107.225913 
L 29.465913 106.56 
L 29.52 105.785913 
L 30.905913 104.4 
L 30.96 103.625913 
L 31.68 102.905913 
L 32.4 102.905913 
L 33.84 101.465913 
L 35.28 101.465913 
L 36 100.745913 
L 38.16 100.745913 
L 38.88 100.025913 
L 43.2 100.025913 
L 43.92 99.305913 
L 46.08 99.305913 
L 46.8 98.585913 
L 48.24 98.585913 
L 48.96 97.865913 
L 49.68 97.865913 
L 52.505913 95.04 
L 52.56 94.265913 
L 53.225913 93.6 
L 53.28 92.825913 
L 53.945913 92.16 
L 54 89.945913 
L 54.665913 88.56 
L 54.72 74.105913 
L 55.385913 73.44 
L 55.44 71.945913 
L 56.105913 71.28 
L 56.16 70.505913 
L 58.32 68.345913 
L 59.04 68.345913 
L 59.76 67.625913 
L 61.92 67.625913 
L 62.64 66.932967 
L 65.52 66.905913 
L 66.24 66.572822 
L 66.96 66.572822 
L 67.68 66.212967 
L 70.56 66.185913 
L 72 65.492967 
L 74.88 65.465913 
L 75.6 64.772967 
L 76.32 64.745913 
L 77.76 64.052967 
L 78.48 64.025913 
L 81.36 62.585913 
L 82.08 62.585913 
L 82.8 61.892967 
L 85.68 60.425913 
L 86.4 59.732967 
L 87.84 59.705913 
L 88.56 58.985913 
L 90 58.265913 
L 90.72 58.265913 
L 92.16 57.572967 
L 96.534087 57.6 
L 97.2 58.265913 
L 97.974087 58.32 
L 99.36 59.705913 
L 100.134087 59.76 
L 100.134087 60.48 
L 101.574087 61.92 
L 101.574087 62.64 
L 102.294087 63.36 
L 102.294087 64.8 
L 103.014087 65.52 
L 103.014087 66.24 
L 103.734087 66.96 
L 103.734087 67.68 
L 104.454087 68.4 
L 104.454087 69.12 
L 105.147033 69.84 
L 105.174087 71.28 
L 106.614087 72.72 
L 106.614087 73.44 
L 108.72 75.545913 
L 109.494087 75.6 
L 111.6 77.705913 
L 112.374087 77.76 
L 113.04 78.425913 
L 113.814087 78.48 
L 114.48 79.145913 
L 115.974087 79.2 
L 116.64 79.865913 
L 117.414087 79.92 
L 118.08 80.585913 
L 119.574087 80.64 
L 120.24 81.305913 
L 121.014087 81.36 
L 121.68 82.025913 
L 123.174087 82.08 
L 124.56 83.465913 
L 125.334087 83.52 
L 126 84.185913 
L 126.774087 84.24 
L 131.094087 88.56 
L 131.094087 89.28 
L 133.974087 92.16 
L 133.974087 92.88 
L 135.414087 94.32 
L 135.414087 95.04 
L 136.854087 96.48 
L 136.854087 97.2 
L 138.294087 98.64 
L 138.294087 99.36 
L 139.734087 100.8 
L 139.734087 101.52 
L 140.454087 102.24 
L 140.454087 102.96 
L 141.894087 104.4 
L 141.894087 105.12 
L 143.334087 106.56 
L 143.334087 107.28 
L 145.494087 109.44 
L 145.494087 110.16 
L 149.094087 113.76 
L 149.094087 114.48 
L 150.48 115.865913 
L 151.254087 115.92 
L 154.08 118.745913 
L 154.854087 118.8 
L 157.68 121.625913 
L 158.454087 121.68 
L 159.84 123.065913 
L 160.614087 123.12 
L 161.28 123.785913 
L 162.054087 123.84 
L 163.44 125.225913 
L 164.214087 125.28 
L 165.6 126.665913 
L 166.374087 126.72 
L 167.04 127.385913 
L 167.814087 127.44 
L 168.48 128.105913 
L 169.254087 128.16 
L 169.92 128.825913 
L 170.694087 128.88 
L 172.08 130.265913 
L 172.854087 130.32 
L 173.52 130.985913 
L 174.294087 131.04 
L 175.68 132.425913 
L 176.454087 132.48 
L 177.84 133.865913 
L 178.614087 133.92 
L 180 135.305913 
L 180.774087 135.36 
L 182.88 137.465913 
L 183.654087 137.52 
L 187.254087 141.12 
L 187.254087 141.84 
L 190.134087 144.72 
L 190.134087 145.44 
L 192.294087 147.6 
L 192.294087 148.32 
L 195.174087 151.2 
L 195.174087 151.92 
L 197.334087 154.08 
L 197.334087 154.8 
L 198.774087 156.24 
L 198.774087 156.96 
L 200.934087 159.12 
L 200.934087 159.84 
L 203.094087 162 
L 203.094087 162.72 
L 204.534087 164.16 
L 204.534087 164.88 
L 205.974087 166.32 
L 205.974087 167.04 
L 206.694087 167.76 
L 207.414087 169.2 
L 208.134087 169.92 
L 208.134087 170.64 
L 209.547033 172.08 
L 209.574087 172.8 
L 210.987033 174.24 
L 211.014087 174.96 
L 211.734087 175.68 
L 211.734087 176.4 
L 213.174087 177.84 
L 213.174087 178.56 
L 214.587033 180 
L 214.614087 180.72 
L 216.054087 182.16 
L 216.054087 182.88 
L 217.494087 184.32 
L 218.214087 185.76 
L 218.934087 186.48 
L 219.654087 187.92 
L 221.067033 189.36 
L 221.094087 190.08 
L 222.534087 191.52 
L 222.534087 192.24 
L 223.974087 193.68 
L 223.974087 194.4 
L 224.694087 195.12 
L 225.414087 196.56 
L 226.107033 197.28 
L 226.134087 198 
L 226.854087 198.72 
L 226.854087 199.44 
L 227.547033 200.16 
L 227.574087 201.6 
L 228.267033 202.32 
L 228.294087 203.76 
L 229.014087 205.2 
L 229.014087 208.08 
L 229.707033 208.8 
L 229.68 216.774087 
L 229.347178 217.44 
L 229.347178 368.64 
L 229.347178 368.64 
" clip-path="url(#p70298523bc)" style="fill: none; stroke: #c8d8e8; stroke-width: 0.5"/>
    <path d="M 367.92 79.354576 
L 366.48 79.354576 
L 365.76 78.634576 
L 363.6 78.634576 
L 362.88 77.914576 
L 361.44 77.914576 
L 360.72 77.194576 
L 358.56 77.194576 
L 357.84 76.474576 
L 357.12 76.474576 
L 356.4 75.754576 
L 354.96 75.754576 
L 354.24 75.034576 
L 353.52 75.034576 
L 352.8 74.314576 
L 352.08 74.314576 
L 350.64 72.874576 
L 349.92 72.874576 
L 349.2 72.154576 
L 348.48 72.154576 
L 346.32 69.994576 
L 345.6 69.994576 
L 343.44 67.834576 
L 342.72 67.834576 
L 342.393078 67.507654 
M 326.725424 52.942708 
L 326.725424 51.84 
L 326.005424 51.12 
L 326.005424 50.4 
L 324.565424 48.96 
L 324.565424 46.08 
L 323.125424 44.64 
L 323.125424 26.64 
L 322.405424 25.92 
L 322.405424 24.48 
L 321.685424 23.76 
L 321.685424 20.88 
L 320.965424 20.16 
L 320.965424 18.72 
L 320.245424 18 
L 320.245424 15.12 
L 319.525424 14.4 
L 319.525424 12.24 
L 318.805424 11.52 
L 318.805424 9.36 
L 318.085424 8.64 
L 318.085424 5.76 
L 317.365424 5.04 
L 317.365424 0.72 
M 0 71.125424 
L 2.88 71.125424 
L 3.6 70.405424 
L 5.04 70.405424 
L 5.76 69.685424 
L 7.92 69.685424 
L 8.64 68.965424 
L 9.36 68.965424 
L 10.08 68.245424 
L 10.8 68.245424 
L 11.52 67.525424 
L 12.96 67.525424 
L 13.68 66.805424 
L 14.4 66.805424 
L 19.285424 61.92 
L 19.44 61.045424 
L 20.725424 59.76 
L 20.725424 59.04 
L 20.88 58.885424 
L 21.445424 57.6 
L 21.6 56.725424 
L 22.165424 55.44 
L 22.242712 54 
L 22.885424 52.56 
L 22.962712 51.12 
L 23.322826 50.4 
L 23.322826 49.68 
L 23.682712 48.96 
L 23.76 48.085424 
L 24.402712 46.8 
L 24.48 45.925424 
L 25.045424 45.36 
L 25.2 44.485424 
L 25.92 43.045424 
L 26.64 42.325424 
L 27.36 40.885424 
L 28.08 40.165424 
L 28.8 38.725424 
L 32.965424 34.56 
L 32.965424 33.84 
L 35.125424 31.68 
L 35.125424 30.96 
L 35.845424 30.24 
L 35.845424 29.52 
L 36.565424 28.8 
L 36.565424 27.36 
L 37.285424 26.64 
L 37.285424 23.853889 
M 27.927356 5.058002 
L 27.925424 4.32 
L 27.282712 2.88 
L 27.205424 0.72 
M 85.834576 0.72 
L 85.834576 1.44 
L 86.554576 2.16 
L 86.554576 5.04 
L 87.994576 6.48 
L 87.994576 7.92 
L 89.434576 9.36 
L 89.434576 10.08 
L 90.874576 11.52 
L 90.874576 12.24 
L 91.594576 12.96 
L 91.594576 13.68 
L 93.754576 15.84 
L 93.754576 16.56 
L 97.92 20.725424 
L 98.64 20.725424 
L 100.08 22.165424 
L 101.52 22.165424 
L 102.24 22.885424 
L 103.68 22.885424 
L 104.4 23.605424 
L 110.88 23.605424 
L 111.6 22.885424 
L 113.76 22.885424 
L 114.48 22.165424 
L 115.1455 22.165424 
M 128.005424 6.047636 
L 128.005424 3.6 
L 128.16 3.445424 
L 128.88 3.445424 
L 129.445424 2.88 
L 129.445424 2.16 
L 130.165424 1.44 
L 130.165424 0.72 
M 138.394576 0.72 
L 138.394576 2.16 
L 139.68 3.445424 
L 140.4 3.445424 
L 140.554576 3.6 
L 140.554576 4.32 
L 141.274576 5.04 
L 141.274576 7.2 
L 141.994576 7.92 
L 141.994576 8.64 
L 143.434576 10.08 
L 143.434576 10.8 
L 144.874576 12.24 
L 144.874576 12.96 
L 147.034576 15.12 
L 147.034576 15.84 
L 150.634576 19.44 
L 150.634576 20.16 
L 154.08 23.605424 
L 154.8 23.605424 
L 160.56 29.365424 
L 161.28 29.365424 
L 163.44 31.525424 
L 164.16 31.525424 
L 165.6 32.965424 
L 166.32 32.965424 
L 168.48 35.125424 
L 169.2 35.125424 
L 171.36 37.285424 
L 172.08 37.285424 
L 174.24 39.445424 
L 174.96 39.445424 
L 178.56 43.045424 
L 179.28 43.045424 
L 180.154576 43.92 
L 180.154576 44.64 
L 180.72 45.205424 
L 181.44 45.205424 
L 189.36 53.125424 
L 190.08 53.125424 
L 192.24 55.285424 
L 192.96 55.285424 
L 195.12 57.445424 
L 196.56 57.445424 
L 197.28 58.165424 
L 198 58.165424 
L 198.72 58.885424 
L 204.48 58.885424 
L 205.2 58.165424 
L 205.92 58.165424 
L 209.365424 54.72 
L 209.365424 54 
L 210.805424 52.56 
L 210.805424 51.12 
L 211.525424 50.4 
L 211.525424 49.68 
L 212.245424 48.96 
L 212.245424 48.24 
L 212.965424 47.52 
L 212.965424 46.8 
L 213.685424 46.08 
L 213.685424 45.36 
L 214.405424 44.64 
L 214.405424 43.92 
L 215.125424 43.2 
L 215.125424 42.48 
L 215.845424 41.76 
L 215.845424 41.04 
L 216.565424 40.32 
L 216.565424 39.6 
L 217.285424 38.88 
L 217.285424 37.44 
L 218.005424 36.72 
L 218.005424 36 
L 218.725424 35.28 
L 218.725424 33.84 
L 219.445424 33.12 
L 219.445424 31.68 
L 220.165424 30.96 
L 220.165424 30.24 
L 220.885424 29.52 
L 220.885424 28.08 
L 221.605424 27.36 
L 221.605424 25.92 
L 224.64 22.885424 
L 228.24 22.885424 
L 228.96 23.605424 
L 231.12 23.605424 
L 231.84 24.325424 
L 232.56 24.325424 
L 233.28 25.045424 
L 234.72 25.045424 
L 236.88 27.205424 
L 237.6 27.205424 
L 238.474576 28.08 
L 238.474576 28.8 
L 239.76 30.085424 
L 240.48 30.085424 
L 240.634576 30.24 
L 240.634576 32.4 
L 241.354576 33.12 
L 241.354576 36 
L 240.634576 36.72 
L 240.634576 37.44 
L 239.914576 38.16 
L 239.914576 39.6 
L 239.194576 40.32 
L 239.194576 41.04 
L 238.474576 41.76 
L 238.474576 49.68 
L 239.914576 51.12 
L 239.914576 51.84 
L 241.354576 53.28 
L 241.354576 54.72 
L 243.514576 56.88 
L 243.514576 57.6 
L 244.08 58.165424 
L 244.8 58.165424 
L 244.954576 58.32 
L 244.954576 59.04 
L 245.52 59.605424 
L 246.24 59.605424 
L 246.394576 59.76 
L 246.394576 60.48 
L 246.96 61.045424 
L 247.68 61.045424 
L 252.874576 66.24 
L 252.874576 66.96 
L 254.314576 68.4 
L 254.314576 69.12 
L 255.754576 70.56 
L 255.754576 71.28 
L 256.474576 72 
L 256.474576 72.72 
L 257.194576 73.44 
L 257.194576 74.88 
L 257.914576 75.6 
L 257.914576 76.32 
L 259.354576 77.76 
L 259.354576 82.8 
L 260.074576 83.52 
L 260.074576 110.88 
L 260.794576 111.6 
L 260.794576 112.32 
L 261.514576 113.04 
L 261.514576 113.76 
L 262.234576 114.48 
L 262.234576 116.64 
L 262.954576 117.36 
L 262.954576 118.08 
L 263.674576 118.8 
L 263.674576 119.52 
L 265.114576 120.96 
L 265.114576 121.68 
L 265.834576 122.4 
L 265.834576 123.12 
L 266.554576 123.84 
L 266.554576 124.56 
L 267.274576 125.28 
L 267.274576 126 
L 267.994576 126.72 
L 267.994576 127.44 
L 270.154576 129.6 
L 270.154576 130.32 
L 271.594576 131.76 
L 271.594576 132.48 
L 272.314576 133.2 
L 272.314576 133.92 
L 273.754576 135.36 
L 273.754576 136.08 
L 274.474576 136.8 
L 274.474576 138.24 
L 275.194576 138.96 
L 275.194576 139.68 
L 275.914576 140.4 
L 275.914576 141.12 
L 276.634576 141.84 
L 276.634576 143.28 
L 277.354576 144 
L 277.354576 146.16 
L 278.074576 146.88 
L 278.074576 150.48 
L 278.794576 151.2 
L 278.794576 153.36 
L 279.514576 154.08 
L 279.514576 155.52 
L 280.234576 156.24 
L 280.234576 157.68 
L 280.954576 158.4 
L 280.954576 159.84 
L 281.674576 160.56 
L 281.674576 162 
L 282.394576 162.72 
L 282.394576 164.16 
L 283.114576 164.88 
L 283.114576 166.32 
L 283.834576 167.04 
L 283.834576 168.48 
L 284.554576 169.2 
L 284.554576 169.92 
L 285.274576 170.64 
L 285.274576 172.08 
L 285.994576 172.8 
L 285.994576 174.96 
L 286.714576 175.68 
L 286.714576 177.12 
L 287.434576 177.84 
L 287.434576 180 
L 288.154576 180.72 
L 288.154576 182.16 
L 288.874576 182.88 
L 288.874576 185.04 
L 289.594576 185.76 
L 289.594576 187.2 
L 290.314576 187.92 
L 290.314576 189.36 
L 291.034576 190.08 
L 291.034576 190.8 
L 291.754576 191.52 
L 291.754576 192.24 
L 292.474576 192.96 
L 292.474576 194.4 
L 293.194576 195.12 
L 293.194576 196.56 
L 293.914576 197.28 
L 293.914576 198 
L 294.634576 198.72 
L 294.634576 200.16 
L 295.354576 200.88 
L 295.354576 203.04 
L 296.074576 203.76 
L 296.074576 205.2 
L 296.794576 205.92 
L 296.794576 213.12 
L 296.074576 213.84 
L 296.074576 243.72 
M 296.074576 266.04 
L 296.074576 368.64 
L 296.074576 368.64 
" clip-path="url(#p70298523bc)" style="fill: none; stroke: #c8d8e8; stroke-width: 0.5"/>
    <path clip-path="url(#p70298523bc)" style="fill: none; stroke: #c8d8e8; stroke-width: 0.5"/>
    <path clip-path="url(#p70298523bc)" style="fill: none; stroke: #c8d8e8; stroke-width: 0.5"/>
    <path clip-path="url(#p70298523bc)" style="fill: none; stroke: #c8d8e8; stroke-width: 0.5"/>
    <path clip-path="url(#p70298523bc)" style="fill: none; stroke: #c8d8e8; stroke-width: 0.5"/>
    <path clip-path="url(#p70298523bc)" style="fill: none; stroke: #c8d8e8; stroke-width: 0.5"/>
    <path clip-path="url(#p70298523bc)" style="fill: none; stroke: #c8d8e8; stroke-width: 0.5"/>
    <path clip-path="url(#p70298523bc)" style="fill: none; stroke: #c8d8e8; stroke-width: 0.5"/>
    <path clip-path="url(#p70298523bc)" style="fill: none; stroke: #c8d8e8; stroke-width: 0.5"/>
    <path clip-path="url(#p70298523bc)" style="fill: none; stroke: #c8d8e8; stroke-width: 0.5"/>
    <path clip-path="url(#p70298523bc)" style="fill: none; stroke: #c8d8e8; stroke-width: 0.5"/>
   </g>
   <g id="text_1">
    <g clip-path="url(#p70298523bc)">
     <!-- 1010 -->
     <g style="fill: #c8d8e8" transform="translate(327.366097 56.639851) rotate(-317.01267) scale(0.06 -0.06)">
      <defs>
       <path id="DejaVuSans-31" d="M 794 531 
L 1825 531 
L 1825 4091 
L 703 3866 
L 703 4441 
L 1819 4666 
L 2450 4666 
L 2450 531 
L 3481 531 
L 3481 0 
L 794 0 
L 794 531 
z
" transform="scale(0.015625)"/>
       <path id="DejaVuSans-30" d="M 2034 4250 
Q 1547 4250 1301 3770 
Q 1056 3291 1056 2328 
Q 1056 1369 1301 889 
Q 1547 409 2034 409 
Q 2525 409 2770 889 
Q 3016 1369 3016 2328 
Q 3016 3291 2770 3770 
Q 2525 4250 2034 4250 
z
M 2034 4750 
Q 2819 4750 3233 4129 
Q 3647 3509 3647 2328 
Q 3647 1150 3233 529 
Q 2819 -91 2034 -91 
Q 1250 -91 836 529 
Q 422 1150 422 2328 
Q 422 3509 836 4129 
Q 1250 4750 2034 4750 
z
" transform="scale(0.015625)"/>
      </defs>
      <use xlink:href="#DejaVuSans-31"/>
      <use xlink:href="#DejaVuSans-30" transform="translate(63.623047 0)"/>
      <use xlink:href="#DejaVuSans-31" transform="translate(127.246094 0)"/>
      <use xlink:href="#DejaVuSans-30" transform="translate(190.869141 0)"/>
     </g>
    </g>
   </g>
   <g id="text_2">
    <g clip-path="url(#p70298523bc)">
     <!-- 1010 -->
     <g style="fill: #c8d8e8" transform="translate(27.627427 8.695606) rotate(-300.86459) scale(0.06 -0.06)">
      <use xlink:href="#DejaVuSans-31"/>
      <use xlink:href="#DejaVuSans-30" transform="translate(63.623047 0)"/>
      <use xlink:href="#DejaVuSans-31" transform="translate(127.246094 0)"/>
      <use xlink:href="#DejaVuSans-30" transform="translate(190.869141 0)"/>
     </g>
    </g>
   </g>
   <g id="text_3">
    <g clip-path="url(#p70298523bc)">
     <!-- 1010 -->
     <g style="fill: #c8d8e8" transform="translate(119.584281 22.162882) rotate(-52.120318) scale(0.06 -0.06)">
      <use xlink:href="#DejaVuSans-31"/>
      <use xlink:href="#DejaVuSans-30" transform="translate(63.623047 0)"/>
      <use xlink:href="#DejaVuSans-31" transform="translate(127.246094 0)"/>
      <use xlink:href="#DejaVuSans-30" transform="translate(190.869141 0)"/>
     </g>
    </g>
   </g>
   <g id="text_4">
    <g clip-path="url(#p70298523bc)">
     <!-- 1010 -->
     <g style="fill: #c8d8e8" transform="translate(294.418951 247.245) rotate(-270) scale(0.06 -0.06)">
      <use xlink:href="#DejaVuSans-31"/>
      <use xlink:href="#DejaVuSans-30" transform="translate(63.623047 0)"/>
      <use xlink:href="#DejaVuSans-31" transform="translate(127.246094 0)"/>
      <use xlink:href="#DejaVuSans-30" transform="translate(190.869141 0)"/>
     </g>
    </g>
   </g>
  </g>
 </g>
 <defs>
  <clipPath id="p70298523bc">
   <rect x="0" y="0" width="368.64" height="368.64"/>
  </clipPath>
 </defs>
</svg>
