<?xml version="1.0" encoding="utf-8" standalone="no"?>
<!DOCTYPE svg PUBLIC "-//W3C//DTD SVG 1.1//EN"
  "http://www.w3.org/Graphics/SVG/1.1/DTD/svg11.dtd">
<svg preserveAspectRatio="none" xmlns:xlink="http://www.w3.org/1999/xlink" width="100%" height="100%" viewBox="0 0 368.64 368.64" xmlns="http://www.w3.org/2000/svg" version="1.1">
 <metadata>
  <rdf:RDF xmlns:dc="http://purl.org/dc/elements/1.1/" xmlns:cc="http://creativecommons.org/ns#" xmlns:rdf="http://www.w3.org/1999/02/22-rdf-syntax-ns#">
   <cc:Work>
    <dc:type rdf:resource="http://purl.org/dc/dcmitype/StillImage"/>
    <dc:date>2026-03-23T10:01:45.761528</dc:date>
    <dc:format>image/svg+xml</dc:format>
    <dc:creator>
     <cc:Agent>
      <dc:title>Matplotlib v3.10.1, https://matplotlib.org/</dc:title>
     </cc:Agent>
    </dc:creator>
   </cc:Work>
  </rdf:RDF>
 </metadata>
 <defs>
  <style type="text/css">*{stroke-linejoin: round; stroke-linecap: butt}</style>
 </defs>
 <g id="figure_1">
  <g id="patch_1">
   <path d="M 0 368.64 
L 368.64 368.64 
L 368.64 0 
L 0 0 
L 0 368.64 
z
" style="fill: none; opacity: 0"/>
  </g>
  <g id="axes_1">
   <g id="QuadContourSet_1">
    <path clip-path="url(#p9e7668979f)" style="fill: none; stroke: #c8d8e8; stroke-width: 0.5"/>
    <path clip-path="url(#p9e7668979f)" style="fill: none; stroke: #c8d8e8; stroke-width: 0.5"/>
    <path clip-path="url(#p9e7668979f)" style="fill: none; stroke: #c8d8e8; stroke-width: 0.5"/>
    <path clip-path="url(#p9e7668979f)" style="fill: none; stroke: #c8d8e8; stroke-width: 0.5"/>
    <path clip-path="url(#p9e7668979f)" style="fill: none; stroke: #c8d8e8; stroke-width: 0.5"/>
    <path clip-path="url(#p9e7668979f)" style="fill: none; stroke: #c8d8e8; stroke-width: 0.5"/>
    <path clip-path="url(#p9e7668979f)" style="fill: none; stroke: #c8d8e8; stroke-width: 0.5"/>
    <path clip-path="url(#p9e7668979f)" style="fill: none; stroke: #c8d8e8; stroke-width: 0.5"/>
    <path clip-path="url(#p9e7668979f)" style="fill: none; stroke: #c8d8e8; stroke-width: 0.5"/>
    <path clip-path="url(#p9e7668979f)" style="fill: none; stroke: #c8d8e8; stroke-width: 0.5"/>
    <path d="M 17.745483 368.64 
L 17.745483 216 
L 17.025483 215.28 
L 17.025483 210.96 
L 17.745483 210.24 
L 17.745483 206.64 
L 18.465483 205.92 
L 18.465483 204.48 
L 19.185483 203.76 
L 19.185483 202.32 
L 19.905483 201.6 
L 19.905483 200.88 
L 21.345483 199.44 
L 21.345483 198.72 
L 22.065483 198 
L 22.065483 197.28 
L 24.945483 194.4 
L 24.945483 193.68 
L 29.52 189.105483 
L 30.24 189.105483 
L 32.4 186.945483 
L 33.12 186.945483 
L 33.84 186.225483 
L 34.56 186.225483 
L 36 184.785483 
L 36.72 184.785483 
L 37.44 184.065483 
L 38.16 184.065483 
L 39.6 182.625483 
L 41.04 182.625483 
L 42.48 181.185483 
L 43.2 181.185483 
L 44.64 179.745483 
L 45.36 179.745483 
L 47.52 177.585483 
L 48.24 177.585483 
L 52.305483 173.52 
L 52.305483 172.8 
L 53.745483 171.36 
L 53.745483 170.64 
L 55.185483 169.2 
L 55.185483 167.76 
L 55.905483 167.04 
L 55.905483 166.32 
L 56.625483 165.6 
L 56.625483 154.08 
L 57.345483 153.36 
L 57.345483 152.64 
L 58.785483 151.2 
L 58.785483 150.48 
L 59.76 149.505483 
L 60.48 149.505483 
L 61.2 148.785483 
L 62.64 148.785483 
L 63.36 148.065483 
L 65.52 148.065483 
L 66.24 148.785483 
L 66.96 148.065483 
L 69.12 148.065483 
L 69.84 148.785483 
L 75.6 148.785483 
L 76.32 149.505483 
L 77.04 148.785483 
L 77.76 149.505483 
L 85.68 149.505483 
L 86.4 150.225483 
L 90 150.225483 
L 90.72 149.505483 
L 93.6 149.505483 
L 94.32 148.785483 
L 95.04 148.785483 
L 95.76 148.065483 
L 96.48 148.065483 
L 97.2 147.345483 
L 97.92 147.345483 
L 100.545483 144.72 
L 100.545483 144 
L 101.265483 143.28 
L 101.265483 142.56 
L 101.985483 141.84 
L 101.985483 140.4 
L 102.705483 139.68 
L 102.705483 138.24 
L 103.425483 137.52 
L 103.425483 135.36 
L 104.145483 134.64 
L 104.145483 132.48 
L 104.865483 131.76 
L 104.865483 130.32 
L 105.12 129.345483 
L 105.585483 128.88 
L 105.585483 127.44 
L 106.305483 126.72 
L 106.305483 126 
L 107.025483 125.28 
L 107.025483 123.84 
L 107.745483 123.12 
L 107.745483 122.4 
L 108.465483 121.68 
L 108.465483 120.24 
L 109.185483 119.52 
L 109.185483 118.8 
L 109.905483 118.08 
L 109.905483 117.36 
L 111.345483 115.92 
L 111.345483 115.2 
L 113.04 113.505483 
L 113.76 113.505483 
L 114.48 112.785483 
L 115.92 112.785483 
L 116.64 112.065483 
L 117.36 112.065483 
L 118.08 112.785483 
L 120.24 112.785483 
L 121.68 114.225483 
L 122.4 114.225483 
L 123.12 114.945483 
L 123.84 114.945483 
L 127.44 118.545483 
L 128.16 118.545483 
L 133.92 124.305483 
L 134.64 124.305483 
L 137.52 127.185483 
L 138.24 127.185483 
L 141.12 130.065483 
L 141.84 130.065483 
L 146.16 134.385483 
L 146.88 134.385483 
L 148.574517 136.08 
L 148.574517 136.8 
L 153.614517 141.84 
L 153.614517 142.56 
L 164.88 153.825483 
L 165.6 153.825483 
L 167.76 155.985483 
L 168.48 155.985483 
L 169.92 157.425483 
L 170.64 157.425483 
L 172.8 159.585483 
L 173.52 159.585483 
L 174.96 161.025483 
L 175.68 161.025483 
L 176.4 161.745483 
L 177.12 161.745483 
L 177.84 162.465483 
L 178.56 162.465483 
L 180.72 164.625483 
L 181.44 164.625483 
L 185.76 168.945483 
L 186.48 168.945483 
L 188.894517 171.36 
L 188.894517 172.08 
L 192.494517 175.68 
L 192.494517 176.4 
L 194.527258 178.56 
L 194.654517 179.28 
L 196.094517 180.72 
L 196.094517 181.44 
L 197.407258 182.88 
L 197.534517 183.6 
L 198.254517 184.32 
L 198.72 185.505483 
L 199.694517 186.48 
L 200.16 187.665483 
L 200.414517 187.92 
L 200.88 189.105483 
L 201.727258 190.08 
L 201.854517 190.8 
L 202.574517 191.52 
L 202.574517 192.24 
L 203.294517 192.96 
L 203.294517 193.68 
L 204.014517 194.4 
L 204.014517 195.12 
L 204.607258 195.84 
L 204.734517 196.56 
L 205.327258 197.28 
L 205.454517 198 
L 205.454517 198.72 
L 206.047258 199.44 
L 206.407258 200.88 
L 206.767258 201.6 
L 206.894517 202.32 
L 206.894517 203.76 
L 207.36 204.945483 
L 207.614517 205.2 
L 207.614517 208.08 
L 208.08 209.265483 
L 208.207258 209.52 
L 208.207258 216.72 
L 207.847258 217.44 
L 207.847258 368.64 
L 207.847258 368.64 
" clip-path="url(#p9e7668979f)" style="fill: none; stroke: #c8d8e8; stroke-width: 0.5"/>
    <path d="M 0 150.689835 
L 0.72 149.969835 
L 3.6 149.969835 
L 4.32 149.249835 
L 5.76 149.249835 
L 7.2 147.809835 
L 7.92 147.809835 
L 8.64 147.089835 
L 9.36 147.089835 
L 15.944918 140.4 
L 16.049835 139.68 
L 17.384918 138.24 
L 18.209835 136.8 
L 18.824918 136.08 
L 18.929835 135.36 
L 19.544918 134.64 
L 21.809835 130.32 
L 22.424918 129.6 
L 22.529835 128.88 
L 23.04 127.649835 
L 23.249835 127.44 
L 23.76 126.209835 
L 23.969835 126 
L 24.48 124.769835 
L 24.689835 124.56 
L 25.304918 123.12 
L 25.664918 122.4 
L 25.664918 121.68 
L 26.744918 119.52 
L 26.849835 118.8 
L 28.184918 115.2 
L 28.289835 113.76 
L 28.544918 113.04 
L 28.544918 112.32 
L 28.904918 111.6 
L 29.009835 109.44 
L 29.624918 108 
L 29.729835 105.84 
L 30.449835 103.68 
L 30.449835 102.96 
L 31.169835 102.24 
L 31.169835 101.52 
L 31.889835 100.8 
L 31.889835 100.08 
L 36.209835 95.76 
L 37.649835 95.04 
L 38.16 94.529835 
L 38.88 94.529835 
L 39.809835 93.6 
L 41.249835 92.88 
L 41.76 92.369835 
L 42.48 92.369835 
L 43.2 91.649835 
L 43.92 91.649835 
L 45.36 90.209835 
L 46.08 90.209835 
L 46.8 89.489835 
L 47.52 89.489835 
L 47.624918 89.28 
L 47.729835 88.56 
L 48.24 88.049835 
L 48.96 88.049835 
L 49.889835 87.12 
L 49.889835 86.4 
L 52.049835 84.24 
L 52.049835 83.52 
L 52.664918 82.8 
L 52.769835 81.36 
L 52.769835 80.64 
L 53.024918 79.92 
L 53.024918 79.2 
L 53.384918 78.48 
L 53.28 74.670165 
L 53.024918 74.16 
L 53.024918 66.24 
L 53.384918 65.52 
L 53.489835 64.08 
L 54.104918 62.64 
L 54.824918 61.2 
L 54.929835 60.48 
L 56.264918 59.04 
L 57.089835 57.6 
L 58.529835 56.16 
L 59.04 55.904918 
L 59.76 55.184918 
L 60.689835 54.72 
L 61.409835 54 
L 62.744918 53.28 
L 63.569835 52.56 
L 66.449835 51.12 
L 67.169835 50.4 
L 71.489835 48.24 
L 72.209835 47.52 
L 73.649835 46.8 
L 74.16 46.289835 
L 74.984918 46.08 
L 76.32 44.849835 
L 77.249835 44.64 
L 77.969835 43.92 
L 79.409835 43.2 
L 80.129835 42.48 
L 84.24 40.529835 
L 85.169835 40.32 
L 86.4 39.809835 
L 87.329835 39.6 
L 87.84 39.089835 
L 90 38.984918 
L 91.44 38.369835 
L 95.76 38.264918 
L 96.48 37.904918 
L 102.24 37.904918 
L 102.96 37.649835 
L 104.4 37.544918 
L 113.969835 37.44 
L 114.48 37.184918 
L 116.64 37.184918 
L 117.36 36.929835 
L 120.96 36.824918 
L 121.68 36.464918 
L 123.12 36.464918 
L 123.84 36.209835 
L 128.88 36.209835 
L 129.6 36.929835 
L 131.76 36.929835 
L 132.48 37.649835 
L 133.2 37.649835 
L 133.92 38.369835 
L 134.64 38.369835 
L 140.910165 44.64 
L 140.910165 45.36 
L 143.070165 47.52 
L 143.070165 48.24 
L 145.950165 51.12 
L 145.950165 51.84 
L 149.550165 55.44 
L 149.550165 56.16 
L 161.070165 67.68 
L 161.070165 68.4 
L 161.28 68.609835 
L 162 68.609835 
L 162.510165 69.12 
L 162.510165 69.84 
L 162.72 70.049835 
L 163.44 70.049835 
L 163.950165 70.56 
L 163.950165 71.28 
L 164.670165 72 
L 164.670165 72.72 
L 166.110165 74.16 
L 166.110165 74.88 
L 166.830165 75.6 
L 166.830165 76.32 
L 167.550165 77.04 
L 167.550165 79.2 
L 168.270165 79.92 
L 168.270165 82.8 
L 168.990165 83.52 
L 168.990165 86.4 
L 168.270165 87.12 
L 168.270165 89.28 
L 168.990165 90 
L 168.990165 94.32 
L 169.710165 95.04 
L 169.710165 95.76 
L 173.52 99.569835 
L 174.24 99.569835 
L 174.96 100.289835 
L 176.4 100.289835 
L 177.12 101.009835 
L 180 101.009835 
L 180.72 101.729835 
L 184.32 101.729835 
L 185.04 102.449835 
L 187.92 102.449835 
L 188.64 103.169835 
L 191.52 103.169835 
L 192.24 103.889835 
L 193.68 103.889835 
L 194.4 104.609835 
L 195.12 104.609835 
L 195.84 105.329835 
L 196.56 105.329835 
L 197.28 106.049835 
L 198.72 106.049835 
L 199.44 106.769835 
L 200.16 106.769835 
L 200.88 107.489835 
L 201.6 107.489835 
L 203.04 108.929835 
L 203.76 108.929835 
L 204.48 109.649835 
L 205.2 109.649835 
L 205.92 110.369835 
L 206.64 110.369835 
L 207.36 111.089835 
L 208.08 111.089835 
L 209.52 112.529835 
L 210.24 112.529835 
L 210.96 113.249835 
L 211.68 113.249835 
L 213.84 115.409835 
L 214.56 115.409835 
L 216.510165 117.36 
L 216.510165 118.08 
L 217.950165 119.52 
L 217.950165 120.24 
L 218.670165 120.96 
L 218.670165 122.4 
L 219.390165 123.12 
L 219.390165 123.84 
L 220.110165 124.56 
L 220.110165 128.16 
L 220.830165 128.88 
L 220.830165 131.76 
L 221.550165 132.48 
L 221.550165 134.64 
L 222.270165 135.36 
L 222.270165 136.8 
L 222.990165 137.52 
L 222.990165 138.96 
L 223.710165 139.68 
L 223.710165 141.12 
L 224.430165 141.84 
L 224.430165 143.28 
L 225.150165 144 
L 225.150165 145.44 
L 225.870165 146.16 
L 225.870165 146.88 
L 226.590165 147.6 
L 226.590165 148.32 
L 227.310165 149.04 
L 227.310165 150.48 
L 228.030165 151.2 
L 228.030165 152.64 
L 228.750165 153.36 
L 228.750165 154.8 
L 229.470165 155.52 
L 229.470165 156.24 
L 230.190165 156.96 
L 230.190165 157.68 
L 230.910165 158.4 
L 230.910165 159.84 
L 231.630165 160.56 
L 231.630165 161.28 
L 232.350165 162 
L 232.350165 163.44 
L 233.070165 164.16 
L 233.070165 164.88 
L 233.790165 165.6 
L 233.790165 166.32 
L 234.510165 167.04 
L 234.510165 167.76 
L 235.230165 168.48 
L 235.230165 169.2 
L 235.950165 169.92 
L 235.950165 170.64 
L 236.670165 171.36 
L 236.670165 172.08 
L 237.390165 172.8 
L 237.390165 173.52 
L 238.110165 174.24 
L 238.110165 174.96 
L 239.550165 176.4 
L 239.550165 177.12 
L 240.270165 177.84 
L 240.270165 178.56 
L 240.990165 179.28 
L 240.990165 180 
L 242.430165 181.44 
L 242.430165 182.16 
L 243.150165 182.88 
L 243.150165 183.6 
L 244.590165 185.04 
L 244.590165 185.76 
L 245.310165 186.48 
L 245.310165 187.2 
L 246.030165 187.92 
L 246.030165 188.64 
L 246.750165 189.36 
L 246.750165 190.08 
L 248.190165 191.52 
L 248.190165 192.96 
L 248.910165 193.68 
L 248.910165 194.4 
L 249.630165 195.12 
L 249.630165 195.84 
L 250.350165 196.56 
L 250.350165 198 
L 251.070165 198.72 
L 251.070165 200.16 
L 251.790165 200.88 
L 251.790165 203.04 
L 252.510165 203.76 
L 252.510165 206.64 
L 253.230165 207.36 
L 253.230165 368.64 
L 253.230165 368.64 
" clip-path="url(#p9e7668979f)" style="fill: none; stroke: #c8d8e8; stroke-width: 0.5"/>
    <path d="M 367.92 99.405813 
L 366.434187 99.36 
L 365.76 98.685813 
L 364.994187 98.64 
L 364.32 97.965813 
L 363.554187 97.92 
L 362.16 96.525813 
L 361.394187 96.48 
L 360 95.085813 
L 359.234187 95.04 
L 357.84 93.645813 
L 357.074187 93.6 
L 356.4 92.925813 
L 355.634187 92.88 
L 353.52 90.765813 
L 352.754187 90.72 
L 351.36 89.325813 
L 350.594187 89.28 
L 348.48 87.165813 
L 347.714187 87.12 
L 347.04 86.445813 
L 345.554187 86.4 
L 344.16 85.005813 
L 342.674187 84.96 
L 342 84.285813 
L 340.514187 84.24 
L 339.84 83.565813 
L 339.074187 83.52 
L 338.4 82.845813 
L 331.2 82.845813 
L 330.48 83.565813 
L 329.04 83.565813 
L 328.32 84.285813 
L 326.88 84.285813 
L 326.16 85.005813 
L 325.44 85.005813 
L 324.72 85.725813 
L 324 85.725813 
L 322.56 87.165813 
L 321.84 87.165813 
L 321.165813 87.84 
L 321.12 88.605813 
L 317.565813 92.16 
L 317.52 92.925813 
L 316.845813 93.6 
L 316.8 94.365813 
L 316.125813 95.04 
L 316.08 95.805813 
L 315.405813 96.48 
L 315.36 97.965813 
L 314.685813 98.64 
L 314.64 100.125813 
L 313.965813 100.8 
L 313.92 103.005813 
L 313.245813 103.68 
L 313.2 105.885813 
L 312.525813 106.56 
L 312.48 109.485813 
L 311.805813 110.16 
L 311.76 113.805813 
L 311.085813 114.48 
L 311.04 120.285813 
L 310.365813 120.96 
L 310.32 125.325813 
L 309.645813 126 
L 309.6 128.925813 
L 308.925813 129.6 
L 308.88 132.525813 
L 308.205813 133.2 
L 308.16 135.405813 
L 307.485813 136.08 
L 307.44 138.285813 
L 306.765813 138.96 
L 306.72 141.165813 
L 306.045813 141.84 
L 306 144.045813 
L 305.325813 144.72 
L 305.325813 150.48 
L 306.045813 151.2 
L 306.045813 152.64 
L 306.765813 153.36 
L 306.765813 156.24 
L 307.485813 156.96 
L 307.485813 158.4 
L 308.205813 159.12 
L 308.205813 160.56 
L 309.645813 162 
L 309.645813 164.16 
L 310.365813 164.88 
L 310.365813 165.6 
L 311.085813 166.32 
L 311.085813 167.76 
L 311.805813 168.48 
L 311.805813 170.64 
L 312.525813 171.36 
L 312.525813 174.24 
L 313.245813 174.96 
L 313.245813 182.16 
L 313.965813 182.88 
L 313.965813 186.48 
L 314.685813 187.2 
L 314.685813 188.64 
L 315.405813 189.36 
L 315.405813 191.52 
L 316.125813 192.24 
L 316.125813 193.68 
L 316.845813 194.4 
L 316.845813 195.84 
L 317.565813 196.56 
L 317.565813 198 
L 318.285813 198.72 
L 318.285813 200.16 
L 319.005813 200.88 
L 319.005813 203.76 
L 319.725813 204.48 
L 319.725813 205.92 
L 320.445813 206.64 
L 320.445813 208.08 
L 321.165813 208.8 
L 321.165813 211.68 
L 321.885813 212.4 
L 321.885813 216.72 
L 322.605813 217.44 
L 322.605813 218.16 
L 323.325813 218.88 
L 323.325813 220.32 
L 324.045813 221.04 
L 324 226.845813 
L 323.325813 227.52 
L 323.28 229.725813 
L 321.885813 231.12 
L 321.84 235.485813 
L 321.165813 236.16 
L 321.165813 281.16 
M 321.165813 303.48 
L 321.165813 368.64 
M 0 80.594187 
L 2.88 80.594187 
L 3.6 79.874187 
L 5.76 79.874187 
L 6.48 79.154187 
L 7.92 79.154187 
L 8.64 78.434187 
L 9.36 78.434187 
L 10.8 77.017093 
L 11.52 76.994187 
L 12.24 76.274187 
L 12.96 76.274187 
L 14.4 74.857093 
L 15.12 74.834187 
L 15.84 74.114187 
L 16.56 74.114187 
L 18.72 71.954187 
L 20.16 71.234187 
L 22.274187 69.12 
L 22.32 68.354187 
L 23.76 66.914187 
L 24.48 65.474187 
L 25.154187 64.8 
L 25.2 64.034187 
L 25.874187 62.64 
L 25.92 61.874187 
L 26.594187 60.48 
L 26.64 58.994187 
L 26.977093 58.32 
L 26.977093 56.16 
L 27.314187 55.44 
L 27.337093 51.84 
L 27.36 46.754187 
L 27.697093 46.08 
L 27.697093 43.2 
L 28.034187 42.48 
L 28.08 38.834187 
L 28.417093 38.16 
L 28.417093 32.4 
L 28.304729 31.68 
L 28.064729 30.96 
L 28.057093 29.52 
L 27.697093 28.08 
L 27.697093 27.36 
L 27.344729 26.64 
L 27.338711 26.072557 
M 19.338208 5.515567 
L 19.057093 4.32 
L 19.057093 3.6 
L 18.697093 2.88 
L 18.697093 0.72 
L 18.697093 0.72 
" clip-path="url(#p9e7668979f)" style="fill: none; stroke: #c8d8e8; stroke-width: 0.5"/>
    <path clip-path="url(#p9e7668979f)" style="fill: none; stroke: #c8d8e8; stroke-width: 0.5"/>
    <path clip-path="url(#p9e7668979f)" style="fill: none; stroke: #c8d8e8; stroke-width: 0.5"/>
    <path clip-path="url(#p9e7668979f)" style="fill: none; stroke: #c8d8e8; stroke-width: 0.5"/>
    <path clip-path="url(#p9e7668979f)" style="fill: none; stroke: #c8d8e8; stroke-width: 0.5"/>
    <path clip-path="url(#p9e7668979f)" style="fill: none; stroke: #c8d8e8; stroke-width: 0.5"/>
    <path clip-path="url(#p9e7668979f)" style="fill: none; stroke: #c8d8e8; stroke-width: 0.5"/>
    <path clip-path="url(#p9e7668979f)" style="fill: none; stroke: #c8d8e8; stroke-width: 0.5"/>
    <path clip-path="url(#p9e7668979f)" style="fill: none; stroke: #c8d8e8; stroke-width: 0.5"/>
    <path clip-path="url(#p9e7668979f)" style="fill: none; stroke: #c8d8e8; stroke-width: 0.5"/>
    <path clip-path="url(#p9e7668979f)" style="fill: none; stroke: #c8d8e8; stroke-width: 0.5"/>
   </g>
   <g id="text_1">
    <g clip-path="url(#p9e7668979f)">
     <!-- 1010 -->
     <g style="fill: #c8d8e8" transform="translate(319.510188 284.685) rotate(-270) scale(0.06 -0.06)">
      <defs>
       <path id="DejaVuSans-31" d="M 794 531 
L 1825 531 
L 1825 4091 
L 703 3866 
L 703 4441 
L 1819 4666 
L 2450 4666 
L 2450 531 
L 3481 531 
L 3481 0 
L 794 0 
L 794 531 
z
" transform="scale(0.015625)"/>
       <path id="DejaVuSans-30" d="M 2034 4250 
Q 1547 4250 1301 3770 
Q 1056 3291 1056 2328 
Q 1056 1369 1301 889 
Q 1547 409 2034 409 
Q 2525 409 2770 889 
Q 3016 1369 3016 2328 
Q 3016 3291 2770 3770 
Q 2525 4250 2034 4250 
z
M 2034 4750 
Q 2819 4750 3233 4129 
Q 3647 3509 3647 2328 
Q 3647 1150 3233 529 
Q 2819 -91 2034 -91 
Q 1250 -91 836 529 
Q 422 1150 422 2328 
Q 422 3509 836 4129 
Q 1250 4750 2034 4750 
z
" transform="scale(0.015625)"/>
      </defs>
      <use xlink:href="#DejaVuSans-31"/>
      <use xlink:href="#DejaVuSans-30" transform="translate(63.623047 0)"/>
      <use xlink:href="#DejaVuSans-31" transform="translate(127.246094 0)"/>
      <use xlink:href="#DejaVuSans-30" transform="translate(190.869141 0)"/>
     </g>
    </g>
   </g>
   <g id="text_2">
    <g clip-path="url(#p9e7668979f)">
     <!-- 1010 -->
     <g style="fill: #c8d8e8" transform="translate(18.484796 9.538811) rotate(-293.431787) scale(0.06 -0.06)">
      <use xlink:href="#DejaVuSans-31"/>
      <use xlink:href="#DejaVuSans-30" transform="translate(63.623047 0)"/>
      <use xlink:href="#DejaVuSans-31" transform="translate(127.246094 0)"/>
      <use xlink:href="#DejaVuSans-30" transform="translate(190.869141 0)"/>
     </g>
    </g>
   </g>
  </g>
 </g>
 <defs>
  <clipPath id="p9e7668979f">
   <rect x="0" y="0" width="368.64" height="368.64"/>
  </clipPath>
 </defs>
</svg>
